<?xml version="1.0" encoding="UTF-8" standalone="no"?>
<!-- Created with Inkscape (http://www.inkscape.org/) -->

<svg
   version="1.1"
   id="svg2"
   xml:space="preserve"
   width="1211.0868"
   height="713.53369"
   viewBox="0 0 1211.0868 713.53369"
   sodipodi:docname="Seamless_pattern_with_shark_fin_in_ocean_wave._Cute_Marine_pattern_for_fabric__baby_clothes__background__textile_wrapping_paper_and_other_decoration.Vector_illustration.svg"
   inkscape:version="1.1.1 (c3084ef, 2021-09-22)"
   xmlns:inkscape="http://www.inkscape.org/namespaces/inkscape"
   xmlns:sodipodi="http://sodipodi.sourceforge.net/DTD/sodipodi-0.dtd"
   xmlns="http://www.w3.org/2000/svg"
   xmlns:svg="http://www.w3.org/2000/svg"><defs
     id="defs6" /><sodipodi:namedview
     id="namedview4"
     pagecolor="#ffffff"
     bordercolor="#666666"
     borderopacity="1.0"
     inkscape:pageshadow="2"
     inkscape:pageopacity="0.0"
     inkscape:pagecheckerboard="0"
     showgrid="false"
     fit-margin-top="0"
     fit-margin-left="0"
     fit-margin-right="0"
     fit-margin-bottom="0"
     inkscape:zoom="0.1048125"
     inkscape:cx="357.78176"
     inkscape:cy="1101.9678"
     inkscape:window-width="1440"
     inkscape:window-height="785"
     inkscape:window-x="0"
     inkscape:window-y="25"
     inkscape:window-maximized="1"
     inkscape:current-layer="g8" /><g
     id="g8"
     inkscape:groupmode="layer"
     inkscape:label="ink_ext_XXXXXX"
     transform="matrix(1.3333333,0,0,-1.3333333,-2308.8699,3771.2835)"><g
       id="g4259"><path
         d="m 2535.39,2828.16 c 29.78,4.1 45.24,-34.5 20.77,-51.96 -96.34,-68.68 -182.64,-199.79 -164.46,-412.6 l -7.9,-8.39 c -27.56,-29.28 -73.64,-30.67 -102.92,-3.11 l -45.45,42.78 c -29.28,27.56 -75.36,26.17 -102.93,-3.11 l -39.21,-41.66 c -27.56,-29.28 -73.64,-30.67 -102.93,-3.11 l -34.78,32.75 c 54.96,130.63 210.84,397.61 579.81,448.41"
         style="fill:#306379;fill-opacity:1;fill-rule:nonzero;stroke:none;stroke-width:0.1"
         id="path26" /><path
         d="m 2622.39,2322.16 -78.73,87.71 c -28.47,31.72 -77.99,32.31 -107.21,1.27 l -52.65,-55.93 c -27.56,-29.28 -73.64,-30.67 -102.92,-3.11 l -45.45,42.78 c -29.28,27.56 -75.36,26.17 -102.93,-3.11 l -39.21,-41.66 c -27.56,-29.28 -73.64,-30.67 -102.93,-3.11 l -56.8,53.47 c -29.28,27.57 -75.36,26.18 -102.93,-3.11 l -81.4,-86.47"
         style="fill:none;stroke:#3787ac;stroke-width:35.1551;stroke-linecap:round;stroke-linejoin:round;stroke-miterlimit:10;stroke-dasharray:none;stroke-opacity:1"
         id="path28" /></g></g></svg>
