<?xml version="1.0" encoding="UTF-8" standalone="no"?>
<!-- Created with Inkscape (http://www.inkscape.org/) -->

<svg
   version="1.1"
   id="svg2"
   xml:space="preserve"
   width="1370.8666"
   height="5267.4268"
   viewBox="0 0 1370.8666 5267.4268"
   sodipodi:docname="bouteille.svg"
   inkscape:version="1.1.1 (c3084ef, 2021-09-22)"
   xmlns:inkscape="http://www.inkscape.org/namespaces/inkscape"
   xmlns:sodipodi="http://sodipodi.sourceforge.net/DTD/sodipodi-0.dtd"
   xmlns="http://www.w3.org/2000/svg"
   xmlns:svg="http://www.w3.org/2000/svg"><defs
     id="defs6" /><sodipodi:namedview
     id="namedview4"
     pagecolor="#ffffff"
     bordercolor="#666666"
     borderopacity="1.0"
     inkscape:pageshadow="2"
     inkscape:pageopacity="0.0"
     inkscape:pagecheckerboard="0"
     showgrid="false"
     fit-margin-top="0"
     fit-margin-left="0"
     fit-margin-right="0"
     fit-margin-bottom="0"
     inkscape:zoom="0.070218748"
     inkscape:cx="733.42236"
     inkscape:cy="2385.4028"
     inkscape:window-width="1440"
     inkscape:window-height="785"
     inkscape:window-x="0"
     inkscape:window-y="25"
     inkscape:window-maximized="1"
     inkscape:current-layer="g8" /><g
     id="g8"
     inkscape:groupmode="layer"
     inkscape:label="ink_ext_XXXXXX"
     transform="matrix(1.3333333,0,0,-1.3333333,-3149.0133,5716.2265)"><g
       id="g3320"><path
         d="m 2984.41,4274.14 c -1.42,0.53 -2.94,1.05 -4.55,1.56 -0.53,0.16 -1.08,0.33 -1.63,0.5 -1.11,0.33 -2.26,0.65 -3.45,0.97 -3.55,0.96 -7.44,1.87 -11.63,2.71 -2.1,0.42 -4.26,0.83 -6.51,1.22 -0.74,0.13 -1.5,0.26 -2.26,0.39 -1.53,0.25 -3.08,0.5 -4.67,0.74 -1.58,0.23 -3.19,0.47 -4.84,0.69 -5.74,0.78 -11.84,1.47 -18.22,2.05 -1.82,0.17 -3.67,0.33 -5.54,0.47 -1.87,0.15 -3.76,0.29 -5.67,0.42 -0.96,0.07 -1.92,0.13 -2.88,0.19 -1.94,0.12 -3.89,0.24 -5.86,0.34 -9.87,0.51 -20.21,0.78 -30.86,0.78 -14.92,0 -29.22,-0.53 -42.46,-1.51 -1.89,-0.14 -3.76,-0.29 -5.61,-0.45 -7.38,-0.62 -14.4,-1.4 -20.97,-2.29 -4.93,-0.67 -9.6,-1.41 -13.99,-2.22 -0.73,-0.13 -1.45,-0.27 -2.17,-0.4 -7.14,-1.38 -13.48,-2.92 -18.83,-4.6 -1.07,-0.34 -2.1,-0.68 -3.09,-1.03 -10.41,-3.65 -16.36,-7.88 -16.36,-12.39 v 0 -0.02 c 0,-0.22 0.02,-0.42 0.04,-0.63 v -0.01 l 16.4,-253.31 c 0.92,-14.12 9.39,-26.63 22.16,-32.72 l 88.16,-42.05 c 13.28,-6.33 28.42,-7.55 42.53,-3.42 l 33.3,9.75 c 15.85,4.64 27.07,18.76 28.01,35.25 l 16.32,286.62 c 0.02,0.17 0.03,0.35 0.03,0.54 v 0 c 0,4.29 -5.39,8.34 -14.9,11.86"
         style="fill:#ffc75e;fill-opacity:1;fill-rule:nonzero;stroke:none;stroke-width:0.1"
         id="path14" /><path
         d="m 2765.97,4052.01 -13.57,209.61 c -0.03,0.22 -0.04,0.44 -0.04,0.66 v 0 -0.02 c 0,-0.22 0.02,-0.42 0.04,-0.63 v -0.01 l 13.57,-209.61 v 0 m -13.61,210.33 c 0,0.01 0,0.02 0,0.02 0,0 0,-0.01 0,-0.02 m 0,0.07 c 0,0.01 0,0.01 0,0.02 0,-0.01 0,-0.01 0,-0.02 m 0,0.08 c 0,0 0,0.01 0,0.01 0,0 0,-0.01 0,-0.01 m 0.01,0.07 c 0,0 0,0.01 0,0.02 0,-0.01 0,-0.02 0,-0.02 m 0,0.07 c 0,0 0,0.01 0,0.01 0,0 0,-0.01 0,-0.01 m 0.01,0.07 c 0,0.01 0,0.02 0,0.03 0,-0.01 0,-0.02 0,-0.03 m 0,0.07 c 0,0.01 0,0.02 0.01,0.02 -0.01,0 -0.01,-0.01 -0.01,-0.02 m 0.01,0.07 c 0,0.01 0,0.01 0,0.02 0,-0.01 0,-0.01 0,-0.02 m 0.01,0.08 c 0,0.01 0,0.01 0,0.02 0,-0.01 0,-0.01 0,-0.02 m 0.01,0.06 c 0,0.01 0,0.02 0,0.03 0,-0.01 0,-0.02 0,-0.03 m 0.01,0.07 c 0,0.02 0,0.03 0,0.04 0,-0.01 0,-0.02 0,-0.04 m 0.01,0.08 c 0,0.01 0,0.02 0.01,0.03 -0.01,-0.01 -0.01,-0.02 -0.01,-0.03 m 0.01,0.06 c 0,0.01 0,0.02 0.01,0.03 -0.01,-0.01 -0.01,-0.02 -0.01,-0.03 m 0.01,0.07 c 0.01,0.02 0.01,0.03 0.01,0.05 0,-0.01 0,-0.03 -0.01,-0.05 m 0.02,0.08 c 0,0.01 0,0.02 0.01,0.03 -0.01,-0.01 -0.01,-0.02 -0.01,-0.03 m 0.01,0.06 c 0.01,0.02 0.01,0.04 0.02,0.06 -0.01,-0.02 -0.01,-0.04 -0.02,-0.06 m 0.02,0.09 c 0.01,0.01 0.01,0.02 0.01,0.04 0,-0.02 0,-0.03 -0.01,-0.04 m 0.02,0.05 c 0,0.02 0,0.03 0.01,0.05 -0.01,-0.02 -0.01,-0.03 -0.01,-0.05 m 0.01,0.06 c 0.01,0.05 0.03,0.09 0.04,0.14 -0.01,-0.05 -0.03,-0.09 -0.04,-0.14 m 0.04,0.15 c 1.21,4.17 7.51,8.06 17.66,11.44 -0.51,-0.18 -1.02,-0.35 -1.51,-0.52 -9.27,-3.25 -15,-6.96 -16.15,-10.92 m 17.71,11.45 c 0.04,0.01 0.07,0.02 0.1,0.04 -0.03,-0.02 -0.06,-0.03 -0.1,-0.04 m 3.16,0.99 v 0 c 0,0 0,0 0,0 m 0.24,0.08 c 0.05,0.01 0.11,0.03 0.16,0.04 -0.05,-0.01 -0.11,-0.03 -0.16,-0.04 m 0.22,0.06 c 0.07,0.02 0.14,0.04 0.21,0.06 -0.07,-0.02 -0.14,-0.04 -0.21,-0.06 m 0.24,0.07 c 18.56,5.42 47.52,9.29 81.08,10.43 v 0 c -7.53,-0.26 -14.84,-0.65 -21.84,-1.17 -1.89,-0.14 -3.76,-0.29 -5.61,-0.45 -7.38,-0.62 -14.4,-1.4 -20.97,-2.29 -4.93,-0.67 -9.6,-1.41 -13.99,-2.22 -0.73,-0.13 -1.45,-0.27 -2.17,-0.4 -6.13,-1.18 -11.67,-2.49 -16.5,-3.9"
         style="fill:#f8cc9d;fill-opacity:1;fill-rule:nonzero;stroke:none;stroke-width:0.1"
         id="path16" /><path
         d="m 2765.97,4052.01 -13.57,209.61 v 0.01 c -0.02,0.21 -0.04,0.41 -0.04,0.63 v 0.02 0 c 0,0.02 0,0.04 0,0.06 0,0.01 0,0.02 0,0.02 0,0.02 0,0.03 0,0.05 0,0.01 0,0.01 0,0.02 0,0.02 0,0.04 0,0.06 0,0 0,0.01 0,0.01 0,0.02 0.01,0.04 0.01,0.06 0,0 0,0.01 0,0.02 0,0.01 0,0.03 0,0.05 0,0 0,0.01 0,0.01 0,0.02 0.01,0.04 0.01,0.06 0,0.01 0,0.02 0,0.03 0,0.01 0,0.02 0,0.04 0,0.01 0,0.02 0.01,0.02 0,0.02 0,0.04 0,0.05 0,0.01 0,0.01 0,0.02 0,0.02 0.01,0.04 0.01,0.06 0,0.01 0,0.01 0,0.02 0,0.01 0.01,0.03 0.01,0.04 0,0.01 0,0.02 0,0.03 0,0.01 0.01,0.03 0.01,0.04 0,0.02 0,0.03 0,0.04 0.01,0.01 0.01,0.02 0.01,0.04 0,0.01 0,0.02 0.01,0.03 0,0.01 0,0.02 0,0.03 0,0.01 0,0.02 0.01,0.03 0,0.02 0,0.03 0,0.04 0.01,0.02 0.01,0.04 0.01,0.05 0.01,0.01 0.01,0.02 0.01,0.03 0,0.01 0,0.02 0.01,0.03 0,0.01 0,0.02 0,0.03 0.01,0.02 0.01,0.04 0.02,0.06 0,0.01 0,0.02 0,0.03 0.01,0.01 0.01,0.02 0.01,0.04 0,0 0,0.01 0.01,0.01 0,0.02 0,0.03 0.01,0.05 0,0 0,0 0,0.01 0.01,0.05 0.03,0.09 0.04,0.14 0,0.01 0,0.01 0,0.01 1.15,3.96 6.88,7.67 16.15,10.92 0.49,0.17 1,0.34 1.51,0.52 0.02,0 0.04,0.01 0.05,0.01 0.04,0.01 0.07,0.02 0.1,0.04 0.98,0.32 2,0.64 3.06,0.95 0,0 0,0 0,0 0.08,0.03 0.16,0.05 0.24,0.08 0.05,0.01 0.11,0.03 0.16,0.04 0.02,0.01 0.04,0.01 0.06,0.02 0.07,0.02 0.14,0.04 0.21,0.06 0.01,0.01 0.02,0.01 0.03,0.01 4.83,1.41 10.37,2.72 16.5,3.9 0.72,0.13 1.44,0.27 2.17,0.4 4.39,0.81 9.06,1.55 13.99,2.22 6.57,0.89 13.59,1.67 20.97,2.29 1.85,0.16 3.72,0.31 5.61,0.45 7,0.52 14.31,0.91 21.84,1.17 -27.9,-29.71 -45.49,-73.12 -45.49,-121.47 0,-38.37 11.07,-73.62 29.58,-101.39 -4.93,-0.23 -10.2,-0.57 -15.71,-1.06 -9,-0.8 -18.63,-2 -28.41,-3.77 0.51,2.89 0.8,6.04 0.8,9.34 0,13.9 -5.05,25.16 -11.27,25.16 -6.22,0 -11.27,-11.26 -11.27,-25.16 0,-5.08 0.67,-9.8 1.83,-13.75 -3.12,-0.84 -6.23,-1.74 -9.31,-2.72 m 14.85,115.94 c -5.68,0 -10.29,-6.21 -10.29,-13.88 0,-7.67 4.61,-13.88 10.29,-13.88 5.69,0 10.3,6.21 10.3,13.88 0,7.67 -4.61,13.88 -10.3,13.88 m 20.96,78.42 c -7.67,0 -13.88,-6.21 -13.88,-13.88 0,-7.67 6.21,-13.88 13.88,-13.88 7.67,0 13.88,6.21 13.88,13.88 0,7.67 -6.21,13.88 -13.88,13.88"
         style="fill:#f8ae46;fill-opacity:1;fill-rule:nonzero;stroke:none;stroke-width:0.1"
         id="path18" /><path
         d="m 2801.78,4218.61 c -7.67,0 -13.88,6.21 -13.88,13.88 0,7.67 6.21,13.88 13.88,13.88 7.67,0 13.88,-6.21 13.88,-13.88 0,-7.67 -6.21,-13.88 -13.88,-13.88"
         style="fill:#cb8f39;fill-opacity:1;fill-rule:nonzero;stroke:none;stroke-width:0.1"
         id="path20" /><path
         d="m 2912.52,4063.97 c -6.88,0.32 -13.1,0.43 -18.38,0.43 -1.06,0 -2.08,0 -3.06,-0.01 -4.18,3.27 -6.87,8.36 -6.87,14.08 0,9.87 8,17.87 17.87,17.87 9.87,0 17.87,-8 17.87,-17.87 0,-5.97 -2.93,-11.26 -7.43,-14.5"
         style="fill:#d1a34d;fill-opacity:1;fill-rule:nonzero;stroke:none;stroke-width:0.1"
         id="path22" /><path
         d="m 2952.28,4074.58 c -7.67,0 -13.88,6.22 -13.88,13.88 0,7.67 6.21,13.89 13.88,13.89 7.67,0 13.88,-6.22 13.88,-13.89 0,-7.66 -6.21,-13.88 -13.88,-13.88"
         style="fill:#d1a34d;fill-opacity:1;fill-rule:nonzero;stroke:none;stroke-width:0.1"
         id="path24" /><path
         d="m 2839.88,4074.58 c -4.34,0 -7.87,3.53 -7.87,7.87 0,4.35 3.53,7.87 7.87,7.87 4.35,0 7.88,-3.52 7.88,-7.87 0,-4.34 -3.53,-7.87 -7.88,-7.87"
         style="fill:#d1a34d;fill-opacity:1;fill-rule:nonzero;stroke:none;stroke-width:0.1"
         id="path26" /><path
         d="m 2859.04,4131.47 c -13.9,0 -25.17,11.27 -25.17,25.17 0,13.9 11.27,25.17 25.17,25.17 13.9,0 25.17,-11.27 25.17,-25.17 0,-13.9 -11.27,-25.17 -25.17,-25.17"
         style="fill:#d1a34d;fill-opacity:1;fill-rule:nonzero;stroke:none;stroke-width:0.1"
         id="path28" /><path
         d="m 2909.92,4218.61 c -12.25,0 -22.17,9.92 -22.17,22.16 0,12.24 9.92,22.17 22.17,22.17 12.24,0 22.16,-9.93 22.16,-22.17 0,-12.24 -9.92,-22.16 -22.16,-22.16"
         style="fill:#d1a34d;fill-opacity:1;fill-rule:nonzero;stroke:none;stroke-width:0.1"
         id="path30" /><path
         d="m 2780.82,4140.19 c -5.68,0 -10.29,6.21 -10.29,13.88 0,7.67 4.61,13.88 10.29,13.88 5.69,0 10.3,-6.21 10.3,-13.88 0,-7.67 -4.61,-13.88 -10.3,-13.88"
         style="fill:#cb8f39;fill-opacity:1;fill-rule:nonzero;stroke:none;stroke-width:0.1"
         id="path32" /><path
         d="m 2775.28,4054.73 c -1.16,3.95 -1.83,8.67 -1.83,13.75 0,13.9 5.05,25.16 11.27,25.16 6.22,0 11.27,-11.26 11.27,-25.16 0,-3.3 -0.29,-6.45 -0.8,-9.34 -6.62,-1.19 -13.3,-2.65 -19.91,-4.41"
         style="fill:#cb8f39;fill-opacity:1;fill-rule:nonzero;stroke:none;stroke-width:0.1"
         id="path34" /><path
         d="m 2952.28,4149.42 c -8.16,0 -14.77,8.3 -14.77,18.53 0,10.23 6.61,18.53 14.77,18.53 8.15,0 14.76,-8.3 14.76,-18.53 0,-10.23 -6.61,-18.53 -14.76,-18.53"
         style="fill:#d1a34d;fill-opacity:1;fill-rule:nonzero;stroke:none;stroke-width:0.1"
         id="path36" /><path
         d="M 3389.91,2477.73 V 475.44 h -0.01 c 0,-36.24 -51.42,-69.24 -135.63,-93.96 -93.95,-27.59 -228.72,-44.88 -378.43,-44.88 -52.78,0 -103.69,2.15 -151.61,6.14 -38.22,3.18 -74.55,7.54 -108.4,12.91 -62.41,9.9 -116.39,23.26 -158.35,39.09 -60.26,22.74 -95.72,50.6 -95.72,80.7 v 2002.29 c 0,135.68 80.6,258.39 205.12,312.29 l 10.47,4.53 c 29.55,12.78 48.26,42.33 47.28,74.52 -0.97,31.32 -1,73.47 2.67,117.66 3.24,38.81 9.31,79.2 20.12,115.22 35.62,118.73 58.68,670.02 58.8,672.91 l -34.2,28.67 v 0.01 c -0.01,0.09 -0.04,0.17 -0.05,0.27 -9.69,64.78 40.41,138.76 45.71,146.37 0.3,0.43 0.45,0.65 0.45,0.65 l -22.31,32.73 0.01,0.04 c 8.46,58.08 77.69,74.86 127.77,79.31 29.42,2.62 52.24,0.99 52.24,0.99 0,0 45.36,3.24 90.64,-6.76 41.5,-9.16 82.94,-29.45 89.37,-73.54 l 0.01,-0.04 -22.33,-32.73 c 0,0 0.17,-0.22 0.46,-0.65 5.3,-7.61 55.4,-81.59 45.71,-146.37 l -0.03,-0.23 -0.01,-0.04 -34.2,-28.64 c 0.12,-2.89 23.17,-554.22 58.79,-672.95 10.81,-36.03 16.89,-76.44 20.11,-115.26 3.68,-44.18 3.64,-86.31 2.68,-117.62 -0.99,-32.19 17.72,-61.74 47.29,-74.52 l 10.46,-4.53 c 124.52,-53.9 205.12,-176.61 205.12,-312.29"
         style="fill:#6bcced;fill-opacity:1;fill-rule:nonzero;stroke:none;stroke-width:0.1"
         id="path38" /><path
         d="m 2706.22,3774.86 v 0 0 l -34.2,28.67 c 39.91,14.61 116.25,24.49 203.9,24.49 51.07,0 98.31,-3.36 136.73,-9.05 v 0 l -13.34,-36.36 c -35.8,4.57 -78.09,7.21 -123.39,7.21 -19.77,0 -38.97,-0.5 -57.3,-1.44 0,0.08 0,0.13 0,0.13 0,0 -5.2,-0.31 -13.35,-0.91 -38.22,-2.48 -72.18,-6.92 -99.05,-12.74"
         style="fill:#4e95ad;fill-opacity:1;fill-rule:nonzero;stroke:none;stroke-width:0.1"
         id="path40" /><path
         d="m 3033.54,3950.82 v 0 c -0.01,0 -0.01,0.01 -0.01,0.01 l 19.96,29.26 -19.95,-29.27 m -318.96,5.21 -18.76,27.53 v 0 l 18.76,-27.53"
         style="fill:#bababa;fill-opacity:1;fill-rule:nonzero;stroke:none;stroke-width:0.1"
         id="path42" /><path
         d="m 2718.14,3950.82 -3.56,5.21 -18.76,27.53 c 42.66,10.67 107.44,17.37 180.02,17.37 42.67,0 82.65,-2.32 117.02,-6.39 0,-0.01 0.01,-0.01 0.01,-0.01 l -5.48,-37.07 c -33.06,3.51 -70.99,5.28 -111.55,5.28 -12.26,0 -24.28,-0.17 -36.01,-0.51 -26.58,-0.75 -51.62,-2.36 -74.37,-4.77 -17.18,-1.81 -33.05,-3.92 -47.32,-6.64"
         style="fill:#4e95ad;fill-opacity:1;fill-rule:nonzero;stroke:none;stroke-width:0.1"
         id="path44" /><path
         d="m 2870.87,359.39 c -51.07,0 -100.31,1.9 -146.64,5.44 v 120.51 c 41.36,-9.08 84.89,-14.82 128.8,-14.82 36.09,0 72.45,3.88 108.09,12.98 9.34,2.38 18.63,5.13 27.86,8.26 v 0 0 0 0 0 c 0,0 0,0 0,0.01 -0.01,0 -0.01,0.01 -0.01,0.01 0,0.01 0,0.02 0,0.03 0,0.01 0,0.01 0,0.02 0,0 0,0 0,0.01 0,0 0,0.01 0,0.02 0,0.01 0,0.01 0,0.02 0,0.01 0,0.02 0,0.03 0,0.02 0,0.04 -0.01,0.06 0,0.02 0,0.03 0,0.05 0,0.08 -0.01,0.16 -0.01,0.27 0,0 0,0 0,0.01 -0.27,5.1 -2.33,46.25 -2.65,114.53 105.83,-5.65 199.04,-19.65 267.97,-39.14 V 403.15 c -91.99,-26.45 -227.21,-43.36 -378.01,-43.76 -1.8,0 -3.6,0 -5.39,0 m -413.39,54.88 c -52.87,19.66 -83.69,43.35 -83.76,68.91 -0.06,25.61 30.79,49.51 83.76,69.48 V 414.27"
         style="fill:#68c7e8;fill-opacity:1;fill-rule:nonzero;stroke:none;stroke-width:0.1"
         id="path46" /><path
         d="m 2761.2,4000.93 c 2.64,20.98 29.09,43.81 29.09,43.81 17.2,7.94 65.47,8.6 65.47,8.6 l -14.55,-44.3 c -35.04,-1.33 -80.01,-8.11 -80.01,-8.11"
         style="fill:#b4e5f6;fill-opacity:1;fill-rule:nonzero;stroke:none;stroke-width:0.1"
         id="path48" /><path
         d="m 2724.63,3825.21 c 5.29,80.01 43.97,121.34 43.97,121.34 17.92,4.86 34.1,6.2 46.54,6.2 15.51,0 25.21,-2.09 25.21,-2.09 -7.27,-31.41 -21.73,-114.38 -21.73,-114.38 -66.8,-1.48 -93.99,-11.07 -93.99,-11.07"
         style="fill:#b4e5f6;fill-opacity:1;fill-rule:nonzero;stroke:none;stroke-width:0.1"
         id="path50" /><path
         d="m 2783.96,2826.38 h -112.23 c -13.89,210.94 18.39,252.92 33.27,351.11 14.88,98.19 34.14,603.03 34.14,603.03 21.91,3.49 49.88,5.87 66.13,7.08 4.39,0.28 8.85,0.54 13.35,0.78 -0.19,-9.91 -11.01,-570.18 -34.66,-696.51 -23.95,-127.95 0,-265.49 0,-265.49"
         style="fill:#b4e5f6;fill-opacity:1;fill-rule:nonzero;stroke:none;stroke-width:0.1"
         id="path52" /><path
         d="m 2805.27,3787.6 c 8.15,0.6 13.35,0.91 13.35,0.91 0,0 0,-0.05 0,-0.13 -4.5,-0.24 -8.96,-0.5 -13.35,-0.78"
         style="fill:#a5c9d5;fill-opacity:1;fill-rule:nonzero;stroke:none;stroke-width:0.1"
         id="path54" /><path
         d="m 3343.5,2258.82 c 0,0 -175.49,83.12 -317.24,75.98 -141.75,-7.15 55.19,-226.63 55.19,-226.63 l 127.5,37.46 134.55,113.19"
         style="fill:#bc966c;fill-opacity:1;fill-rule:nonzero;stroke:none;stroke-width:0.1"
         id="path56" /><path
         d="m 3208.09,2333.07 -50.7,-252.69 -80.72,64.57 -121.91,97.53 -157.39,125.91 c 0,0 170.81,91.35 410.72,-35.32"
         style="fill:#bc966c;fill-opacity:1;fill-rule:nonzero;stroke:none;stroke-width:0.1"
         id="path58" /><path
         d="m 3208.09,2333.07 -36.79,-183.38 -94.63,-4.74 -142.91,-7.15 37.39,186.39 c 162.07,-49.54 236.94,8.88 236.94,8.88"
         style="fill:#ffdaae;fill-opacity:1;fill-rule:nonzero;stroke:none;stroke-width:0.1"
         id="path60" /><path
         d="m 2988.3,506.66 c 0.39,-9.78 0.68,-14.9 0.68,-14.9 -9.23,-3.13 -18.52,-5.88 -27.86,-8.26 -124.94,-31.9 -258.69,0.33 -359.02,39.09 -33.55,12.96 -63.36,26.65 -87.86,38.91 -44.45,22.26 -71.4,39.83 -71.4,39.83 358.25,684.6 354.53,1767.06 354.53,1767.06 27.7,-19.23 54.76,-35.91 81.09,-50.35 18.11,-9.93 35.86,-18.8 53.24,-26.71 20.9,-9.5 41.25,-17.62 60.98,-24.5 6.93,-2.43 13.79,-4.69 20.57,-6.82 83.05,-26.05 154.38,-30.53 209.28,-26.91 76.4,5.02 120.97,25.71 120.97,25.71 C 2960.69,1575.6 2983.23,635.69 2988.3,506.66"
         style="fill:#f8ca8c;fill-opacity:1;fill-rule:nonzero;stroke:none;stroke-width:0.1"
         id="path62" /><path
         d="m 2988.97,491.86 c 0,0 0,0.01 0,0.02 0,-0.01 0,-0.01 0,-0.02"
         style="fill:#9bbcb7;fill-opacity:1;fill-rule:nonzero;stroke:none;stroke-width:0.1"
         id="path64" /><path
         d="m 2988.97,491.91 c 0,0.02 0,0.04 -0.01,0.06 0.01,-0.02 0.01,-0.04 0.01,-0.06"
         style="fill:#9bbcb7;fill-opacity:1;fill-rule:nonzero;stroke:none;stroke-width:0.1"
         id="path66" /><path
         d="m 2988.96,492.02 c 0,0.08 -0.01,0.16 -0.01,0.27 0,-0.11 0.01,-0.19 0.01,-0.27"
         style="fill:#9bbcb7;fill-opacity:1;fill-rule:nonzero;stroke:none;stroke-width:0.1"
         id="path68" /><path
         d="m 2986.3,606.83 v 0 c -0.76,164.06 8.5,484.79 76.66,838.71 v 0 C 2994.8,1091.61 2985.53,770.89 2986.3,606.83 m 79.16,851.59 c 40.09,204.31 99.91,419.16 188.81,620.95 v 0 c -88.89,-201.78 -148.73,-416.65 -188.81,-620.95 v 0"
         style="fill:#9dbfba;fill-opacity:1;fill-rule:nonzero;stroke:none;stroke-width:0.1"
         id="path70" /><path
         d="m 2988.95,492.3 c -0.08,1.54 -0.33,6.41 -0.65,14.36 -0.71,18.22 -1.78,52.61 -2,100.17 v 0 c 0.32,-68.28 2.38,-109.43 2.65,-114.53"
         style="fill:#9bbcb7;fill-opacity:1;fill-rule:nonzero;stroke:none;stroke-width:0.1"
         id="path72" /><path
         d="m 2988.95,492.3 c -0.08,1.54 -0.33,6.41 -0.65,14.36 -11.49,1.46 -22.75,3.04 -33.81,4.73 -74.64,325.24 -56.98,647.49 -2.11,929.55 8.95,-0.4 18,-0.59 27.14,-0.59 27.04,0 54.9,1.73 83.44,5.19 -68.16,-353.92 -77.42,-674.65 -76.66,-838.71 0.22,-47.56 1.29,-81.95 2,-100.17 0.32,-7.95 0.57,-12.82 0.65,-14.36 v 0 m -8.71,960.58 c -8.7,0 -17.17,0.19 -25.4,0.53 68.36,343.07 191.04,625.45 267.69,779.69 11.29,0.74 21.88,1.83 31.74,3.13 v -156.86 c -88.9,-201.79 -148.72,-416.64 -188.81,-620.95 -30.58,-3.88 -58.99,-5.54 -85.22,-5.54"
         style="fill:#ecbe83;fill-opacity:1;fill-rule:nonzero;stroke:none;stroke-width:0.1"
         id="path74" /><path
         d="m 2853.03,470.52 c -43.91,0 -87.44,5.74 -128.8,14.82 v 83.12 c 61.54,-21.92 138.41,-43.09 230.26,-57.07 2.14,-9.31 4.34,-18.58 6.63,-27.89 -35.64,-9.1 -72,-12.98 -108.09,-12.98 m 135.95,21.25 c -0.01,0 -0.01,0.01 -0.01,0.01 0,0 0,-0.01 0.01,-0.01 m -0.01,0.04 c 0,0.01 0,0.01 0,0.02 0,-0.01 0,-0.01 0,-0.02 m 0,0.03 c 0,0 0,0.01 0,0.02 0,-0.01 0,-0.02 0,-0.02 m 0,0.04 c 0,0.01 0,0.02 0,0.03 0,-0.01 0,-0.02 0,-0.03 m -0.01,0.09 c 0,0.02 0,0.03 0,0.05 0,-0.02 0,-0.03 0,-0.05 m -0.01,0.32 c 0,0 0,0 0,0.01 0,-0.01 0,-0.01 0,-0.01 m -531.47,100.06 c -9.5,5.63 -14.64,8.98 -14.64,8.98 4.94,9.44 9.84,19 14.64,28.59 v -37.57 m 266.75,695.87 v 221.58 c 8.91,-6.24 20.87,-13.76 36.01,-21.53 -11.19,-67.07 -23.15,-134.13 -36.01,-200.05 m 38.16,213.02 c -17.28,9.16 -29.95,17.82 -38.13,24.03 -0.01,0.01 -0.02,0.01 -0.03,0.02 v 4.88 c 72.01,439.84 73.14,812.97 73.14,836.99 0,0.77 0,1.18 0,1.22 0,0.01 0,0.01 0,0.01 27.7,-19.23 54.76,-35.91 81.09,-50.35 -31.8,-213.9 -66.29,-515.6 -116.07,-816.8"
         style="fill:#fad7a9;fill-opacity:1;fill-rule:nonzero;stroke:none;stroke-width:0.1"
         id="path76" /><path
         d="m 2961.12,483.5 c -2.29,9.31 -4.49,18.58 -6.63,27.89 11.06,-1.69 22.32,-3.27 33.81,-4.73 0.32,-7.95 0.57,-12.82 0.65,-14.36 0,-0.01 0,-0.01 0,-0.01 0,-0.11 0.01,-0.19 0.01,-0.27 0,-0.02 0,-0.03 0,-0.05 0.01,-0.02 0.01,-0.04 0.01,-0.06 0,-0.01 0,-0.02 0,-0.03 0,-0.01 0,-0.02 0,-0.02 0,-0.01 0,-0.02 0,-0.02 0,-0.01 0,-0.01 0,-0.01 0,-0.01 0,-0.01 0,-0.02 0,-0.01 0,-0.02 0,-0.03 0,0 0,-0.01 0.01,-0.01 0,-0.01 0,-0.01 0,-0.01 -9.23,-3.13 -18.52,-5.88 -27.86,-8.26 v 0"
         style="fill:#f1cea2;fill-opacity:1;fill-rule:nonzero;stroke:none;stroke-width:0.1"
         id="path78" /><path
         d="m 3074.59,1452.12 c 0.24,3.91 -3.15,7.07 -7.04,6.56 -124.06,-16.05 -212.45,4.2 -265.48,24.58 -38.57,14.82 -64.3,31.76 -77.81,42.01 -3.59,2.72 -8.8,0.86 -9.86,-3.53 -0.58,-2.41 0.32,-4.94 2.3,-6.45 14.13,-10.76 40.45,-28.02 80.12,-43.36 23.08,-8.93 47.67,-16.01 73.48,-21.19 14.67,-2.94 29.73,-5.27 45.14,-6.97 48.15,-5.3 99.78,-4.44 153.71,2.55 2.97,0.38 5.25,2.81 5.44,5.8"
         style="fill:#a58460;fill-opacity:1;fill-rule:nonzero;stroke:none;stroke-width:0.1"
         id="path80" /><path
         d="m 2863.67,1439.68 c -9.88,-9.49 -26.69,-26.99 -40.34,-48.13 -26.86,-41.61 -29.41,-76.97 -7.58,-105.1 6.62,-8.54 11.28,-10.98 14.03,-11.53 v 0 c 1.36,-0.28 3.49,-0.39 6.17,1.8 6.21,5.06 17.58,24.09 24,94.61 2.5,27.45 3.4,53.84 3.72,68.35 z m -35.85,-174.54 h -0.01 c -6.49,1.31 -13.01,6.28 -19.93,15.19 -13.68,17.62 -18.99,37.98 -15.8,60.52 2.51,17.63 10.24,36.57 22.99,56.28 21.43,33.14 49.37,56.85 50.55,57.84 l 8.24,6.93 -0.04,-10.76 c 0,-0.39 -0.18,-39.31 -3.94,-80.65 -5.22,-57.38 -14.25,-90.58 -27.62,-101.49 -4.35,-3.55 -9.34,-4.88 -14.44,-3.86"
         style="fill:#a58460;fill-opacity:1;fill-rule:nonzero;stroke:none;stroke-width:0.1"
         id="path82" /><path
         d="m 2876.03,1445.76 c -3.7,-5.67 -9.91,-15.99 -15.59,-29.19 -7.98,-18.59 -16.5,-46.9 -11.78,-76.23 4.81,-29.9 22.38,-55.6 52.22,-76.38 11.85,-8.26 21.76,-13.22 29.45,-14.77 v 0 c 9.72,-1.95 13.16,2.03 15.08,5.71 7.47,14.4 1.39,51 -15.89,95.53 -15.24,39.27 -36.2,76.45 -53.49,95.33 z m 52.34,-206.34 v 0 c -9.05,1.81 -20.21,7.32 -33.19,16.36 -32.16,22.4 -51.13,50.34 -56.37,83.04 -5.1,31.77 4.03,62.1 12.59,81.95 9.23,21.39 19.53,35.22 19.97,35.8 l 3.36,4.48 4.06,-3.86 c 19.24,-18.29 42.8,-58.78 60.02,-103.15 8.91,-22.97 28.26,-79.06 15.44,-103.74 -4.88,-9.39 -14.07,-13.25 -25.88,-10.88"
         style="fill:#a58460;fill-opacity:1;fill-rule:nonzero;stroke:none;stroke-width:0.1"
         id="path84" /><path
         d="m 2724.23,342.74 c -0.28,0.02 -0.56,0.05 -0.84,0.07 0.28,-0.02 0.56,-0.05 0.84,-0.07 v 0 m -0.96,0.08 c -0.28,0.02 -0.55,0.05 -0.82,0.07 0.27,-0.02 0.54,-0.05 0.82,-0.07 m -0.84,0.07 c -0.58,0.05 -1.16,0.1 -1.74,0.15 0.58,-0.05 1.16,-0.1 1.74,-0.15 m -1.81,0.15 c -106.87,9.14 -198.64,27.45 -262.62,51.5 40.54,-15.24 92.25,-28.18 151.9,-37.94 0.11,-0.01 0.21,-0.03 0.32,-0.05 -0.11,0.02 -0.21,0.04 -0.32,0.05 0.63,-0.1 1.27,-0.2 1.9,-0.3 -0.53,0.08 -1.06,0.17 -1.58,0.25 1.35,-0.22 2.7,-0.44 4.05,-0.65 0.05,-0.01 0.09,-0.02 0.13,-0.02 0.06,-0.01 0.11,-0.02 0.16,-0.03 0.42,-0.07 0.85,-0.13 1.27,-0.2 v 0 c 32.79,-5.21 67.89,-9.45 104.79,-12.61 m -262.66,51.52 c -0.16,0.06 -0.32,0.12 -0.48,0.18 v 0 0 c 0.16,-0.06 0.32,-0.12 0.48,-0.18"
         style="fill:#ffffff;fill-opacity:1;fill-rule:nonzero;stroke:none;stroke-width:0.1"
         id="path86" /><path
         d="m 2724.23,342.74 v 0 c -0.28,0.02 -0.56,0.05 -0.84,0.07 -0.04,0 -0.09,0.01 -0.12,0.01 -0.28,0.02 -0.55,0.05 -0.82,0.07 h -0.02 c -0.58,0.05 -1.16,0.1 -1.74,0.15 -0.02,0 -0.05,0 -0.07,0 -36.9,3.16 -72,7.4 -104.79,12.61 v 0 c -1.34,0.22 -2.69,0.43 -4.03,0.65 -0.63,0.1 -1.27,0.2 -1.9,0.3 -1.02,0.17 -2.04,0.34 -3.06,0.51 1.02,-0.17 2.04,-0.34 3.06,-0.51 -59.65,9.76 -111.36,22.7 -151.9,37.94 -0.02,0.01 -0.03,0.01 -0.04,0.02 -0.16,0.06 -0.32,0.12 -0.48,0.18 1.79,-0.67 3.6,-1.34 5.43,-2 -1.83,0.66 -3.64,1.33 -5.43,2 v 0 19.53 c 62.74,-23.34 156.53,-41.02 266.75,-49.44 v -22.09 m -121.98,15.14 c 1.52,-0.25 3.05,-0.51 4.59,-0.77 -1.54,0.26 -3.07,0.52 -4.59,0.77 m -3.15,0.54 c 1.04,-0.18 2.1,-0.36 3.15,-0.54 -1.05,0.18 -2.11,0.36 -3.15,0.54 m -6.69,1.18 c 2.22,-0.4 4.45,-0.79 6.69,-1.18 -2.24,0.39 -4.47,0.78 -6.69,1.18 m -2.72,0.49 c 0.91,-0.17 1.81,-0.33 2.72,-0.49 -0.91,0.16 -1.81,0.32 -2.72,0.49 m 0,0 v 0 0 c -1.71,0.31 -3.41,0.62 -5.11,0.94 1.7,-0.32 3.4,-0.63 5.11,-0.94 m -7.61,1.4 c 0.83,-0.15 1.67,-0.31 2.5,-0.46 -0.83,0.15 -1.67,0.31 -2.5,0.46 m -6.76,1.3 c 2.24,-0.44 4.49,-0.87 6.76,-1.3 -2.27,0.43 -4.52,0.86 -6.76,1.3 m -2.46,0.48 c 0.82,-0.16 1.64,-0.32 2.46,-0.48 -0.82,0.16 -1.64,0.32 -2.46,0.48 m -5.43,1.09 c 1.8,-0.37 3.61,-0.73 5.43,-1.09 -1.82,0.36 -3.63,0.72 -5.43,1.09 m -1.95,0.4 c 0.65,-0.14 1.3,-0.27 1.95,-0.4 -0.65,0.13 -1.3,0.26 -1.95,0.4 m -6.72,1.4 c 2.22,-0.48 4.46,-0.94 6.72,-1.4 -2.26,0.46 -4.5,0.92 -6.72,1.4 m -2.29,0.48 c 0.76,-0.16 1.52,-0.32 2.29,-0.48 -0.77,0.16 -1.53,0.32 -2.29,0.48 m -5.77,1.26 c 1.91,-0.42 3.84,-0.84 5.77,-1.26 -1.93,0.42 -3.86,0.84 -5.77,1.26 m -1.39,0.31 c 0.46,-0.11 0.92,-0.21 1.39,-0.31 -0.47,0.1 -0.93,0.2 -1.39,0.31 m -6.57,1.49 c 2.17,-0.5 4.36,-1 6.57,-1.49 -2.21,0.49 -4.4,0.99 -6.57,1.49 m -2.16,0.49 c 0.71,-0.16 1.44,-0.33 2.16,-0.49 -0.72,0.16 -1.45,0.33 -2.16,0.49 m -6.38,1.51 c 2.11,-0.51 4.24,-1.01 6.38,-1.51 -2.14,0.5 -4.27,1 -6.38,1.51 m -1.21,0.29 c 0.4,-0.09 0.8,-0.19 1.21,-0.29 -0.41,0.1 -0.81,0.2 -1.21,0.29 m 0,0 v 0 0 c -1.93,0.47 -3.84,0.94 -5.73,1.41 1.89,-0.47 3.8,-0.94 5.73,-1.41 m -7.77,1.92 c 0.68,-0.17 1.36,-0.34 2.04,-0.51 -0.68,0.17 -1.36,0.34 -2.04,0.51 m -6.27,1.61 c 2.07,-0.54 4.16,-1.08 6.27,-1.61 -2.11,0.53 -4.2,1.07 -6.27,1.61 m -1.43,0.37 c 0.48,-0.12 0.95,-0.25 1.43,-0.37 -0.48,0.12 -0.95,0.25 -1.43,0.37 m -5.2,1.39 c 1.72,-0.47 3.45,-0.93 5.2,-1.39 -1.75,0.46 -3.48,0.92 -5.2,1.39 m -1.88,0.51 c 0.63,-0.17 1.25,-0.34 1.88,-0.51 -0.63,0.17 -1.25,0.34 -1.88,0.51 m -6.03,1.67 c 2,-0.56 4.01,-1.12 6.03,-1.67 -2.02,0.55 -4.03,1.11 -6.03,1.67 m -1.58,0.45 c 0.53,-0.15 1.05,-0.3 1.58,-0.45 -0.53,0.15 -1.05,0.3 -1.58,0.45 m -4.91,1.42 c 1.62,-0.48 3.26,-0.95 4.91,-1.42 -1.65,0.47 -3.29,0.94 -4.91,1.42 m -1.66,0.48 c 0.55,-0.16 1.1,-0.32 1.66,-0.48 -0.56,0.16 -1.11,0.32 -1.66,0.48 m -5.8,1.75 c 1.91,-0.59 3.85,-1.17 5.8,-1.75 -1.95,0.58 -3.89,1.16 -5.8,1.75 m -1.62,0.5 c 0.54,-0.17 1.08,-0.34 1.62,-0.5 -0.54,0.16 -1.08,0.33 -1.62,0.5 m -4.82,1.5 c 1.6,-0.5 3.2,-1 4.82,-1.5 -1.62,0.5 -3.22,1 -4.82,1.5 m -1.33,0.43 c 0.44,-0.14 0.89,-0.28 1.33,-0.43 -0.44,0.15 -0.89,0.29 -1.33,0.43 m -5.6,1.82 c 1.85,-0.61 3.71,-1.22 5.6,-1.82 -1.89,0.6 -3.75,1.21 -5.6,1.82 m -1.56,0.53 c 0.52,-0.18 1.04,-0.35 1.56,-0.53 -0.52,0.18 -1.04,0.35 -1.56,0.53 m -4.93,1.67 c 1.63,-0.56 3.27,-1.12 4.93,-1.67 -1.66,0.55 -3.3,1.11 -4.93,1.67 m -0.84,0.29 c 0.28,-0.1 0.56,-0.19 0.84,-0.29 -0.28,0.1 -0.56,0.19 -0.84,0.29 m -5.45,1.93 c 1.79,-0.65 3.61,-1.29 5.45,-1.93 -1.84,0.64 -3.66,1.28 -5.45,1.93 m -1.4,0.51 c 0.47,-0.17 0.93,-0.34 1.4,-0.51 -0.47,0.17 -0.93,0.34 -1.4,0.51 m 152.92,-37.09 c -0.42,0.07 -0.85,0.13 -1.27,0.2 0.43,-0.07 0.85,-0.13 1.27,-0.2 m -1.43,0.23 c -0.04,0 -0.08,0.01 -0.13,0.02 0.05,-0.01 0.09,-0.02 0.13,-0.02 m -156.92,196.78 v 39.69 c 10.31,-6.12 25.76,-14.92 45.34,-25.04 -16.5,-4.59 -31.65,-9.49 -45.34,-14.65 m 0,77.26 v 1799.37 c 0,204.33 94.13,259.2 94.13,259.2 48.61,11.9 94.48,15.87 134.04,15.87 79.12,0 132.98,-15.87 132.98,-15.87 0,0 -94.4,-104.16 -94.4,-261.89 v -896.43 c -0.25,-1.49 -0.48,-2.91 -0.73,-4.41 -0.95,0.53 -1.98,0.78 -2.99,0.78 -2.75,0 -5.39,-1.82 -6.11,-4.8 -0.58,-2.41 0.32,-4.94 2.3,-6.45 1.38,-1.05 2.89,-2.17 4.51,-3.34 -49.24,-293.94 -130.28,-615.65 -263.73,-882.03"
         style="fill:#b4e5f6;fill-opacity:1;fill-rule:nonzero;stroke:none;stroke-width:0.1"
         id="path88" /><path
         d="m 2724.23,364.83 c -110.22,8.42 -204.01,26.1 -266.75,49.44 v 138.39 c 13.69,5.16 28.84,10.06 45.34,14.65 3.66,-1.89 7.47,-3.83 11.42,-5.81 24.5,-12.26 54.31,-25.95 87.86,-38.91 36.89,-14.25 78.29,-27.62 122.13,-37.25 V 364.83"
         style="fill:#b2e2f3;fill-opacity:1;fill-rule:nonzero;stroke:none;stroke-width:0.1"
         id="path90" /><path
         d="m 2488.84,384.06 c -1.62,0.5 -3.22,1 -4.82,1.5 1.6,-0.5 3.2,-1 4.82,-1.5"
         style="fill:#cbedf9;fill-opacity:1;fill-rule:nonzero;stroke:none;stroke-width:0.1"
         id="path92" /><path
         d="m 2540.58,370.19 c -2.14,0.5 -4.27,1 -6.38,1.51 2.11,-0.51 4.24,-1.01 6.38,-1.51"
         style="fill:#cbedf9;fill-opacity:1;fill-rule:nonzero;stroke:none;stroke-width:0.1"
         id="path94" /><path
         d="m 2549.31,368.21 c -2.21,0.49 -4.4,0.99 -6.57,1.49 2.17,-0.5 4.36,-1 6.57,-1.49"
         style="fill:#cbedf9;fill-opacity:1;fill-rule:nonzero;stroke:none;stroke-width:0.1"
         id="path96" /><path
         d="m 2532.99,371.99 c -1.93,0.47 -3.84,0.94 -5.73,1.41 1.89,-0.47 3.8,-0.94 5.73,-1.41"
         style="fill:#cbedf9;fill-opacity:1;fill-rule:nonzero;stroke:none;stroke-width:0.1"
         id="path98" /><path
         d="m 2496.26,381.81 c -1.95,0.58 -3.89,1.16 -5.8,1.75 1.91,-0.59 3.85,-1.17 5.8,-1.75"
         style="fill:#cbedf9;fill-opacity:1;fill-rule:nonzero;stroke:none;stroke-width:0.1"
         id="path100" /><path
         d="m 2510.44,377.79 c -2.02,0.55 -4.03,1.11 -6.03,1.67 2,-0.56 4.01,-1.12 6.03,-1.67"
         style="fill:#cbedf9;fill-opacity:1;fill-rule:nonzero;stroke:none;stroke-width:0.1"
         id="path102" /><path
         d="m 2502.83,379.91 c -1.65,0.47 -3.29,0.94 -4.91,1.42 1.62,-0.48 3.26,-0.95 4.91,-1.42"
         style="fill:#cbedf9;fill-opacity:1;fill-rule:nonzero;stroke:none;stroke-width:0.1"
         id="path104" /><path
         d="m 2525.22,373.91 c -2.11,0.53 -4.2,1.07 -6.27,1.61 2.07,-0.54 4.16,-1.08 6.27,-1.61"
         style="fill:#cbedf9;fill-opacity:1;fill-rule:nonzero;stroke:none;stroke-width:0.1"
         id="path106" /><path
         d="m 2606.84,357.11 c -1.54,0.26 -3.07,0.52 -4.59,0.77 1.52,-0.25 3.05,-0.51 4.59,-0.77"
         style="fill:#cbedf9;fill-opacity:1;fill-rule:nonzero;stroke:none;stroke-width:0.1"
         id="path108" /><path
         d="m 2599.1,358.42 c -2.24,0.39 -4.47,0.78 -6.69,1.18 2.22,-0.4 4.45,-0.79 6.69,-1.18"
         style="fill:#cbedf9;fill-opacity:1;fill-rule:nonzero;stroke:none;stroke-width:0.1"
         id="path110" /><path
         d="m 2589.69,360.09 c -1.71,0.31 -3.41,0.62 -5.11,0.94 1.7,-0.32 3.4,-0.63 5.11,-0.94"
         style="fill:#cbedf9;fill-opacity:1;fill-rule:nonzero;stroke:none;stroke-width:0.1"
         id="path112" /><path
         d="m 2614.56,355.85 c -0.05,0.01 -0.1,0.02 -0.16,0.03 0.06,-0.01 0.11,-0.02 0.16,-0.03 m -0.29,0.05 c -1.35,0.21 -2.7,0.43 -4.05,0.65 0.52,-0.08 1.05,-0.17 1.58,-0.25 0.82,-0.14 1.65,-0.27 2.47,-0.4"
         style="fill:#ffffff;fill-opacity:1;fill-rule:nonzero;stroke:none;stroke-width:0.1"
         id="path114" /><path
         d="m 2615.83,355.65 v 0 0 c -0.42,0.07 -0.84,0.13 -1.27,0.2 -0.05,0.01 -0.1,0.02 -0.16,0.03 -0.04,0 -0.08,0.01 -0.13,0.02 -0.82,0.13 -1.65,0.26 -2.47,0.4 1.34,-0.22 2.69,-0.43 4.03,-0.65 v 0"
         style="fill:#cbedf9;fill-opacity:1;fill-rule:nonzero;stroke:none;stroke-width:0.1"
         id="path116" /><path
         d="m 2582.08,361.49 c -2.27,0.43 -4.52,0.86 -6.76,1.3 2.24,-0.44 4.49,-0.87 6.76,-1.3"
         style="fill:#cbedf9;fill-opacity:1;fill-rule:nonzero;stroke:none;stroke-width:0.1"
         id="path118" /><path
         d="m 2565.48,364.76 c -2.26,0.46 -4.5,0.92 -6.72,1.4 2.22,-0.48 4.46,-0.94 6.72,-1.4"
         style="fill:#cbedf9;fill-opacity:1;fill-rule:nonzero;stroke:none;stroke-width:0.1"
         id="path120" /><path
         d="m 2572.86,363.27 c -1.82,0.36 -3.63,0.72 -5.43,1.09 1.8,-0.37 3.61,-0.73 5.43,-1.09"
         style="fill:#cbedf9;fill-opacity:1;fill-rule:nonzero;stroke:none;stroke-width:0.1"
         id="path122" /><path
         d="m 2556.47,366.64 c -1.93,0.42 -3.86,0.84 -5.77,1.26 1.91,-0.42 3.84,-0.84 5.77,-1.26"
         style="fill:#cbedf9;fill-opacity:1;fill-rule:nonzero;stroke:none;stroke-width:0.1"
         id="path124" /><path
         d="m 2517.52,375.89 c -1.75,0.46 -3.48,0.92 -5.2,1.39 1.72,-0.47 3.45,-0.93 5.2,-1.39"
         style="fill:#cbedf9;fill-opacity:1;fill-rule:nonzero;stroke:none;stroke-width:0.1"
         id="path126" /><path
         d="m 2482.69,385.99 c -1.89,0.6 -3.75,1.21 -5.6,1.82 1.85,-0.61 3.71,-1.22 5.6,-1.82"
         style="fill:#cbedf9;fill-opacity:1;fill-rule:nonzero;stroke:none;stroke-width:0.1"
         id="path128" /><path
         d="m 2475.53,388.34 c -1.66,0.55 -3.3,1.11 -4.93,1.67 1.63,-0.56 3.27,-1.12 4.93,-1.67"
         style="fill:#cbedf9;fill-opacity:1;fill-rule:nonzero;stroke:none;stroke-width:0.1"
         id="path130" /><path
         d="m 2469.76,390.3 c -1.84,0.64 -3.66,1.28 -5.45,1.93 1.79,-0.65 3.61,-1.29 5.45,-1.93"
         style="fill:#cbedf9;fill-opacity:1;fill-rule:nonzero;stroke:none;stroke-width:0.1"
         id="path132" /><path
         d="m 2462.91,392.74 c -1.83,0.66 -3.64,1.33 -5.43,2 v 0 c 1.79,-0.67 3.6,-1.34 5.43,-2"
         style="fill:#cbedf9;fill-opacity:1;fill-rule:nonzero;stroke:none;stroke-width:0.1"
         id="path134" /><path
         d="m 2567.43,364.36 c -0.65,0.13 -1.3,0.26 -1.95,0.4 0.65,-0.14 1.3,-0.27 1.95,-0.4"
         style="fill:#d9f2fa;fill-opacity:1;fill-rule:nonzero;stroke:none;stroke-width:0.1"
         id="path136" /><path
         d="m 2584.58,361.03 c -0.83,0.15 -1.67,0.31 -2.5,0.46 0.83,-0.15 1.67,-0.31 2.5,-0.46"
         style="fill:#d9f2fa;fill-opacity:1;fill-rule:nonzero;stroke:none;stroke-width:0.1"
         id="path138" /><path
         d="m 2602.25,357.88 c -1.05,0.18 -2.11,0.36 -3.15,0.54 1.04,-0.18 2.1,-0.36 3.15,-0.54"
         style="fill:#d9f2fa;fill-opacity:1;fill-rule:nonzero;stroke:none;stroke-width:0.1"
         id="path140" /><path
         d="m 2575.32,362.79 c -0.82,0.16 -1.64,0.32 -2.46,0.48 0.82,-0.16 1.64,-0.32 2.46,-0.48"
         style="fill:#d9f2fa;fill-opacity:1;fill-rule:nonzero;stroke:none;stroke-width:0.1"
         id="path142" /><path
         d="m 2592.41,359.6 c -0.91,0.16 -1.81,0.32 -2.72,0.49 0.91,-0.17 1.81,-0.33 2.72,-0.49"
         style="fill:#d9f2fa;fill-opacity:1;fill-rule:nonzero;stroke:none;stroke-width:0.1"
         id="path144" /><path
         d="m 2610.22,356.55 c -0.11,0.02 -0.21,0.04 -0.32,0.05 v 0 c 0.11,-0.01 0.21,-0.03 0.32,-0.05"
         style="fill:#ffffff;fill-opacity:1;fill-rule:nonzero;stroke:none;stroke-width:0.1"
         id="path146" /><path
         d="m 2609.9,356.6 v 0 c -1.02,0.17 -2.04,0.34 -3.06,0.51 1.02,-0.17 2.04,-0.34 3.06,-0.51"
         style="fill:#d9f2fa;fill-opacity:1;fill-rule:nonzero;stroke:none;stroke-width:0.1"
         id="path148" /><path
         d="m 2550.7,367.9 c -0.47,0.1 -0.93,0.2 -1.39,0.31 0.46,-0.11 0.92,-0.21 1.39,-0.31"
         style="fill:#d9f2fa;fill-opacity:1;fill-rule:nonzero;stroke:none;stroke-width:0.1"
         id="path150" /><path
         d="m 2512.32,377.28 c -0.63,0.17 -1.25,0.34 -1.88,0.51 0.63,-0.17 1.25,-0.34 1.88,-0.51"
         style="fill:#d9f2fa;fill-opacity:1;fill-rule:nonzero;stroke:none;stroke-width:0.1"
         id="path152" /><path
         d="m 2477.09,387.81 c -0.52,0.18 -1.04,0.35 -1.56,0.53 0.52,-0.18 1.04,-0.35 1.56,-0.53"
         style="fill:#d9f2fa;fill-opacity:1;fill-rule:nonzero;stroke:none;stroke-width:0.1"
         id="path154" /><path
         d="m 2470.6,390.01 c -0.28,0.1 -0.56,0.19 -0.84,0.29 0.28,-0.1 0.56,-0.19 0.84,-0.29"
         style="fill:#d9f2fa;fill-opacity:1;fill-rule:nonzero;stroke:none;stroke-width:0.1"
         id="path156" /><path
         d="m 2518.95,375.52 c -0.48,0.12 -0.95,0.25 -1.43,0.37 0.48,-0.12 0.95,-0.25 1.43,-0.37"
         style="fill:#d9f2fa;fill-opacity:1;fill-rule:nonzero;stroke:none;stroke-width:0.1"
         id="path158" /><path
         d="m 2484.02,385.56 c -0.44,0.15 -0.89,0.29 -1.33,0.43 0.44,-0.14 0.89,-0.28 1.33,-0.43"
         style="fill:#d9f2fa;fill-opacity:1;fill-rule:nonzero;stroke:none;stroke-width:0.1"
         id="path160" /><path
         d="m 2504.41,379.46 c -0.53,0.15 -1.05,0.3 -1.58,0.45 0.53,-0.15 1.05,-0.3 1.58,-0.45"
         style="fill:#d9f2fa;fill-opacity:1;fill-rule:nonzero;stroke:none;stroke-width:0.1"
         id="path162" /><path
         d="m 2497.92,381.33 c -0.56,0.16 -1.11,0.32 -1.66,0.48 0.55,-0.16 1.1,-0.32 1.66,-0.48"
         style="fill:#d9f2fa;fill-opacity:1;fill-rule:nonzero;stroke:none;stroke-width:0.1"
         id="path164" /><path
         d="m 2558.76,366.16 c -0.77,0.16 -1.53,0.32 -2.29,0.48 0.76,-0.16 1.52,-0.32 2.29,-0.48"
         style="fill:#d9f2fa;fill-opacity:1;fill-rule:nonzero;stroke:none;stroke-width:0.1"
         id="path166" /><path
         d="m 2542.74,369.7 c -0.72,0.16 -1.45,0.33 -2.16,0.49 0.71,-0.16 1.44,-0.33 2.16,-0.49"
         style="fill:#d9f2fa;fill-opacity:1;fill-rule:nonzero;stroke:none;stroke-width:0.1"
         id="path168" /><path
         d="m 2464.31,392.23 c -0.47,0.17 -0.93,0.34 -1.4,0.51 0.47,-0.17 0.93,-0.34 1.4,-0.51"
         style="fill:#d9f2fa;fill-opacity:1;fill-rule:nonzero;stroke:none;stroke-width:0.1"
         id="path170" /><path
         d="m 2490.46,383.56 c -0.54,0.16 -1.08,0.33 -1.62,0.5 0.54,-0.17 1.08,-0.34 1.62,-0.5"
         style="fill:#d9f2fa;fill-opacity:1;fill-rule:nonzero;stroke:none;stroke-width:0.1"
         id="path172" /><path
         d="m 2527.26,373.4 c -0.68,0.17 -1.36,0.34 -2.04,0.51 0.68,-0.17 1.36,-0.34 2.04,-0.51"
         style="fill:#d9f2fa;fill-opacity:1;fill-rule:nonzero;stroke:none;stroke-width:0.1"
         id="path174" /><path
         d="m 2534.2,371.7 c -0.41,0.1 -0.81,0.2 -1.21,0.29 0.4,-0.09 0.8,-0.19 1.21,-0.29"
         style="fill:#d9f2fa;fill-opacity:1;fill-rule:nonzero;stroke:none;stroke-width:0.1"
         id="path176" /><path
         d="m 2724.23,568.46 c -121.33,43.21 -183.16,89.38 -183.16,89.38 77.54,164.64 136.35,390.44 183.16,630.38 V 568.46"
         style="fill:#fbe4c4;fill-opacity:1;fill-rule:nonzero;stroke:none;stroke-width:0.1"
         id="path178" /><path
         d="m 2724.23,485.34 c -43.84,9.63 -85.24,23 -122.13,37.25 -33.55,12.96 -63.36,26.65 -87.86,38.91 -25.03,12.54 -44.52,23.59 -56.76,30.85 v 37.57 c 133.45,266.38 214.49,588.09 263.73,882.03 0.96,-0.7 1.97,-1.42 3.02,-2.15 v -221.58 c -46.81,-239.94 -105.62,-465.74 -183.16,-630.38 0,0 61.83,-46.17 183.16,-89.38 v -83.12 m 0,1039.95 c -0.24,0.18 -0.48,0.33 -0.73,0.47 0.25,1.5 0.48,2.92 0.73,4.41 v -4.88"
         style="fill:#fcebd3;fill-opacity:1;fill-rule:nonzero;stroke:none;stroke-width:0.1"
         id="path180" /><path
         d="m 2724.23,1509.8 c -1.05,0.73 -2.06,1.45 -3.02,2.15 v 0 c -1.62,1.17 -3.13,2.29 -4.51,3.34 -1.98,1.51 -2.88,4.04 -2.3,6.45 0.72,2.98 3.36,4.8 6.11,4.8 1.01,0 2.04,-0.25 2.99,-0.78 v 0 c 0.25,-0.14 0.49,-0.29 0.73,-0.47 v -15.49"
         style="fill:#d1c0ae;fill-opacity:1;fill-rule:nonzero;stroke:none;stroke-width:0.1"
         id="path182" /><path
         d="m 3254.27,381.48 v 21.67 c 77.2,22.2 123.95,51.13 123.87,82.66 -0.08,31.46 -46.81,60.1 -123.87,81.88 v 1511.68 c 2.19,4.96 4.36,9.85 6.58,14.79 0.02,0.04 0,0 0.02,0.04 4.06,9.04 8.17,18.03 12.34,27.01 l 0.01,0.01 c 0.35,0.75 0.68,1.45 1.03,2.2 0.02,0.04 0.01,0.02 0.03,0.06 1.74,3.74 3.48,7.45 5.25,11.18 0.02,0.04 -0.02,-0.04 0,0.01 0.36,0.74 0.69,1.44 1.04,2.19 0.02,0.04 0.02,0.03 0.04,0.07 0.17,0.37 0.33,0.7 0.51,1.08 l 0.01,0.02 c 1.41,2.98 2.83,5.94 4.26,8.92 l 0.01,0.01 c 0.18,0.37 0.34,0.7 0.52,1.07 l 0.04,0.1 c 0.18,0.37 0.32,0.65 0.5,1.02 0.02,0.04 0.01,0.03 0.03,0.07 0.18,0.37 0.32,0.66 0.5,1.03 l 0.04,0.09 c 0.18,0.37 0.32,0.67 0.5,1.04 0.02,0.04 0.01,0.01 0.03,0.05 0.18,0.37 0.32,0.65 0.5,1.02 0.02,0.05 0.03,0.07 0.05,0.11 1.26,2.6 2.5,5.15 3.77,7.74 0.02,0.04 0,0 0.02,0.04 0.18,0.37 0.31,0.64 0.49,1.01 0.03,0.04 0.09,0.18 0.11,0.22 0.16,0.32 0.3,0.61 0.46,0.93 0.02,0.04 0.02,0.04 0.04,0.08 0.18,0.37 0.31,0.63 0.49,1 0.02,0.04 0.05,0.11 0.07,0.15 0.14,0.28 0.33,0.66 0.47,0.94 0.04,0.09 0.04,0.08 0.08,0.17 0.14,0.28 0.31,0.62 0.44,0.9 0.03,0.04 0.09,0.17 0.11,0.21 0.13,0.28 0.32,0.66 0.46,0.94 0.02,0.04 0.04,0.09 0.07,0.13 0.16,0.32 0.31,0.63 0.47,0.95 0.02,0.04 0.05,0.11 0.07,0.15 0.19,0.37 0.31,0.63 0.5,1 l 0.04,0.09 c 1.1,2.21 2.19,4.4 3.29,6.61 l 0.02,0.03 c 0.16,0.32 0.34,0.69 0.5,1.02 0.05,0.08 0.08,0.14 0.12,0.22 0.14,0.28 0.29,0.59 0.43,0.86 0.04,0.09 0.06,0.12 0.1,0.21 0.14,0.28 0.32,0.62 0.46,0.9 0.02,0.04 0.07,0.14 0.09,0.18 0.16,0.33 0.32,0.64 0.48,0.96 0.02,0.05 0.02,0.05 0.04,0.09 0.17,0.32 0.32,0.64 0.49,0.96 0.04,0.08 0.05,0.1 0.09,0.19 0.14,0.27 0.32,0.64 0.46,0.91 0.02,0.04 0.06,0.12 0.08,0.16 0.16,0.32 0.32,0.62 0.48,0.94 0.02,0.04 0.05,0.11 0.08,0.15 1.11,2.21 2.2,4.36 3.32,6.56 l 0.05,0.08 c 0.18,0.37 0.32,0.63 0.51,1 0.02,0.04 0.05,0.1 0.07,0.14 0.14,0.28 0.31,0.61 0.45,0.89 0.04,0.08 0.11,0.21 0.15,0.3 0.14,0.27 0.26,0.5 0.4,0.78 0.04,0.08 0.12,0.23 0.17,0.32 0.14,0.28 0.22,0.44 0.36,0.71 0.07,0.13 0.12,0.24 0.19,0.37 0.14,0.27 0.25,0.48 0.39,0.76 0.07,0.12 0.09,0.17 0.16,0.3 0.11,0.23 0.27,0.54 0.39,0.77 0.04,0.08 0.11,0.21 0.15,0.3 0.15,0.27 0.31,0.59 0.45,0.87 0.03,0.04 0.08,0.14 0.1,0.18 0.16,0.32 0.31,0.61 0.48,0.93 0.02,0.04 0.05,0.11 0.07,0.15 0.19,0.37 0.35,0.68 0.54,1.04 l 0.02,0.03 c 0.57,1.1 1.13,2.18 1.7,3.28 0.02,0.04 0.01,0.03 0.03,0.07 0.19,0.37 0.34,0.65 0.53,1.02 l 0.04,0.08 c 0.19,0.37 0.33,0.63 0.52,1 0.02,0.04 0.05,0.09 0.07,0.14 0.17,0.32 0.32,0.61 0.49,0.93 0.04,0.09 0.04,0.08 0.08,0.16 0.15,0.28 0.33,0.62 0.47,0.9 0.05,0.08 0.09,0.16 0.13,0.24 0.14,0.28 0.27,0.51 0.41,0.79 0.04,0.08 0.13,0.25 0.18,0.34 0.12,0.22 0.24,0.46 0.36,0.69 0.07,0.12 0.14,0.27 0.21,0.4 0.12,0.23 0.24,0.45 0.36,0.68 0.06,0.13 0.12,0.24 0.19,0.37 0.12,0.23 0.25,0.47 0.37,0.7 0.06,0.13 0.13,0.25 0.19,0.37 0.12,0.23 0.28,0.53 0.4,0.76 0.04,0.08 0.11,0.2 0.15,0.29 0.17,0.32 0.3,0.56 0.47,0.88 0.02,0.04 0.07,0.14 0.09,0.18 0.39,0.73 0.76,1.43 1.14,2.16 0.02,0.04 0,-0.01 0.02,0.04 0.19,0.36 0.35,0.65 0.54,1.02 0.05,0.08 0.09,0.16 0.13,0.25 0.12,0.22 0.31,0.57 0.43,0.8 0.04,0.09 0.12,0.23 0.17,0.32 0.12,0.22 0.29,0.54 0.41,0.77 0.04,0.08 0.09,0.17 0.13,0.25 0.15,0.28 0.29,0.55 0.44,0.83 0.04,0.08 0.09,0.17 0.13,0.25 0.15,0.28 0.29,0.54 0.43,0.81 0.07,0.13 0.09,0.15 0.15,0.28 0.15,0.27 0.28,0.52 0.43,0.79 0.04,0.09 0.09,0.18 0.14,0.27 0.14,0.27 0.3,0.57 0.45,0.85 0.02,0.04 0.08,0.15 0.11,0.19 0.14,0.28 0.31,0.6 0.46,0.87 0.04,0.08 0.07,0.14 0.12,0.22 0.14,0.27 0.29,0.55 0.43,0.82 0.05,0.08 0.11,0.19 0.15,0.27 0.12,0.23 0.3,0.56 0.42,0.79 0.05,0.08 0.11,0.19 0.15,0.28 0.17,0.31 0.35,0.64 0.52,0.96 0.02,0.04 0.02,0.03 0.04,0.08 0.78,1.45 1.55,2.87 2.33,4.32 0.02,0.04 0.02,0.04 0.05,0.09 0.14,0.27 0.36,0.66 0.5,0.93 0.07,0.13 0.1,0.18 0.17,0.31 0.12,0.22 0.27,0.51 0.4,0.74 0.04,0.08 0.14,0.26 0.18,0.34 0.13,0.23 0.27,0.49 0.39,0.71 0.07,0.13 0.12,0.23 0.19,0.36 0.13,0.22 0.27,0.5 0.4,0.72 0.04,0.09 0.13,0.24 0.17,0.33 0.13,0.22 0.25,0.46 0.38,0.68 0.07,0.13 0.16,0.3 0.23,0.43 0.12,0.23 0.22,0.41 0.35,0.64 0.06,0.12 0.14,0.26 0.21,0.38 0.12,0.23 0.26,0.48 0.38,0.71 0.07,0.12 0.12,0.22 0.19,0.35 0.13,0.22 0.29,0.53 0.42,0.76 0.04,0.08 0.11,0.2 0.15,0.28 0.15,0.27 0.25,0.44 0.39,0.71 0.05,0.09 0.16,0.29 0.21,0.38 0.12,0.22 0.27,0.49 0.39,0.72 0.07,0.12 0.11,0.19 0.18,0.32 0.2,0.36 0.37,0.68 0.57,1.04 0.02,0.04 0.08,0.14 0.1,0.18 0.17,0.32 0.31,0.57 0.49,0.89 0.04,0.08 0.1,0.18 0.14,0.26 0.13,0.23 0.3,0.54 0.42,0.76 0.07,0.13 0.16,0.29 0.23,0.41 0.12,0.23 0.24,0.43 0.36,0.66 0.07,0.12 0.15,0.28 0.22,0.4 0.13,0.23 0.22,0.4 0.34,0.62 0.1,0.17 0.16,0.28 0.25,0.45 0.13,0.23 0.22,0.4 0.35,0.63 0.07,0.12 0.16,0.3 0.23,0.42 0.1,0.18 0.23,0.41 0.33,0.59 0.09,0.16 0.17,0.31 0.27,0.48 0.1,0.18 0.22,0.39 0.32,0.57 0.09,0.17 0.17,0.31 0.26,0.48 0.1,0.18 0.2,0.36 0.3,0.54 0.12,0.21 0.17,0.3 0.28,0.51 0.13,0.22 0.2,0.35 0.32,0.57 0.09,0.17 0.16,0.29 0.26,0.46 0.1,0.18 0.21,0.39 0.31,0.57 0.1,0.16 0.18,0.31 0.27,0.48 0.13,0.22 0.23,0.4 0.35,0.63 0.07,0.12 0.16,0.27 0.23,0.4 0.12,0.22 0.28,0.51 0.41,0.73 0.07,0.13 0.1,0.18 0.17,0.31 0.2,0.36 0.38,0.69 0.58,1.04 v 0 0 0 0.01 c 0,0 -36.31,17.19 -89.23,35.27 v 21.8 c 0,314.95 -258.34,492.67 -258.34,492.67 0,0 51.37,133.78 3.38,279.14 v 694.91 0 c 16.97,-2.16 32.47,-4.76 46.15,-7.71 v 0 0 c 0.12,-2.89 23.17,-554.22 58.79,-672.95 10.81,-36.03 16.89,-76.44 20.11,-115.26 2.41,-28.99 3.23,-57.1 3.23,-81.85 0,-12.97 -0.22,-25.01 -0.55,-35.77 -0.02,-0.88 -0.04,-1.76 -0.03,-2.64 0.07,-31.15 18.56,-59.45 47.32,-71.88 l 10.46,-4.53 c 124.52,-53.9 205.12,-176.61 205.12,-312.29 V 475.44 h -0.01 c 0,-36.24 -51.42,-69.24 -135.63,-93.96 m -174.6,3422.1 c -16.64,6.07 -39.58,11.33 -67.02,15.39 0.08,0.47 12.4,76.55 -25.26,138.49 v 0 c 16.72,-1.77 32.2,-3.98 46.15,-6.64 0.01,-0.01 0.17,-0.23 0.45,-0.64 4.83,-6.94 46.94,-69.1 46.95,-129.13 0,-5.78 -0.39,-11.55 -1.24,-17.24 l -0.03,-0.23 m -26.18,176.51 2.36,3.47 c -17.57,4.39 -38.9,8.12 -62.99,10.98 -0.07,0.45 -5.47,32.32 -26.38,62.6 41.5,-9.16 82.94,-29.45 89.37,-73.54 l 0.01,-0.04 -2.37,-3.47"
         style="fill:#66c2e1;fill-opacity:1;fill-rule:nonzero;stroke:none;stroke-width:0.1"
         id="path184" /><path
         d="m 3045.46,3774.9 c -13.68,2.95 -29.18,5.55 -46.15,7.71 l 13.34,36.36 v 0 c 27.44,-4.06 50.38,-9.32 67.02,-15.39 l -0.01,-0.04 -34.2,-28.64 v 0"
         style="fill:#4a8da4;fill-opacity:1;fill-rule:nonzero;stroke:none;stroke-width:0.1"
         id="path186" /><path
         d="m 3033.54,3950.82 c -13.95,2.66 -29.43,4.87 -46.15,6.64 l 5.48,37.07 c 0,0 -0.01,0 -0.01,0.01 24.09,-2.86 45.42,-6.59 62.99,-10.98 l -2.36,-3.47 -19.96,-29.26 v 0 -0.01"
         style="fill:#4a8da4;fill-opacity:1;fill-rule:nonzero;stroke:none;stroke-width:0.1"
         id="path188" /><path
         d="m 3254.27,403.15 v 164.54 c 77.06,-21.78 123.79,-50.42 123.87,-81.88 0.08,-31.53 -46.67,-60.46 -123.87,-82.66"
         style="fill:#63bddc;fill-opacity:1;fill-rule:nonzero;stroke:none;stroke-width:0.1"
         id="path190" /><path
         d="m 3254.27,2236.23 v 57.86 c 52.92,-18.08 89.23,-35.27 89.23,-35.27 v -0.01 c -0.47,-0.22 -32.78,-15.08 -89.23,-22.58"
         style="fill:#b28e66;fill-opacity:1;fill-rule:nonzero;stroke:none;stroke-width:0.1"
         id="path192" /><path
         d="m 3260.85,2094.16 0.02,0.04 c -0.02,-0.04 0,0 -0.02,-0.04 m 12.36,27.05 0.01,0.01 -0.01,-0.01 m 1.04,2.21 0.03,0.06 c -0.02,-0.04 -0.01,-0.02 -0.03,-0.06 m 5.28,11.24 v 0.01 c -0.02,-0.05 0.02,0.03 0,-0.01 m 1.04,2.2 0.04,0.07 c -0.02,-0.04 -0.02,-0.03 -0.04,-0.07 m 0.55,1.15 0.01,0.02 -0.01,-0.02 m 4.27,8.94 0.01,0.01 -0.01,-0.01 m 0.53,1.08 0.04,0.1 -0.04,-0.1 m 0.54,1.12 0.03,0.07 c -0.02,-0.04 -0.01,-0.03 -0.03,-0.07 m 0.53,1.1 0.04,0.09 -0.04,-0.09 m 0.54,1.13 0.03,0.05 c -0.02,-0.04 -0.01,-0.01 -0.03,-0.05 m 0.53,1.07 0.05,0.11 c -0.02,-0.04 -0.03,-0.06 -0.05,-0.11 m 3.82,7.85 0.02,0.04 c -0.02,-0.04 0,0 -0.02,-0.04 m 0.51,1.05 c 0.03,0.05 0.09,0.17 0.11,0.22 -0.02,-0.04 -0.08,-0.18 -0.11,-0.22 m 0.57,1.15 0.04,0.08 c -0.02,-0.04 -0.02,-0.04 -0.04,-0.08 m 0.53,1.08 c 0.02,0.04 0.05,0.1 0.07,0.15 -0.02,-0.04 -0.05,-0.11 -0.07,-0.15 m 0.54,1.09 c 0.04,0.09 0.03,0.08 0.08,0.17 -0.04,-0.09 -0.04,-0.08 -0.08,-0.17 m 0.52,1.07 c 0.05,0.09 0.06,0.12 0.11,0.21 -0.02,-0.04 -0.08,-0.17 -0.11,-0.21 m 0.57,1.15 c 0.02,0.04 0.04,0.08 0.07,0.13 -0.03,-0.04 -0.05,-0.09 -0.07,-0.13 m 0.54,1.08 c 0.02,0.05 0.05,0.11 0.07,0.15 -0.02,-0.04 -0.05,-0.11 -0.07,-0.15 m 0.57,1.15 0.04,0.09 -0.04,-0.09 m 3.33,6.7 0.02,0.03 -0.02,-0.03 m 0.52,1.05 c 0.05,0.09 0.07,0.13 0.12,0.22 -0.04,-0.08 -0.07,-0.14 -0.12,-0.22 m 0.55,1.08 c 0.05,0.1 0.06,0.12 0.1,0.21 -0.04,-0.09 -0.06,-0.12 -0.1,-0.21 m 0.56,1.11 c 0.04,0.09 0.04,0.09 0.09,0.18 -0.02,-0.04 -0.07,-0.14 -0.09,-0.18 m 0.57,1.14 0.04,0.09 c -0.02,-0.04 -0.02,-0.04 -0.04,-0.09 m 0.53,1.05 c 0.04,0.09 0.04,0.09 0.09,0.19 -0.04,-0.09 -0.05,-0.11 -0.09,-0.19 m 0.55,1.1 c 0.03,0.05 0.06,0.11 0.08,0.16 -0.02,-0.04 -0.06,-0.12 -0.08,-0.16 m 0.56,1.1 c 0.02,0.05 0.05,0.11 0.08,0.15 -0.03,-0.04 -0.06,-0.11 -0.08,-0.15 m 3.4,6.71 0.05,0.08 -0.05,-0.08 m 0.56,1.08 c 0.02,0.05 0.04,0.1 0.07,0.14 -0.02,-0.04 -0.05,-0.1 -0.07,-0.14 m 0.52,1.03 c 0.05,0.09 0.11,0.2 0.15,0.3 -0.04,-0.09 -0.11,-0.22 -0.15,-0.3 m 0.55,1.08 c 0.05,0.09 0.12,0.23 0.17,0.32 -0.05,-0.09 -0.13,-0.24 -0.17,-0.32 m 0.53,1.03 c 0.05,0.09 0.14,0.28 0.19,0.37 -0.07,-0.13 -0.12,-0.24 -0.19,-0.37 m 0.58,1.13 c 0.05,0.09 0.11,0.21 0.16,0.3 -0.07,-0.13 -0.09,-0.18 -0.16,-0.3 m 0.55,1.07 c 0.07,0.13 0.08,0.16 0.15,0.3 -0.04,-0.09 -0.11,-0.22 -0.15,-0.3 m 0.6,1.17 c 0.03,0.05 0.07,0.14 0.1,0.18 -0.02,-0.04 -0.07,-0.14 -0.1,-0.18 m 0.58,1.11 c 0.02,0.05 0.05,0.1 0.07,0.15 -0.02,-0.04 -0.05,-0.11 -0.07,-0.15 m 0.61,1.19 0.02,0.03 -0.02,-0.03 m 1.72,3.31 0.03,0.07 c -0.02,-0.04 -0.01,-0.03 -0.03,-0.07 m 0.56,1.09 0.04,0.08 -0.04,-0.08 m 0.56,1.08 c 0.02,0.04 0.05,0.09 0.07,0.14 -0.02,-0.05 -0.05,-0.1 -0.07,-0.14 m 0.56,1.07 c 0.02,0.05 0.06,0.12 0.08,0.16 -0.04,-0.08 -0.04,-0.07 -0.08,-0.16 m 0.55,1.06 c 0.05,0.09 0.08,0.15 0.13,0.24 -0.04,-0.08 -0.08,-0.16 -0.13,-0.24 m 0.54,1.03 c 0.05,0.09 0.13,0.24 0.18,0.34 -0.05,-0.09 -0.14,-0.26 -0.18,-0.34 m 0.54,1.03 c 0.07,0.13 0.14,0.26 0.21,0.4 -0.07,-0.13 -0.14,-0.28 -0.21,-0.4 m 0.57,1.08 c 0.07,0.14 0.12,0.23 0.19,0.37 -0.07,-0.13 -0.13,-0.24 -0.19,-0.37 m 0.56,1.07 c 0.07,0.14 0.12,0.24 0.19,0.37 -0.06,-0.12 -0.13,-0.24 -0.19,-0.37 m 0.59,1.13 c 0.05,0.09 0.1,0.2 0.15,0.29 -0.04,-0.09 -0.11,-0.21 -0.15,-0.29 m 0.62,1.17 c 0.02,0.04 0.07,0.13 0.09,0.18 -0.02,-0.04 -0.07,-0.14 -0.09,-0.18 m 1.23,2.34 0.02,0.04 c -0.02,-0.05 0,0 -0.02,-0.04 m 0.56,1.06 c 0.05,0.09 0.08,0.15 0.13,0.25 -0.04,-0.09 -0.08,-0.17 -0.13,-0.25 m 0.56,1.05 c 0.07,0.14 0.09,0.18 0.17,0.32 -0.05,-0.09 -0.13,-0.23 -0.17,-0.32 m 0.58,1.09 c 0.05,0.09 0.08,0.16 0.13,0.25 -0.04,-0.08 -0.09,-0.17 -0.13,-0.25 m 0.57,1.08 c 0.05,0.09 0.09,0.16 0.13,0.25 -0.04,-0.08 -0.09,-0.17 -0.13,-0.25 m 0.56,1.06 c 0.05,0.09 0.1,0.19 0.15,0.28 -0.06,-0.13 -0.08,-0.15 -0.15,-0.28 m 0.58,1.07 c 0.05,0.1 0.09,0.18 0.14,0.27 -0.05,-0.09 -0.1,-0.18 -0.14,-0.27 m 0.59,1.12 c 0.05,0.09 0.06,0.1 0.11,0.19 -0.03,-0.04 -0.09,-0.15 -0.11,-0.19 m 0.57,1.06 c 0.05,0.09 0.07,0.13 0.12,0.22 -0.05,-0.08 -0.08,-0.14 -0.12,-0.22 m 0.55,1.04 c 0.05,0.09 0.1,0.18 0.15,0.27 -0.04,-0.08 -0.1,-0.19 -0.15,-0.27 m 0.57,1.06 c 0.05,0.09 0.1,0.19 0.15,0.28 -0.04,-0.09 -0.1,-0.2 -0.15,-0.28 m 0.67,1.24 c 0.02,0.04 0.01,0.03 0.04,0.08 -0.02,-0.05 -0.02,-0.04 -0.04,-0.08 m 2.37,4.4 c 0.02,0.04 0.02,0.04 0.05,0.09 -0.03,-0.05 -0.03,-0.05 -0.05,-0.09 m 0.55,1.02 c 0.08,0.14 0.09,0.17 0.17,0.31 -0.07,-0.13 -0.1,-0.18 -0.17,-0.31 m 0.57,1.05 c 0.07,0.13 0.11,0.2 0.18,0.34 -0.04,-0.08 -0.14,-0.26 -0.18,-0.34 m 0.57,1.05 c 0.08,0.14 0.12,0.22 0.19,0.36 -0.07,-0.13 -0.12,-0.23 -0.19,-0.36 m 0.59,1.08 c 0.05,0.09 0.13,0.24 0.17,0.33 -0.04,-0.09 -0.13,-0.24 -0.17,-0.33 m 0.55,1.01 c 0.07,0.14 0.16,0.29 0.23,0.43 -0.07,-0.13 -0.16,-0.3 -0.23,-0.43 m 0.58,1.07 c 0.07,0.13 0.13,0.25 0.21,0.38 -0.07,-0.12 -0.15,-0.26 -0.21,-0.38 m 0.59,1.09 c 0.07,0.13 0.12,0.21 0.19,0.35 -0.07,-0.13 -0.12,-0.23 -0.19,-0.35 m 0.61,1.11 c 0.05,0.09 0.1,0.19 0.15,0.28 -0.04,-0.08 -0.11,-0.2 -0.15,-0.28 m 0.54,0.99 c 0.08,0.14 0.13,0.24 0.21,0.38 -0.05,-0.09 -0.16,-0.29 -0.21,-0.38 m 0.6,1.1 c 0.05,0.09 0.13,0.23 0.18,0.32 -0.07,-0.13 -0.11,-0.2 -0.18,-0.32 m 0.75,1.36 c 0.03,0.05 0.07,0.14 0.1,0.18 -0.02,-0.04 -0.08,-0.14 -0.1,-0.18 m 0.59,1.07 c 0.05,0.09 0.09,0.17 0.14,0.26 -0.04,-0.08 -0.1,-0.18 -0.14,-0.26 m 0.56,1.02 c 0.08,0.14 0.15,0.28 0.23,0.41 -0.07,-0.12 -0.16,-0.28 -0.23,-0.41 m 0.59,1.07 c 0.07,0.13 0.15,0.27 0.22,0.4 -0.07,-0.12 -0.15,-0.28 -0.22,-0.4 m 0.56,1.02 c 0.08,0.14 0.18,0.32 0.25,0.45 -0.09,-0.17 -0.15,-0.28 -0.25,-0.45 m 0.6,1.08 c 0.07,0.13 0.16,0.29 0.23,0.42 -0.07,-0.12 -0.16,-0.3 -0.23,-0.42 m 0.56,1.01 c 0.1,0.18 0.17,0.3 0.27,0.48 -0.1,-0.17 -0.18,-0.32 -0.27,-0.48 m 0.59,1.05 c 0.09,0.18 0.16,0.3 0.26,0.48 -0.09,-0.17 -0.17,-0.31 -0.26,-0.48 m 0.56,1.02 c 0.08,0.14 0.21,0.37 0.28,0.51 -0.11,-0.21 -0.16,-0.3 -0.28,-0.51 m 0.6,1.08 c 0.08,0.14 0.18,0.33 0.26,0.46 -0.1,-0.17 -0.17,-0.29 -0.26,-0.46 m 0.57,1.03 c 0.1,0.18 0.17,0.3 0.27,0.48 -0.09,-0.17 -0.17,-0.32 -0.27,-0.48 m 0.62,1.11 c 0.08,0.13 0.15,0.26 0.23,0.4 -0.07,-0.13 -0.16,-0.28 -0.23,-0.4 m 0.64,1.13 c 0.05,0.09 0.12,0.22 0.17,0.31 -0.07,-0.13 -0.1,-0.18 -0.17,-0.31"
         style="fill:#ebc085;fill-opacity:1;fill-rule:nonzero;stroke:none;stroke-width:0.1"
         id="path194" /><path
         d="m 3254.27,2079.37 v 0 c 2.17,4.91 4.38,9.89 6.58,14.79 -2.22,-4.94 -4.39,-9.83 -6.58,-14.79"
         style="fill:#95b5b1;fill-opacity:1;fill-rule:nonzero;stroke:none;stroke-width:0.1"
         id="path196" /><path
         d="m 3260.87,2094.2 c 4.05,9.02 8.18,18.05 12.34,27.01 -4.17,-8.98 -8.28,-17.97 -12.34,-27.01 m 12.35,27.02 c 0.35,0.74 0.68,1.46 1.03,2.2 -0.35,-0.75 -0.68,-1.45 -1.03,-2.2 m 1.06,2.26 c 1.72,3.7 3.51,7.5 5.25,11.18 -1.77,-3.73 -3.51,-7.44 -5.25,-11.18 m 5.25,11.19 c 0.33,0.69 0.71,1.49 1.04,2.19 -0.35,-0.75 -0.68,-1.45 -1.04,-2.19 m 1.08,2.26 c 0.16,0.35 0.34,0.73 0.51,1.08 -0.18,-0.38 -0.34,-0.71 -0.51,-1.08 m 0.52,1.1 c 1.42,2.98 2.83,5.94 4.26,8.92 -1.43,-2.98 -2.85,-5.94 -4.26,-8.92 m 4.27,8.93 c 0.19,0.39 0.33,0.68 0.52,1.07 -0.18,-0.37 -0.34,-0.7 -0.52,-1.07 m 0.56,1.17 c 0.17,0.34 0.33,0.67 0.5,1.02 -0.18,-0.37 -0.32,-0.65 -0.5,-1.02 m 0.53,1.09 c 0.17,0.34 0.33,0.69 0.5,1.03 -0.18,-0.37 -0.32,-0.66 -0.5,-1.03 m 0.54,1.12 c 0.17,0.34 0.34,0.69 0.5,1.04 -0.18,-0.37 -0.32,-0.67 -0.5,-1.04 m 0.53,1.09 c 0.17,0.35 0.33,0.68 0.5,1.02 -0.18,-0.37 -0.32,-0.65 -0.5,-1.02 m 0.55,1.13 c 1.23,2.55 2.53,5.2 3.77,7.74 -1.27,-2.59 -2.51,-5.14 -3.77,-7.74 m 3.79,7.78 c 0.17,0.35 0.33,0.67 0.49,1.01 -0.18,-0.37 -0.31,-0.64 -0.49,-1.01 m 0.6,1.23 c 0.15,0.3 0.31,0.63 0.46,0.93 -0.16,-0.32 -0.3,-0.61 -0.46,-0.93 m 0.5,1.01 c 0.17,0.35 0.32,0.65 0.49,1 -0.18,-0.37 -0.31,-0.63 -0.49,-1 m 0.56,1.15 c 0.15,0.3 0.32,0.64 0.47,0.94 -0.14,-0.28 -0.33,-0.66 -0.47,-0.94 m 0.55,1.11 c 0.15,0.3 0.3,0.6 0.44,0.9 -0.13,-0.28 -0.3,-0.62 -0.44,-0.9 m 0.55,1.11 c 0.15,0.3 0.31,0.63 0.46,0.94 -0.14,-0.28 -0.33,-0.66 -0.46,-0.94 m 0.53,1.07 c 0.17,0.34 0.3,0.61 0.47,0.95 -0.16,-0.32 -0.31,-0.63 -0.47,-0.95 m 0.54,1.1 c 0.17,0.35 0.33,0.66 0.5,1 -0.19,-0.37 -0.31,-0.63 -0.5,-1 m 0.54,1.09 c 1.11,2.23 2.18,4.39 3.29,6.61 -1.1,-2.21 -2.19,-4.4 -3.29,-6.61 m 3.31,6.64 c 0.17,0.34 0.33,0.67 0.5,1.02 -0.16,-0.33 -0.34,-0.7 -0.5,-1.02 m 0.62,1.24 c 0.13,0.26 0.3,0.61 0.43,0.86 -0.14,-0.27 -0.29,-0.58 -0.43,-0.86 m 0.53,1.07 c 0.15,0.3 0.31,0.6 0.46,0.9 -0.14,-0.28 -0.32,-0.62 -0.46,-0.9 m 0.55,1.08 c 0.17,0.35 0.31,0.62 0.48,0.96 -0.16,-0.32 -0.32,-0.63 -0.48,-0.96 m 0.52,1.05 c 0.15,0.3 0.34,0.66 0.49,0.96 -0.17,-0.32 -0.32,-0.64 -0.49,-0.96 m 0.58,1.15 c 0.15,0.3 0.31,0.61 0.46,0.91 -0.14,-0.27 -0.32,-0.64 -0.46,-0.91 m 0.54,1.07 c 0.15,0.3 0.33,0.64 0.48,0.94 -0.16,-0.32 -0.32,-0.62 -0.48,-0.94 m 0.56,1.09 c 1.12,2.23 2.19,4.34 3.32,6.56 -1.12,-2.2 -2.21,-4.35 -3.32,-6.56 m 3.37,6.64 c 0.17,0.35 0.33,0.66 0.51,1 -0.19,-0.37 -0.33,-0.63 -0.51,-1 m 0.58,1.14 c 0.15,0.3 0.3,0.59 0.45,0.89 -0.14,-0.28 -0.31,-0.61 -0.45,-0.89 m 0.6,1.19 c 0.15,0.29 0.25,0.48 0.4,0.78 -0.14,-0.28 -0.26,-0.51 -0.4,-0.78 m 0.57,1.1 c 0.13,0.26 0.23,0.46 0.36,0.71 -0.14,-0.27 -0.22,-0.43 -0.36,-0.71 m 0.55,1.08 c 0.11,0.21 0.28,0.54 0.39,0.76 -0.14,-0.28 -0.25,-0.49 -0.39,-0.76 m 0.55,1.06 c 0.13,0.26 0.26,0.51 0.39,0.77 -0.12,-0.23 -0.28,-0.54 -0.39,-0.77 m 0.54,1.07 c 0.16,0.3 0.3,0.57 0.45,0.87 -0.14,-0.28 -0.3,-0.6 -0.45,-0.87 m 0.55,1.05 c 0.17,0.34 0.3,0.59 0.48,0.93 -0.17,-0.32 -0.32,-0.61 -0.48,-0.93 m 0.55,1.08 c 0.18,0.34 0.37,0.7 0.54,1.04 -0.19,-0.36 -0.35,-0.67 -0.54,-1.04 m 0.56,1.07 c 0.57,1.11 1.12,2.18 1.7,3.28 -0.57,-1.1 -1.13,-2.18 -1.7,-3.28 m 1.73,3.35 c 0.18,0.34 0.35,0.68 0.53,1.02 -0.19,-0.37 -0.34,-0.65 -0.53,-1.02 m 0.57,1.1 c 0.18,0.34 0.34,0.66 0.52,1 -0.19,-0.37 -0.33,-0.63 -0.52,-1 m 0.59,1.14 c 0.16,0.29 0.34,0.63 0.49,0.93 -0.17,-0.32 -0.32,-0.61 -0.49,-0.93 m 0.57,1.09 c 0.16,0.3 0.32,0.6 0.47,0.9 -0.14,-0.28 -0.32,-0.62 -0.47,-0.9 m 0.6,1.14 c 0.13,0.26 0.28,0.53 0.41,0.79 -0.14,-0.28 -0.27,-0.51 -0.41,-0.79 m 0.59,1.13 c 0.13,0.25 0.23,0.43 0.36,0.69 -0.12,-0.23 -0.24,-0.47 -0.36,-0.69 m 0.57,1.09 c 0.11,0.21 0.24,0.47 0.36,0.68 -0.12,-0.23 -0.24,-0.45 -0.36,-0.68 m 0.55,1.05 c 0.13,0.25 0.23,0.44 0.37,0.7 -0.12,-0.23 -0.25,-0.47 -0.37,-0.7 m 0.56,1.07 c 0.14,0.26 0.27,0.5 0.4,0.76 -0.12,-0.23 -0.28,-0.53 -0.4,-0.76 m 0.55,1.05 c 0.16,0.29 0.31,0.58 0.47,0.88 -0.17,-0.32 -0.3,-0.56 -0.47,-0.88 m 0.56,1.06 c 0.38,0.72 0.76,1.44 1.14,2.16 -0.38,-0.73 -0.75,-1.43 -1.14,-2.16 m 1.16,2.2 c 0.18,0.33 0.36,0.68 0.54,1.02 -0.19,-0.37 -0.35,-0.66 -0.54,-1.02 m 0.67,1.27 c 0.14,0.25 0.29,0.55 0.43,0.8 -0.12,-0.23 -0.31,-0.58 -0.43,-0.8 m 0.6,1.12 c 0.15,0.29 0.25,0.47 0.41,0.77 -0.12,-0.23 -0.29,-0.55 -0.41,-0.77 m 0.54,1.02 c 0.14,0.26 0.3,0.57 0.44,0.83 -0.15,-0.28 -0.29,-0.55 -0.44,-0.83 m 0.57,1.08 c 0.14,0.26 0.3,0.56 0.43,0.81 -0.14,-0.27 -0.28,-0.53 -0.43,-0.81 m 0.58,1.09 c 0.14,0.25 0.29,0.54 0.43,0.79 -0.15,-0.27 -0.28,-0.52 -0.43,-0.79 m 0.57,1.06 c 0.15,0.29 0.29,0.55 0.45,0.85 -0.15,-0.28 -0.31,-0.58 -0.45,-0.85 m 0.56,1.04 c 0.15,0.3 0.3,0.57 0.46,0.87 -0.15,-0.27 -0.32,-0.59 -0.46,-0.87 m 0.58,1.09 c 0.13,0.25 0.3,0.57 0.43,0.82 -0.14,-0.27 -0.29,-0.55 -0.43,-0.82 m 0.58,1.09 c 0.16,0.3 0.26,0.49 0.42,0.79 -0.12,-0.23 -0.3,-0.56 -0.42,-0.79 m 0.57,1.07 c 0.16,0.29 0.36,0.66 0.52,0.96 -0.17,-0.32 -0.35,-0.65 -0.52,-0.96 m 0.56,1.04 c 0.77,1.43 1.55,2.89 2.33,4.32 -0.78,-1.45 -1.55,-2.87 -2.33,-4.32 m 2.38,4.41 c 0.15,0.29 0.34,0.64 0.5,0.93 -0.14,-0.27 -0.36,-0.66 -0.5,-0.93 m 0.67,1.24 c 0.13,0.25 0.26,0.48 0.4,0.74 -0.13,-0.23 -0.28,-0.52 -0.4,-0.74 m 0.58,1.08 c 0.14,0.25 0.25,0.46 0.39,0.71 -0.12,-0.22 -0.26,-0.48 -0.39,-0.71 m 0.58,1.07 c 0.14,0.25 0.26,0.47 0.4,0.72 -0.13,-0.22 -0.27,-0.5 -0.4,-0.72 m 0.57,1.05 c 0.14,0.25 0.24,0.43 0.38,0.68 -0.13,-0.22 -0.25,-0.46 -0.38,-0.68 m 0.61,1.11 c 0.11,0.21 0.23,0.43 0.35,0.64 -0.13,-0.23 -0.23,-0.41 -0.35,-0.64 m 0.56,1.02 c 0.13,0.26 0.24,0.45 0.38,0.71 -0.12,-0.23 -0.26,-0.48 -0.38,-0.71 m 0.57,1.06 c 0.14,0.25 0.28,0.51 0.42,0.76 -0.13,-0.23 -0.29,-0.54 -0.42,-0.76 m 0.57,1.04 c 0.14,0.25 0.26,0.46 0.39,0.71 -0.14,-0.27 -0.24,-0.44 -0.39,-0.71 m 0.6,1.09 c 0.14,0.25 0.25,0.47 0.39,0.72 -0.12,-0.23 -0.27,-0.5 -0.39,-0.72 m 0.57,1.04 c 0.18,0.33 0.39,0.7 0.57,1.04 -0.2,-0.36 -0.37,-0.68 -0.57,-1.04 m 0.67,1.22 c 0.18,0.34 0.3,0.55 0.49,0.89 -0.18,-0.32 -0.32,-0.57 -0.49,-0.89 m 0.63,1.15 c 0.14,0.25 0.28,0.51 0.42,0.76 -0.12,-0.22 -0.29,-0.53 -0.42,-0.76 m 0.65,1.17 c 0.11,0.21 0.24,0.45 0.36,0.66 -0.12,-0.23 -0.24,-0.43 -0.36,-0.66 m 0.58,1.06 c 0.12,0.21 0.23,0.41 0.34,0.62 -0.12,-0.22 -0.21,-0.39 -0.34,-0.62 m 0.59,1.07 c 0.12,0.21 0.23,0.42 0.35,0.63 -0.13,-0.23 -0.22,-0.4 -0.35,-0.63 m 0.58,1.05 c 0.12,0.21 0.21,0.38 0.33,0.59 -0.1,-0.18 -0.23,-0.41 -0.33,-0.59 m 0.6,1.07 c 0.09,0.17 0.22,0.41 0.32,0.57 -0.1,-0.18 -0.22,-0.39 -0.32,-0.57 m 0.58,1.05 c 0.09,0.17 0.21,0.38 0.3,0.54 -0.1,-0.18 -0.2,-0.36 -0.3,-0.54 m 0.58,1.05 c 0.1,0.17 0.23,0.4 0.32,0.57 -0.12,-0.22 -0.19,-0.35 -0.32,-0.57 m 0.58,1.03 c 0.09,0.17 0.22,0.4 0.31,0.57 -0.1,-0.18 -0.21,-0.39 -0.31,-0.57 m 0.58,1.05 c 0.12,0.21 0.24,0.42 0.35,0.63 -0.12,-0.23 -0.22,-0.41 -0.35,-0.63 m 0.58,1.03 c 0.14,0.25 0.27,0.48 0.41,0.73 -0.13,-0.22 -0.29,-0.51 -0.41,-0.73 m 0.58,1.04 c 0.18,0.33 0.4,0.71 0.58,1.04 v 0 c -0.2,-0.35 -0.38,-0.68 -0.58,-1.04"
         style="fill:#95b5b1;fill-opacity:1;fill-rule:nonzero;stroke:none;stroke-width:0.1"
         id="path198" /><path
         d="m 3254.27,2079.37 v 156.86 c 56.86,7.56 89.23,22.58 89.23,22.58 -0.18,-0.33 -0.4,-0.71 -0.58,-1.04 -0.05,-0.09 -0.12,-0.22 -0.17,-0.31 -0.14,-0.25 -0.27,-0.48 -0.41,-0.73 -0.08,-0.14 -0.15,-0.27 -0.23,-0.4 -0.11,-0.21 -0.23,-0.42 -0.35,-0.63 -0.1,-0.18 -0.17,-0.3 -0.27,-0.48 -0.09,-0.17 -0.22,-0.4 -0.31,-0.57 -0.08,-0.13 -0.18,-0.32 -0.26,-0.46 -0.09,-0.17 -0.22,-0.4 -0.32,-0.57 -0.07,-0.14 -0.2,-0.37 -0.28,-0.51 -0.09,-0.16 -0.21,-0.37 -0.3,-0.54 -0.1,-0.18 -0.17,-0.3 -0.26,-0.48 -0.1,-0.16 -0.23,-0.4 -0.32,-0.57 -0.1,-0.18 -0.17,-0.3 -0.27,-0.48 -0.12,-0.21 -0.21,-0.38 -0.33,-0.59 -0.07,-0.13 -0.16,-0.29 -0.23,-0.42 -0.12,-0.21 -0.23,-0.42 -0.35,-0.63 -0.07,-0.13 -0.17,-0.31 -0.25,-0.45 -0.11,-0.21 -0.22,-0.41 -0.34,-0.62 -0.07,-0.13 -0.15,-0.27 -0.22,-0.4 -0.12,-0.21 -0.25,-0.45 -0.36,-0.66 -0.08,-0.13 -0.15,-0.27 -0.23,-0.41 -0.14,-0.25 -0.28,-0.51 -0.42,-0.76 -0.05,-0.09 -0.09,-0.17 -0.14,-0.26 -0.19,-0.34 -0.31,-0.55 -0.49,-0.89 -0.03,-0.04 -0.07,-0.13 -0.1,-0.18 -0.18,-0.34 -0.39,-0.71 -0.57,-1.04 -0.05,-0.09 -0.13,-0.23 -0.18,-0.32 -0.14,-0.25 -0.25,-0.47 -0.39,-0.72 -0.08,-0.14 -0.13,-0.24 -0.21,-0.38 -0.13,-0.25 -0.25,-0.46 -0.39,-0.71 -0.05,-0.09 -0.1,-0.19 -0.15,-0.28 -0.14,-0.25 -0.28,-0.51 -0.42,-0.76 -0.07,-0.14 -0.12,-0.22 -0.19,-0.35 -0.14,-0.26 -0.25,-0.45 -0.38,-0.71 -0.08,-0.13 -0.14,-0.25 -0.21,-0.38 -0.12,-0.21 -0.24,-0.43 -0.35,-0.64 -0.07,-0.14 -0.16,-0.29 -0.23,-0.43 -0.14,-0.25 -0.24,-0.43 -0.38,-0.68 -0.04,-0.09 -0.12,-0.24 -0.17,-0.33 -0.14,-0.25 -0.26,-0.47 -0.4,-0.72 -0.07,-0.14 -0.11,-0.22 -0.19,-0.36 -0.14,-0.25 -0.25,-0.46 -0.39,-0.71 -0.07,-0.14 -0.11,-0.21 -0.18,-0.34 -0.14,-0.26 -0.27,-0.49 -0.4,-0.74 -0.08,-0.14 -0.09,-0.17 -0.17,-0.31 -0.16,-0.29 -0.35,-0.64 -0.5,-0.93 -0.03,-0.05 -0.03,-0.05 -0.05,-0.09 -0.78,-1.43 -1.56,-2.89 -2.33,-4.32 -0.03,-0.05 -0.02,-0.04 -0.04,-0.08 -0.16,-0.3 -0.36,-0.67 -0.52,-0.96 -0.05,-0.09 -0.1,-0.19 -0.15,-0.28 -0.16,-0.3 -0.26,-0.49 -0.42,-0.79 -0.05,-0.09 -0.1,-0.18 -0.15,-0.27 -0.13,-0.25 -0.3,-0.57 -0.43,-0.82 -0.05,-0.09 -0.07,-0.13 -0.12,-0.22 -0.16,-0.3 -0.31,-0.57 -0.46,-0.87 -0.05,-0.09 -0.06,-0.1 -0.11,-0.19 -0.16,-0.3 -0.3,-0.56 -0.45,-0.85 -0.05,-0.09 -0.09,-0.17 -0.14,-0.27 -0.14,-0.25 -0.29,-0.54 -0.43,-0.79 -0.05,-0.09 -0.1,-0.19 -0.15,-0.28 -0.13,-0.25 -0.29,-0.55 -0.43,-0.81 -0.04,-0.09 -0.08,-0.16 -0.13,-0.25 -0.14,-0.26 -0.3,-0.57 -0.44,-0.83 -0.05,-0.09 -0.08,-0.16 -0.13,-0.25 -0.16,-0.3 -0.26,-0.48 -0.41,-0.77 -0.08,-0.14 -0.1,-0.18 -0.17,-0.32 -0.14,-0.25 -0.29,-0.55 -0.43,-0.8 -0.05,-0.1 -0.08,-0.16 -0.13,-0.25 -0.18,-0.34 -0.36,-0.69 -0.54,-1.02 l -0.02,-0.04 c -0.38,-0.72 -0.76,-1.44 -1.14,-2.16 -0.02,-0.05 -0.07,-0.14 -0.09,-0.18 -0.16,-0.3 -0.31,-0.59 -0.47,-0.88 -0.05,-0.09 -0.1,-0.2 -0.15,-0.29 -0.13,-0.26 -0.26,-0.5 -0.4,-0.76 -0.07,-0.13 -0.12,-0.23 -0.19,-0.37 -0.14,-0.26 -0.24,-0.45 -0.37,-0.7 -0.07,-0.14 -0.12,-0.23 -0.19,-0.37 -0.12,-0.21 -0.25,-0.47 -0.36,-0.68 -0.07,-0.14 -0.14,-0.27 -0.21,-0.4 -0.13,-0.26 -0.23,-0.44 -0.36,-0.69 -0.05,-0.1 -0.13,-0.25 -0.18,-0.34 -0.13,-0.26 -0.28,-0.53 -0.41,-0.79 -0.05,-0.09 -0.08,-0.15 -0.13,-0.24 -0.15,-0.3 -0.31,-0.6 -0.47,-0.9 -0.02,-0.04 -0.06,-0.11 -0.08,-0.16 -0.15,-0.3 -0.33,-0.64 -0.49,-0.93 -0.02,-0.05 -0.05,-0.1 -0.07,-0.14 -0.18,-0.34 -0.34,-0.66 -0.52,-1 l -0.04,-0.08 c -0.18,-0.34 -0.35,-0.68 -0.53,-1.02 l -0.03,-0.07 c -0.58,-1.1 -1.13,-2.17 -1.7,-3.28 l -0.02,-0.03 c -0.17,-0.34 -0.36,-0.7 -0.54,-1.04 -0.02,-0.05 -0.05,-0.1 -0.07,-0.15 -0.18,-0.34 -0.31,-0.59 -0.48,-0.93 -0.03,-0.04 -0.07,-0.13 -0.1,-0.18 -0.15,-0.3 -0.29,-0.57 -0.45,-0.87 -0.07,-0.14 -0.08,-0.17 -0.15,-0.3 -0.13,-0.26 -0.26,-0.51 -0.39,-0.77 -0.05,-0.09 -0.11,-0.21 -0.16,-0.3 -0.11,-0.22 -0.28,-0.55 -0.39,-0.76 -0.05,-0.09 -0.14,-0.28 -0.19,-0.37 -0.13,-0.25 -0.23,-0.45 -0.36,-0.71 -0.05,-0.09 -0.12,-0.23 -0.17,-0.32 -0.15,-0.3 -0.25,-0.49 -0.4,-0.78 -0.04,-0.1 -0.1,-0.21 -0.15,-0.3 -0.15,-0.3 -0.3,-0.59 -0.45,-0.89 -0.03,-0.04 -0.05,-0.09 -0.07,-0.14 -0.18,-0.34 -0.34,-0.65 -0.51,-1 l -0.05,-0.08 c -1.13,-2.22 -2.2,-4.33 -3.32,-6.56 -0.03,-0.04 -0.06,-0.1 -0.08,-0.15 -0.15,-0.3 -0.33,-0.64 -0.48,-0.94 -0.02,-0.05 -0.05,-0.11 -0.08,-0.16 -0.15,-0.3 -0.31,-0.61 -0.46,-0.91 -0.05,-0.1 -0.05,-0.1 -0.09,-0.19 -0.15,-0.3 -0.34,-0.66 -0.49,-0.96 l -0.04,-0.09 c -0.17,-0.34 -0.31,-0.61 -0.48,-0.96 -0.05,-0.09 -0.05,-0.09 -0.09,-0.18 -0.15,-0.3 -0.31,-0.6 -0.46,-0.9 -0.04,-0.09 -0.05,-0.11 -0.1,-0.21 -0.13,-0.25 -0.3,-0.6 -0.43,-0.86 -0.05,-0.09 -0.07,-0.13 -0.12,-0.22 -0.17,-0.35 -0.33,-0.68 -0.5,-1.02 l -0.02,-0.03 c -1.11,-2.22 -2.18,-4.38 -3.29,-6.61 l -0.04,-0.09 c -0.17,-0.34 -0.33,-0.65 -0.5,-1 -0.02,-0.04 -0.05,-0.1 -0.07,-0.15 -0.17,-0.34 -0.3,-0.61 -0.47,-0.95 -0.03,-0.05 -0.05,-0.09 -0.07,-0.13 -0.15,-0.31 -0.31,-0.64 -0.46,-0.94 -0.05,-0.09 -0.06,-0.12 -0.11,-0.21 -0.14,-0.3 -0.29,-0.6 -0.44,-0.9 -0.05,-0.09 -0.04,-0.08 -0.08,-0.17 -0.15,-0.3 -0.32,-0.64 -0.47,-0.94 -0.02,-0.05 -0.05,-0.11 -0.07,-0.15 -0.17,-0.35 -0.32,-0.65 -0.49,-1 l -0.04,-0.08 c -0.15,-0.3 -0.31,-0.63 -0.46,-0.93 -0.02,-0.05 -0.08,-0.17 -0.11,-0.22 -0.16,-0.34 -0.32,-0.66 -0.49,-1.01 l -0.02,-0.04 c -1.24,-2.54 -2.54,-5.19 -3.77,-7.74 l -0.05,-0.11 c -0.17,-0.34 -0.33,-0.67 -0.5,-1.02 l -0.03,-0.05 c -0.16,-0.35 -0.33,-0.7 -0.5,-1.04 l -0.04,-0.09 c -0.17,-0.34 -0.33,-0.69 -0.5,-1.03 l -0.03,-0.07 c -0.17,-0.35 -0.33,-0.68 -0.5,-1.02 l -0.04,-0.1 c -0.19,-0.39 -0.33,-0.68 -0.52,-1.07 l -0.01,-0.01 c -1.43,-2.98 -2.84,-5.94 -4.26,-8.92 l -0.01,-0.02 c -0.17,-0.35 -0.35,-0.73 -0.51,-1.08 l -0.04,-0.07 c -0.33,-0.7 -0.71,-1.5 -1.04,-2.19 v -0.01 c -1.74,-3.68 -3.53,-7.48 -5.25,-11.18 l -0.03,-0.06 c -0.35,-0.74 -0.68,-1.46 -1.03,-2.2 l -0.01,-0.01 c -4.16,-8.96 -8.29,-17.99 -12.34,-27.01 l -0.02,-0.04 c -2.2,-4.9 -4.41,-9.88 -6.58,-14.79"
         style="fill:#e0b47c;fill-opacity:1;fill-rule:nonzero;stroke:none;stroke-width:0.1"
         id="path200" /></g></g></svg>
