<?xml version="1.0" encoding="UTF-8" standalone="no"?>
<svg
   xmlns:dc="http://purl.org/dc/elements/1.1/"
   xmlns:cc="http://creativecommons.org/ns#"
   xmlns:rdf="http://www.w3.org/1999/02/22-rdf-syntax-ns#"
   xmlns:svg="http://www.w3.org/2000/svg"
   xmlns="http://www.w3.org/2000/svg"
   viewBox="0 0 4657.1465 3713.3201"
   height="3713.3201"
   width="4657.1465"
   xml:space="preserve"
   id="svg2"
   version="1.1"><metadata
     id="metadata8"><rdf:RDF><cc:Work
         rdf:about=""><dc:format>image/svg+xml</dc:format><dc:type
           rdf:resource="http://purl.org/dc/dcmitype/StillImage" /></cc:Work></rdf:RDF></metadata><defs
     id="defs6" /><g
     transform="matrix(1.3333333,0,0,-1.3333333,0,3713.32)"
     id="g10"><g
       transform="scale(0.1)"
       id="g12"><g
         transform="scale(2.02919)"
         id="g14"><path
           id="path16"
           style="fill:#d09a4f;fill-opacity:1;fill-rule:nonzero;stroke:none"
           d="m 13780,11101.8 c 0,0 1553.9,-789.1 1261.1,-2697.61 -256.1,-1669.93 -107.9,-2337.98 575.5,-3165.2 683.4,-827.28 -323.7,-1151 377.7,-3363.07 125.9,-341.66 27,-746.36 -143.9,-764.29 107.9,-116.946 323.7,-827.28 -989.1,-827.28 -514.9,0 -948.7,0 -935.2,427.116 -156.2,375.424 285.5,557.514 944.2,665.394 3.4,178.74 143.9,544.06 332.7,624.97 87.7,157.36 224.8,1816.39 -314.7,2454.83 -539.6,638.43 -1672.5,1732.75 -1753.5,2251.14 -80.9,518.43 645.2,4394 645.2,4394" /></g><g
         transform="scale(1.92421)"
         id="g18"><path
           id="path20"
           style="fill:#edc39a;fill-opacity:1;fill-rule:nonzero;stroke:none"
           d="m 16121.3,2077.84 c 178.7,676.12 60.5,1927.34 -322.4,2510.28 392.6,-774.91 316.9,-2327.5 233.6,-2477.07 -148.7,-63.71 -269,-294.67 -321.9,-486.02 108.5,189.69 221.3,381.1 410.7,452.81" /></g><g
         transform="scale(2.02919)"
         id="g22"><path
           id="path24"
           style="fill:#b77e39;fill-opacity:1;fill-rule:nonzero;stroke:none"
           d="m 15994.3,1875.92 c -701.4,2212.07 305.7,2535.79 -377.7,3363.07 -683.4,827.22 -831.6,1495.27 -575.5,3165.2 152.1,991.28 -609.5,2175.81 -977.4,2609.41 334.1,-596.8 398.1,-1726.28 237.6,-2426.78 -125.6,-548.05 159.8,-1538.2 355.4,-2111.43 382.5,-1121.28 998.2,-1430.37 944.2,-1881.59 -175.2,-1465.75 87.7,-2308.75 168.6,-2542.54 62,-172.28 181.1,-785.53 -104.5,-896.96 97.7,-168.585 110.4,-554.75 -120.3,-640.646 -634,-236.055 -1262.6,-184.114 -1555,-42.726 137.4,-186.38 481,-186.578 871.6,-186.578 1312.8,0 1097,710.334 989.1,827.28 170.9,17.93 269.8,422.63 143.9,764.29" /></g><g
         transform="scale(2.00477)"
         id="g26"><path
           id="path28"
           style="fill:#000000;fill-opacity:1;fill-rule:nonzero;stroke:none"
           d="m 13957.8,11216.1 c -54.4,-292.3 -727.3,-3926.4 -649.5,-4424.46 60.6,-388.72 732.2,-1123.02 1271.9,-1713.01 186.3,-203.76 362.3,-396.15 499.8,-558.87 538.1,-636.68 420.9,-2319.31 320.1,-2500.18 l -2.3,-4.09 -4.2,-1.84 c -187.7,-80.41 -325.4,-450.48 -328.6,-620.27 l -0.2,-11.38 -11.2,-1.84 c -538.8,-88.24 -847.2,-214.94 -943,-387.379 -43.7,-78.662 -44.4,-166.152 -2.3,-267.413 l 1.2,-2.743 -0.1,-2.942 c -3.6,-114.278 24.6,-200.72 86.1,-264.319 149.2,-153.933 472.4,-153.933 846.8,-153.933 717.1,0 959.7,210.2 1036.9,386.527 78.4,179.123 7.7,370.072 -45.8,427.932 l -18.4,20 27,2.84 c 40.7,4.24 79.1,33.72 111.1,85.2 82.2,132.18 118.3,411.97 23.2,670.15 -380.4,1199.79 -266,1851.88 -182.4,2327.99 72.7,413.57 120.6,686.82 -197.6,1072 -714.1,864.48 -840,1555.48 -585.5,3214.52 152.3,992.46 -200.6,1677.91 -523.5,2078.11 -309.8,384.1 -651.9,586.5 -729.5,629.4 z M 15042.3,274.147 c -380.5,0 -709.2,0 -866.4,162.263 -66.4,68.586 -97.2,160.566 -93.9,281.178 -43.8,106.895 -42.2,203.963 4.7,288.462 100.8,181.47 403.3,308.41 951.5,399.25 8.6,175.73 142.1,541.95 340,631.44 77.3,162.46 227.8,1818.31 -319,2465.42 -137.2,162.26 -313,354.5 -499.1,558.01 -570.4,623.62 -1216.8,1330.43 -1278.8,1727.23 -81.4,521.06 623.1,4291.9 653.1,4452.1 l 3.4,17.9 16.2,-8.2 c 3.9,-2 399.9,-206.1 753.8,-644.4 326.7,-404.6 683.9,-1097.49 530,-2100.35 -253.1,-1649.56 -128.5,-2335.87 579.6,-3192.98 326.2,-394.9 277.3,-673.09 203.4,-1094.13 -83.1,-473.32 -196.9,-1121.58 181.3,-2314.43 97.9,-265.72 59.8,-555.72 -25.8,-693.4 -30.8,-49.58 -67.9,-81.4 -108.2,-93.32 54.5,-77.72 112.7,-264.371 36.1,-439.155 -80.4,-183.761 -330,-402.888 -1061.9,-402.888" /></g><g
         transform="scale(1.93969)"
         id="g30"><path
           id="path32"
           style="fill:#44250c;fill-opacity:1;fill-rule:nonzero;stroke:none"
           d="m 16201,4551.51 c 1,6.85 99,689.49 -167.4,870.5 -141.4,96.05 -285.2,264.68 -393.6,409.09 -103.3,137.75 -156.2,277.82 -156.2,277.82 3,-4.74 294.5,-479.35 565.6,-663.61 161.8,-109.86 198.2,-381.19 199.2,-597.21 0.7,-159.3 -47.6,-296.59 -47.6,-296.59" /></g><g
         transform="scale(1.83953)"
         id="g34"><path
           id="path36"
           style="fill:#44250c;fill-opacity:1;fill-rule:nonzero;stroke:none"
           d="m 15349.4,707.194 c -19.7,399.996 950.6,476.966 950.6,476.966 -9.5,-1.19 -945.8,-128.07 -920.9,-474.847 l -29.7,-2.119" /></g><g
         transform="scale(1.79482)"
         id="g38"><path
           id="path40"
           style="fill:#712703;fill-opacity:1;fill-rule:nonzero;stroke:none"
           d="m 16167.5,1105.07 c -63.8,149.1 -185.3,260.64 -410.3,97 -225,-163.58 -353.9,-314.571 -326.9,-401.209 33.8,-108.368 461.6,-223.699 699.8,-91.764 169.9,94.158 37.4,395.973 37.4,395.973" /></g><g
         transform="scale(1.7795)"
         id="g42"><path
           id="path44"
           style="fill:#963a15;fill-opacity:1;fill-rule:nonzero;stroke:none"
           d="m 15560.1,838.046 c 5,89.913 130.1,226.974 332.8,374.374 186.4,135.6 340.9,77.72 407.1,-80.69 -90.6,110.42 -223.6,133.85 -338.6,65.18 -142.9,-85.41 -306.2,-211.743 -401.3,-358.864" /></g><g
         transform="scale(1.79358)"
         id="g46"><path
           id="path48"
           style="fill:#471400;fill-opacity:1;fill-rule:nonzero;stroke:none"
           d="m 15946.1,777.721 c 154.4,32.394 257.6,184.101 234.3,324.159 14.7,-35.52 119.6,-304.309 -39.1,-392.291 -238.3,-132.027 -666.5,-16.615 -700.3,91.828 -3.5,11.318 -4.2,23.75 -2.6,37.076 138.7,-70.25 320.1,-100.192 507.7,-60.772" /></g><g
         transform="scale(1.79654)"
         id="g50"><path
           id="path52"
           style="fill:#2d0b00;fill-opacity:1;fill-rule:nonzero;stroke:none"
           d="m 15750.4,1189.62 c -222.1,-161.48 -345.3,-309.149 -321.5,-385.351 8.6,-27.552 52.7,-59.615 117.9,-85.72 156.8,-62.788 406.7,-83.437 561.1,2.116 156.6,86.777 32.6,374.835 31.3,377.785 v 0.11 c -39.1,91.23 -90.4,146.22 -152.6,163.31 -18.9,5.23 -38.8,6.96 -59.8,5.23 -52.5,-4.34 -111.5,-30.22 -176.4,-77.48 z m -213.9,-497.01 c -75.2,30.114 -122.9,66.795 -134.3,103.31 -28.3,90.674 92.6,242.47 331.8,416.36 98,71.3 185.5,97.13 260,76.59 70.8,-19.54 128.3,-79.88 170.9,-179.29 5.9,-13.64 135.1,-314.384 -43.5,-413.352 -60.8,-33.731 -134.2,-52.099 -211,-58.446 -129.7,-10.743 -269.2,12.802 -373.9,54.828" /></g><g
         transform="scale(1.82129)"
         id="g54"><path
           id="path56"
           style="fill:#712703;fill-opacity:1;fill-rule:nonzero;stroke:none"
           d="m 16152.4,849.286 c -71,165.984 -206.3,290.174 -456.8,108.002 -250.5,-182.18 -394.2,-350.3 -364,-446.772 37.6,-120.628 514,-249.054 779.2,-102.125 189.2,104.817 41.6,440.895 41.6,440.895" /></g><g
         transform="scale(1.80398)"
         id="g58"><path
           id="path60"
           style="fill:#963a15;fill-opacity:1;fill-rule:nonzero;stroke:none"
           d="m 15475.3,549.178 c 5.6,100.221 145,252.996 371,417.301 207.7,151.051 379.9,86.581 453.7,-89.971 -101.1,123.064 -249.3,149.232 -377.4,72.62 -159.2,-95.179 -341.3,-235.925 -447.3,-399.95" /></g><g
         transform="scale(1.81988)"
         id="g62"><path
           id="path64"
           style="fill:#471400;fill-opacity:1;fill-rule:nonzero;stroke:none"
           d="m 15906,484.539 c 171.9,36.101 286.7,205.014 260.9,360.957 16.3,-39.563 133.1,-338.868 -43.6,-436.787 -265.4,-147.043 -742.1,-18.517 -779.8,102.205 -3.9,12.585 -4.8,26.431 -2.9,41.321 154.5,-78.246 356.4,-111.546 565.4,-67.696" /></g><g
         transform="scale(1.82323)"
         id="g66"><path
           id="path68"
           style="fill:#2d0b00;fill-opacity:1;fill-rule:nonzero;stroke:none"
           d="m 15688.1,943.709 c -247.3,-179.845 -384.5,-344.222 -358,-429.073 9.6,-30.659 58.7,-66.366 131.3,-95.435 174.6,-69.931 452.8,-92.911 624.7,2.359 174.4,96.641 36.3,417.334 34.9,420.572 l -0.1,0.109 c -43.5,101.633 -100.6,162.789 -169.9,181.879 -20.9,5.81 -43.2,7.73 -66.5,5.81 -58.4,-4.88 -124.2,-33.677 -196.4,-86.221 z m -238.2,-553.413 c -83.7,33.513 -136.8,74.375 -149.5,115.071 -31.5,100.92 103.1,269.906 369.3,463.516 109.2,79.367 206.7,108.107 289.6,85.237 78.8,-21.72 142.8,-88.856 190.2,-199.538 6.6,-15.193 150.5,-350.038 -48.3,-460.228 -67.8,-37.568 -149.5,-58.027 -235,-65.103 -144.5,-11.955 -299.6,14.316 -416.3,61.045" /></g><g
         transform="scale(1.0122)"
         id="g70"><path
           id="path72"
           style="fill:#d09a4f;fill-opacity:1;fill-rule:nonzero;stroke:none"
           d="m 16300,14126.6 c 0,0 -685,-4957.82 -973.4,-5732.97 54,-234.34 -54.2,-1207.77 -432.7,-1496.25 -126.2,-594.85 -829.2,-2487.66 -612.9,-3407.05 216.3,-919.39 -270.4,-1297.87 -270.4,-1297.87 216.3,0 1456.8,-860.5 -1027.5,-1225.847 -1315.1,-193.441 -2340.6,77.947 -2170,700.757 -427.5,624.58 419.4,1059.47 1683.3,1507.51 54,234.34 404.8,950.51 667,1361 477.6,748.18 360.5,2577.86 360.5,2577.86 -216.3,72.12 -189.3,1212.31 72.1,1297.87 -252.3,955.45 450.7,3965.89 -829.2,5426.09 -1280,1460.2 3533.2,288.9 3533.2,288.9" /></g><path
         id="path74"
         style="fill:#edc39a;fill-opacity:1;fill-rule:nonzero;stroke:none"
         d="m 13553.8,4817.6 c 285.6,485.2 187.5,2323.6 326.5,2387.4 -316.1,154.7 -289.1,1128.9 45.2,1350.8 -188.8,765.9 -110.9,2253.3 -260.3,3185.2 49.7,-1181.6 -71.1,-2677.3 69.2,-3208.5 -264.5,-86.7 -291.9,-1240.8 -73,-1313.8 0,0 118.6,-1852 -364.9,-2609.2 -205.9,-322.4 -543.4,-1055.1 -675.1,-1377.6 342.1,629.5 643.2,1103.9 932.4,1585.7" /><g
         transform="scale(1.01052)"
         id="g76"><path
           id="path78"
           style="fill:#b77e39;fill-opacity:1;fill-rule:nonzero;stroke:none"
           d="m 16300,14168.2 c 0,0 -362.8,88.2 -862.4,186.1 383.8,-1746.9 -369.7,-3794.2 -523.4,-5535.93 108.3,-541.7 33.8,-1419.67 -345.4,-1807.89 -187.9,-568.02 -469.9,-1941.08 -612.1,-3044.88 -36.5,-313.7 524.1,-979.5 -173.3,-1799.97 324.9,-252.84 313,-514.3 228,-597.02 -150.6,-146.36 -987.7,-348.83 -1666,-372.88 -890,-31.57 -1665.5,657.28 57.2,1354.85 -566.6,-172.19 -1140.7,-191.98 -1605.9,-1087.96 109.5,-461.05 1035.3,-644.817 2180.8,-476.389 2488.5,365.949 1246,1227.889 1029.3,1227.889 0,0 487.6,379.21 270.9,1300.13 -216.8,920.81 487.5,2816.78 613.9,3412.71 379.2,288.86 487.5,1263.91 433.4,1498.64 288.9,776.44 975,5742.6 975,5742.6" /></g><g
         transform="scale(1.01239)"
         id="g80"><path
           id="path82"
           style="fill:#44250c;fill-opacity:1;fill-rule:nonzero;stroke:none"
           d="m 13331.4,14561.4 c -380,0 -668.9,-54 -757.2,-199.8 -66.9,-110.3 -5.2,-275.4 183.5,-490.6 882.7,-1007.2 829.1,-2759.3 789.9,-4038.69 -18.1,-590.09 -33.7,-1099.68 44.9,-1397.29 l 6.6,-24.69 -24.2,-8 c -112.3,-36.65 -197.5,-344.73 -198.6,-716.53 -0.7,-282.2 52.5,-505.04 126.5,-529.74 l 17.3,-5.72 1.2,-18.18 c 4.8,-75.07 112.2,-1846.83 -364.7,-2593.67 -257,-402.42 -610.3,-1122.79 -663.2,-1352.25 l -3.4,-14.43 -14,-5.03 c -832.7,-295.15 -1621.9,-625.36 -1756.7,-1038.94 -44.5,-137 -16.1,-276.77 87,-427.5 l 7.2,-10.37 -3.4,-11.95 c -40,-146.19 -11.6,-275.39 84.5,-383.85 278.5,-314.504 1085.2,-425.627 2055.1,-282.9 1339.4,196.97 1517.1,530.83 1503.9,712.38 -17.7,242.2 -371.3,459.31 -472.7,459.31 h -78.3 l 61.7,48.4 c 4.8,3.66 470,380.49 260.7,1270.17 -166.4,707.44 201.6,1970.1 445.3,2805.75 73.8,253.26 137.5,471.95 167.3,612.41 l 2.1,9.88 8,6.02 c 371.6,283.2 475.3,1239.94 422.6,1468.42 l -1.8,7.9 2.8,7.6 c 273.8,735.59 916,5324.69 968.4,5701.89 -219.2,52 -1890.4,440 -2908.3,440 z M 12163.7,896.397 c -619.6,0 -1101.7,127.223 -1309.6,361.923 -106.3,120.01 -139.7,261.85 -99.3,421.87 -106.1,159.52 -135.3,315.79 -86.8,464.35 141.1,433.53 935.5,769.76 1776.2,1068.37 65.2,251.68 407.5,948.55 666.9,1354.71 443.8,695 367.1,2362.64 357.2,2544.98 -108.3,61.04 -146.7,331.6 -146,573.4 0.7,245.56 46.8,668.42 212.3,757.61 -74.2,307.7 -58.8,810.47 -41,1390.38 38.9,1270.41 92.2,3010.21 -776.6,4001.31 -206,235 -269.6,421.5 -189.1,554.4 360.8,595.1 3610.2,-187.8 3748.4,-221.4 l 23.7,-5.8 -3.4,-24.2 c -27.8,-201.9 -684.3,-4938.45 -971.8,-5730.15 50,-248.32 -59.5,-1209.91 -436.3,-1509.3 -31,-142.73 -93.9,-358.17 -166.4,-606.79 -242,-830.11 -607.7,-2084.57 -444.5,-2778.18 182.4,-775.4 -123.1,-1170.5 -239,-1287.65 154.9,-48.6 451,-254.16 468.9,-498.63 17.9,-244.67 -236.5,-576.75 -1550,-769.861 -280.4,-41.29 -547.9,-61.342 -793.8,-61.342" /></g><path
         id="path84"
         style="fill:#44250c;fill-opacity:1;fill-rule:nonzero;stroke:none"
         d="m 11128.8,1694 c -23.8,90.9 -8.6,181.6 45,269.6 254.5,417.8 1359.2,613.8 1359.2,613.8 -10.6,-2.3 -1070.1,-244.3 -1312.5,-642.3 -46.2,-75.9 -58.9,-150.2 -38.8,-227.3 l -52.9,-13.8" /><path
         id="path86"
         style="fill:#712703;fill-opacity:1;fill-rule:nonzero;stroke:none"
         d="m 11648.4,2244.4 c -106.7,249.5 -310,436.1 -686.5,162.3 -376.5,-273.8 -592.4,-526.4 -547.1,-671.4 56.6,-181.3 772.6,-374.3 1171.1,-153.5 284.3,157.5 62.5,662.6 62.5,662.6" /><path
         id="path88"
         style="fill:#963a15;fill-opacity:1;fill-rule:nonzero;stroke:none"
         d="m 10409.7,1785.5 c 8.3,149.2 215.9,376.7 552.2,621.2 309.2,224.9 565.6,128.9 675.4,-133.9 -150.4,183.2 -371,222.1 -561.7,108.1 -237.1,-141.7 -508.1,-351.2 -665.9,-595.4" /><path
         id="path90"
         style="fill:#471400;fill-opacity:1;fill-rule:nonzero;stroke:none"
         d="m 11259.4,1695.6 c 258.2,54.2 430.7,308 391.8,542.2 24.6,-59.4 200,-509 -65.3,-656 -398.5,-220.8 -1114.5,-27.8 -1171.1,153.5 -5.9,18.9 -7.2,39.7 -4.4,62 232,-117.5 535.3,-167.5 849,-101.7" /><path
         id="path92"
         style="fill:#2d0b00;fill-opacity:1;fill-rule:nonzero;stroke:none"
         d="m 10975.7,2387.8 c -372,-270.5 -578.4,-517.9 -538.6,-645.5 14.4,-46.1 88.3,-99.8 197.6,-143.6 262.6,-105.2 681.2,-139.8 939.8,3.6 262.4,145.3 54.6,627.8 52.5,632.7 l -0.1,0.2 c -65.4,152.8 -151.4,244.9 -255.7,273.6 -31.5,8.7 -64.9,11.6 -100.1,8.7 -87.8,-7.3 -186.7,-50.6 -295.4,-129.7 z m -358.4,-832.6 c -125.9,50.5 -205.7,111.9 -224.9,173.1 -47.4,151.9 155.2,406.1 555.7,697.4 164.3,119.4 310.9,162.7 435.6,128.3 118.6,-32.8 214.9,-133.8 286.2,-300.3 10,-22.8 226.4,-526.6 -72.7,-692.4 -101.9,-56.5 -224.9,-87.3 -353.5,-97.9 -217.3,-18 -450.8,21.5 -626.4,91.8" /><path
         id="path94"
         style="fill:#712703;fill-opacity:1;fill-rule:nonzero;stroke:none"
         d="m 12021.9,1837.3 c -120.7,281.8 -350.3,492.8 -775.8,183.4 -425.4,-309.3 -669.2,-594.8 -618.1,-758.6 63.9,-204.9 872.9,-422.998 1323.2,-173.5 321.3,178 70.7,748.7 70.7,748.7" /><path
         id="path96"
         style="fill:#963a15;fill-opacity:1;fill-rule:nonzero;stroke:none"
         d="m 10622.2,1318.8 c 9.5,168.6 243.9,425.6 623.9,701.9 349.5,254.1 639.1,145.6 763.1,-151.3 -169.9,207 -419.2,250.9 -634.6,122.1 -267.9,-160.1 -574.1,-396.8 -752.4,-672.7" /><path
         id="path98"
         style="fill:#471400;fill-opacity:1;fill-rule:nonzero;stroke:none"
         d="m 11582.4,1217.3 c 291.7,61.2 486.6,347.9 442.6,612.5 27.8,-67.1 226,-575.1 -73.8,-741.2 -450.3,-249.498 -1259.3,-31.4 -1323.2,173.5 -6.7,21.3 -8.1,44.8 -5,70.1 262.2,-132.8 604.9,-189.4 959.4,-114.9" /><path
         id="path100"
         style="fill:#2d0b00;fill-opacity:1;fill-rule:nonzero;stroke:none"
         d="m 11261.7,1999.3 c -420.3,-305.7 -653.5,-585.1 -608.5,-729.3 16.3,-52.2 99.8,-112.8 223.3,-162.3 296.7,-118.798 769.7,-157.899 1061.9,4 296.4,164.3 61.6,709.5 59.3,715 l -0.2,0.2 c -73.8,172.7 -171,276.7 -288.8,309.2 -35.7,9.8 -73.4,13.1 -113.1,9.8 -99.3,-8.2 -211.1,-57.2 -333.9,-146.6 z m -404.9,-940.7 c -142.2,57 -232.5,126.4 -254.1,195.6 -53.5,171.6 175.3,458.8 627.9,787.9 185.6,135 351.2,183.8 492.1,145 134.1,-37 242.9,-151.1 323.4,-339.3 11.3,-25.8 255.9,-595 -82.1,-782.3 -115.2,-63.8 -254.1,-98.598 -399.5,-110.699 -245.5,-20.301 -509.3,24.398 -707.7,103.799" /><path
         id="path102"
         style="fill:#000000;fill-opacity:1;fill-rule:nonzero;stroke:none"
         d="m 13602.3,7227.9 36.2,41 c 51.8,-45.6 192.1,-61.6 241.8,-63.9 0,0 -202.6,-43.5 -278,22.9" /><g
         transform="scale(2.07621)"
         id="g104"><path
           id="path106"
           style="fill:#d09a4f;fill-opacity:1;fill-rule:nonzero;stroke:none"
           d="m 13667.8,10833.9 c 0,0 672.4,-404.3 936,-1300.68 196.5,-668.12 518.6,-725.05 975.6,-848.09 456.9,-123.03 720.6,-571.25 641.5,-1467.65 -202.1,8.77 -254.9,79.09 -254.9,79.09 0,0 149.4,940.37 -351.5,1089.77 -500.9,149.41 -1054.6,-70.32 -1581.9,667.9 -527.3,738.24 -364.8,1779.66 -364.8,1779.66" /></g><g
         transform="scale(2.05605)"
         id="g108"><path
           id="path110"
           style="fill:#b77e39;fill-opacity:1;fill-rule:nonzero;stroke:none"
           d="m 15983.9,8527.86 c -353.5,255.83 -785.9,40.22 -1228,458.75 -332.8,315.05 -115.3,714.4 -944.3,1103.79 45.7,-307.44 147.3,-651.5 358.6,-947.38 532.5,-745.46 1091.5,-523.58 1597.4,-674.45 505.8,-150.87 355,-1100.46 355,-1100.46 0,0 39.1,-51.6 177.4,-72.27 -27.8,625.81 -35.9,1029.21 -316.1,1232.02" /></g><g
         transform="scale(2.07719)"
         id="g112"><path
           id="path114"
           style="fill:#44250c;fill-opacity:1;fill-rule:nonzero;stroke:none"
           d="m 15972.5,7297.41 c 14,-13.53 73.3,-60.52 228.7,-69.57 70.2,823.95 -142.7,1308.55 -632.6,1440.46 l -60.4,16.15 c -426.2,113.49 -734.2,195.48 -923.9,840.54 -235.7,801.41 -806.5,1211.11 -912.6,1281.51 -18.7,-148.5 -112.7,-1080.17 365,-1748.88 375.8,-526.19 764.4,-560.85 1140.1,-594.31 150.4,-13.43 292.5,-26.1 434.1,-68.32 489.8,-146.11 375,-1007.51 361.6,-1097.58 z m 252.8,-97.06 -12.6,0.53 c -205.9,8.96 -262.5,81.27 -264.8,84.35 l -3.3,4.43 0.9,5.53 c 1.5,9.29 141.8,930.2 -342.1,1074.53 -139,41.45 -279.9,54.02 -429,67.3 -381.6,34.04 -776.2,69.23 -1159.2,605.29 -524.1,733.76 -368.4,1778.09 -366.8,1788.49 l 3,19.4 16.8,-10.1 c 6.8,-4.1 679.5,-417.1 941.3,-1307.67 185.6,-630.84 487.5,-711.24 905.4,-822.51 l 60.5,-16.17 c 499.5,-134.45 724.6,-646.53 651,-1480.83 l -1.1,-12.57" /></g><g
         transform="scale(2.14288)"
         id="g116"><path
           id="path118"
           style="fill:#632311;fill-opacity:1;fill-rule:nonzero;stroke:none"
           d="m 15518.2,7325.78 c -156.6,33.88 -206.1,-481.54 -33.3,-977.18 172.8,-495.69 -408.8,-751.7 -124.2,-1280.01 284.5,-528.35 443.8,-537.36 260.8,-794.77 262.7,155.31 556.6,532.98 315.9,949.98 -240.7,417.01 480.4,651.32 329.1,1167.78 -151.3,516.49 -529.4,886.84 -748.3,934.2" /></g><g
         transform="scale(2.13375)"
         id="g120"><path
           id="path122"
           style="fill:#4c170b;fill-opacity:1;fill-rule:nonzero;stroke:none"
           d="m 15551.2,6375.76 c -173.6,497.76 -123.8,1015.39 33.4,981.37 199.1,-43.12 529.5,-352.43 702.9,-795.93 12.5,-181.37 -64.1,-388.98 -142.3,-536.47 -111.5,-209.91 -259.1,-337.06 -282.8,-529.96 -2,-207.52 315.2,-533.37 63.2,-900.47 135.9,246.7 -27.5,607.66 -109.7,796.48 -42.1,180.15 55.3,363.44 159.7,519.83 286.4,428.73 166.1,871.15 -148.8,1174.27 28.6,-159.2 74,-470.06 93.9,-627.44 27.9,-204.1 -38.1,-405.01 -125.8,-602.13 -63.4,-136.66 -180.9,-429.66 -109.5,-637.51 67.7,-196.98 346.5,-336.64 124.5,-754.49 141.7,506.19 -204.9,514.72 -226.2,851.69 -30.1,333.64 243.8,670.46 239,1022.61 -6.2,262.4 -211.1,999.13 -229,957.98 -184.4,-311.19 -4.8,-707.67 57.2,-1045.15 24.3,-95.33 -8.7,-303.04 -79.1,-434.82 -151.9,-327.22 -195.8,-627.11 53.1,-933.01 79.7,-99.16 208.2,-301.67 132.3,-475.4 45.5,173.59 -114.4,281.15 -330.8,683.07 -285.8,530.56 298.3,787.67 124.8,1285.48" /></g><g
         transform="scale(2.14288)"
         id="g124"><path
           id="path126"
           style="fill:#2b0800;fill-opacity:1;fill-rule:nonzero;stroke:none"
           d="m 15458.8,7291.48 c -98,-110.78 -102.6,-535.82 37.9,-938.82 82.1,-235.67 -3.5,-419.77 -86.3,-597.75 -96.6,-207.62 -187.8,-403.71 -38.8,-680.39 85.7,-159.18 158.5,-268.84 217.1,-356.95 119,-179.25 166.5,-250.74 75.6,-401.47 240.9,166.79 483.7,517.99 262.3,901.5 -125.3,217.04 0.9,385.5 134.6,563.86 131.1,175.09 266.8,356.11 193.3,606.66 -154.1,526.3 -534.8,881.34 -738.9,925.48 -21,4.58 -39.6,-2.7 -56.8,-22.12 z m 152.5,-3010.43 c 122.8,172.62 87.6,225.63 -43.4,422.75 -55.6,83.86 -131.9,198.71 -218.2,358.87 -154.9,287.69 -56.8,498.67 38.1,702.74 84.5,181.48 164.2,352.94 85.4,579.08 -143.2,410.85 -135.6,847.55 -33,963.47 23,26.04 50.9,36.4 80.6,30 210.1,-45.5 600.7,-407.39 757.6,-942.88 76.9,-262.46 -68.8,-456.91 -197.3,-628.55 -134.2,-179.06 -250,-333.66 -132.9,-536.47 245.5,-425.36 -57.1,-811.29 -320.4,-966.92 l -50.4,-29.78 33.9,47.69" /></g><g
         transform="scale(2.07999)"
         id="g128"><path
           id="path130"
           style="fill:#2b0800;fill-opacity:1;fill-rule:nonzero;stroke:none"
           d="m 16100.2,4391.94 c 109.8,63.22 199.8,273.07 150.2,537.5 -21.1,112.4 -75.7,177.02 -128.6,239.47 -75.9,89.76 -147.7,174.62 -118.8,398.03 26.9,207.93 81.7,344.09 130.1,464.23 61.9,153.7 115.4,286.45 104.1,521.3 -19.4,407.36 -265.3,993.76 -267.7,999.62 l -23.7,-10 c 2.5,-5.82 246.6,-588.03 265.8,-990.87 11,-229.23 -41.5,-359.57 -102.3,-510.48 -49,-121.54 -104.4,-259.33 -131.7,-470.53 -30.3,-234.62 48.5,-327.79 124.7,-417.84 53,-62.69 103.1,-121.92 122.9,-227.69 47.4,-252.79 -35.6,-451.69 -137.8,-510.48 l 12.8,-22.26" /></g><g
         transform="scale(2.12501)"
         id="g132"><path
           id="path134"
           style="fill:#2b0800;fill-opacity:1;fill-rule:nonzero;stroke:none"
           d="m 15843.8,4382.62 c 256.8,234.36 276.5,583.39 57,1009.41 -70.8,137.27 50.7,355.06 157.9,547.25 58.7,105.17 114.1,204.47 133.2,281.93 108.1,438.68 -194.7,947.66 -197.7,952.75 l -21.5,-12.95 c 3,-5.03 300.4,-505.31 194.8,-933.78 -18.3,-74.17 -72.9,-172.1 -130.7,-275.72 -110.3,-197.69 -235.2,-421.74 -158.4,-571.01 216.9,-420.75 199.6,-750.25 -51.5,-979.29 l 16.9,-18.59" /></g><g
         transform="scale(1.7067)"
         id="g136"><path
           id="path138"
           style="fill:#632311;fill-opacity:1;fill-rule:nonzero;stroke:none"
           d="m 9939.72,13488.2 c 0,0 331.38,1240.2 662.88,1667.8 64.1,-74.8 69.5,-374.2 69.5,-374.2 21.4,219.2 299.3,871.4 759,1111.9 -21.3,-80.2 -165.7,-416.9 -165.7,-416.9 224.5,229.8 529.2,791.1 1218.8,823.2 -128.3,-122.9 -534.6,-481.1 -534.6,-481.1 379.6,90.9 834,465.1 1277.6,417 -101.5,-96.3 -235.2,-283.4 -235.2,-283.4 278,96.3 1015.7,256.6 1373.9,-128.3 -165.7,-32 -662.9,-42.7 -662.9,-42.7 363.5,-74.9 924.8,-171.1 1165.4,-604.1 -96.2,-21.4 -481.1,69.5 -481.1,69.5 315.3,-155 684.2,-358.1 951.4,-1512.8 -598.7,572 -3255.4,1021 -5398.98,-245.9" /></g><g
         transform="scale(1.67482)"
         id="g140"><path
           id="path142"
           style="fill:#4c170b;fill-opacity:1;fill-rule:nonzero;stroke:none"
           d="m 14303.8,15711.7 c 130.8,0 228.8,65.4 359.6,32.7 -424.9,163.4 -882.5,294.1 -1340.1,261.4 130.7,98.1 228.8,163.5 392.2,196.1 -294.1,0 -588.3,0 -817.1,-196.1 -32.7,130.8 130.8,163.5 98,294.2 -359.5,-98.1 -653.6,-359.5 -1045.8,-392.2 0,65.4 -65.4,130.7 -32.7,196.1 -196.1,-163.4 -228.8,-523 -522.9,-588.3 0,65.3 -65.4,98 -32.8,163.4 -294.1,-196.1 -261.4,-653.7 -588.3,-817.1 30.5,60.8 -52.1,65.1 -37.5,118 -141.2,-348.2 -132.7,-721 -268.7,-1050.7 2116.9,1059.4 4584.1,619.4 5163,66.3 -63.9,276.3 -133.6,498.6 -206.9,679.9 -315.8,401.4 -695,753 -1120,1036.3" /></g><g
         transform="scale(1.70858)"
         id="g144"><path
           id="path146"
           style="fill:#2b0800;fill-opacity:1;fill-rule:nonzero;stroke:none"
           d="m 10590.1,15111.7 c -288.5,-391.6 -577.6,-1396.7 -635.47,-1604.6 2127.47,1236.7 4690.17,797.4 5340.07,257.4 -270,1126.6 -635.7,1306.4 -930.4,1451.2 l -127.2,62.6 138,-32.6 c 120.6,-28.5 355.5,-76.4 450.9,-72 -231.4,389.4 -727.4,490.4 -1091.3,564.4 l -189.1,38.9 141.9,3.1 c 4.7,0.1 444.3,9.8 629.6,37.4 -336.5,327.9 -993.1,220.4 -1334.2,102.3 l -47.4,-16.4 29.2,40.8 c 5.1,7.1 115.4,161.2 212,260.7 -262.2,15.4 -527.1,-111.8 -783.4,-235.3 -159.6,-76.9 -310.4,-149.6 -453.1,-183.7 l -62.6,-15 48.2,42.6 c 3.8,3.3 349.9,308.4 501.4,449.7 -523.2,-42.4 -811.5,-394.4 -1023.7,-653.3 -51.5,-63 -96.1,-117.4 -139,-161.4 l -60.1,-61.4 33.9,78.9 c 1.2,3 112,261.8 152.6,376.6 -426.4,-248 -693.6,-862.1 -714.7,-1078.6 l -31.9,1.3 c -1.4,74.9 -13.9,270.4 -54.2,346.4 z m -686.92,-1672.1 10.12,37.9 c 3.28,12.4 335.7,1246.8 664.9,1671.6 l 12,15.6 12.8,-15 c 39.8,-46.4 58.1,-168.4 66.4,-262.6 82,285 349.4,798 741.7,1003.3 l 32.3,16.9 -9.4,-35.2 c -14.7,-55.1 -84.7,-225.3 -129.1,-331.1 23.2,27.3 47.6,57.1 73.9,89.2 221.8,270.7 525.5,641.5 1090.9,667.8 l 42.7,2 -30.9,-29.5 c -99.4,-95.3 -368.4,-334.2 -482.3,-435 120,37.6 247,98.8 380.2,163 271.5,130.8 552.4,266 834.9,235.4 l 34.5,-3.8 -25.1,-23.8 c -70.8,-67 -158.4,-180.3 -203.3,-240.4 366.9,116 1015.3,202.2 1341.3,-148.2 l 19.7,-21.1 -28.4,-5.5 c -111.5,-21.6 -366.8,-33.5 -526.9,-39 351,-73.5 824.8,-196.4 1039.8,-583.7 l 10.5,-18.7 -21,-4.7 c -63.8,-14.1 -242.5,17.6 -365,42.7 282,-151.8 605.3,-421 847,-1465.1 l 12.2,-52.3 -38.8,37.1 c -578.4,552.6 -3208.5,1031.9 -5373.91,-247.9 l -33.71,-19.9" /></g><path
         id="path148"
         style="fill:#632311;fill-opacity:1;fill-rule:nonzero;stroke:none"
         d="m 4533.57,15260.9 c 0,0 547.4,-711.6 602.14,-1737.9 82.11,191.5 218.96,615.8 218.96,615.8 -13.68,-355.8 -95.79,-1026.4 821.1,-1738 -54.74,232.6 -177.9,673.4 -177.9,673.4 164.21,-249.2 561.08,-824 957.94,-1001.9 -95.79,205.3 -396.86,698 -396.86,698 533.71,-424.3 1655.88,-698 2394.87,-698 -821.1,533.8 -3589.44,2320.3 -3691.9,3585.5 -468.33,-246.3 -728.35,-396.9 -728.35,-396.9" /><path
         id="path150"
         style="fill:#4c170b;fill-opacity:1;fill-rule:nonzero;stroke:none"
         d="m 5399.53,14490.4 c 0,-547.4 229.22,-1296.6 506.34,-1556.6 -47.9,225.8 -99.21,386.6 -68.42,516.6 164.22,-328.5 437.91,-547.4 656.87,-821.1 -34.21,112.9 -130,325 -130,434.5 166.19,-213.7 438.61,-427.1 653.19,-564.6 579.08,-266 1370.05,-426.9 1936.31,-426.9 -821.1,533.8 -3589.44,2320.3 -3691.9,3585.5 -249.55,-131.3 -439.26,-234.9 -562.7,-303.5 320.53,-365.5 481.35,-833.5 481.35,-1301.8 54.74,164.2 218.96,273.7 218.96,437.9" /><path
         id="path152"
         style="fill:#2b0800;fill-opacity:1;fill-rule:nonzero;stroke:none"
         d="m 6455.03,12887.8 120.94,-96.1 c 514.85,-409.3 1559.15,-669.2 2283.31,-690.5 -924.32,601 -3467.61,2276.2 -3620.45,3513.5 -358.69,-189.2 -590.41,-319.8 -665.22,-362.4 92.16,-130.4 502.25,-753.6 580.78,-1608.7 78.24,206.5 173.1,500 174.22,503.6 l 61.05,189.2 -10.13,-255.8 c -16.71,-361.7 -44.37,-961 750.83,-1608.8 -59.29,238.3 -157.75,591.2 -158.85,595.1 l -47.13,168.6 96.34,-146.2 c 386.89,-587.2 679.86,-844.1 873.64,-954.8 -117.92,227 -356.07,617.1 -358.77,621.5 z m 556.67,-870.5 -67.09,30.1 c -260.23,116.6 -554.56,410.2 -876.07,873.4 40.97,-150.1 100.44,-371.6 133.88,-513.8 l 17.72,-75.3 -61.16,47.5 c -783.3,607.9 -847.07,1179.9 -839.19,1567.4 -47.14,-139.4 -112.1,-325.2 -158.93,-434.4 l -46.24,-107.9 -6.25,117.2 c -53.62,1005.4 -591.08,1715.7 -596.5,1722.8 l -19.01,24.7 27,15.6 c 2.6,1.5 265.85,153.7 729.31,397.4 l 36.7,19.3 3.34,-41.3 c 100.32,-1238.8 2774.74,-2976.7 3653.57,-3547.8 l 103.36,-67.2 h -92.32 c -687.62,0 -1723.4,236.1 -2301.29,623.3 95.2,-158.8 260.6,-439.8 328.09,-584.4 l 31.08,-66.6" /><g
         transform="scale(1.24661)"
         id="g154"><path
           id="path156"
           style="fill:#632311;fill-opacity:1;fill-rule:nonzero;stroke:none"
           d="m 6245.75,16300 c 0,0 -292.75,-1763.8 519.6,-2257.7 -164.66,-11 -417.15,153.3 -417.15,153.3 120.75,-164.3 461.07,-790.1 911.15,-910.8 -120.75,-54.9 -348.83,0 -348.83,0 271.99,-252.5 809.89,-757.5 1325.87,-834.4 -439.13,-98.7 -2272.41,175.7 -2590.76,1328.4 -318.36,1152.6 -117.1,2473.6 600.12,2521.2" /></g><g
         transform="scale(1.19191)"
         id="g158"><path
           id="path160"
           style="fill:#4c170b;fill-opacity:1;fill-rule:nonzero;stroke:none"
           d="m 6826.47,14132.1 c 91.86,0 183.71,0 275.56,0 -367.41,183.8 -551.11,597.2 -734.82,964.5 91.85,0 183.71,-91.8 275.56,-91.8 -314.15,392.7 -293.03,1187.6 -796.9,1295.2 -142.36,-518 -123.21,-1229.5 58.89,-1888.8 296.88,-1074.9 1852.62,-1419.2 2512,-1408.1 -637.71,232.8 -1220.13,561.5 -1590.29,1129" /></g><g
         transform="scale(1.24843)"
         id="g162"><path
           id="path164"
           style="fill:#2b0800;fill-opacity:1;fill-rule:nonzero;stroke:none"
           d="m 6210.64,16251.9 c -164.18,-18.9 -304.76,-109.3 -418.17,-269 -316.49,-445.6 -371.56,-1357.8 -133.92,-2218.3 287.94,-1042.5 1847.55,-1362.5 2435.3,-1326.9 -472.8,128.7 -937.6,560.3 -1197.21,801.4 l -72.39,67.2 81.36,-19.5 c 1.79,-0.4 151.94,-35.9 267.27,-19.5 -352.68,136.3 -627.24,555.4 -779.05,787.1 -28.89,44.1 -53.8,82.2 -72.52,107.6 l -71.24,97 100.86,-65.6 c 2.06,-1.4 176.04,-113.6 323.62,-143.1 -685.88,515.7 -498.14,1973 -463.91,2201.6 z m 1797.71,-3859.8 c -655.88,0 -2111.67,345.7 -2392.06,1360.8 -240.92,872.3 -183.16,1799.8 140.45,2255.4 127.67,179.8 288.64,277.3 478.47,289.9 l 27.62,1.8 -4.55,-27.3 c -2.89,-17.4 -280.55,-1752.2 508.63,-2232.1 l 59.2,-36 -69.13,-4.6 c -110.07,-7.5 -255.01,58.3 -345.21,107 6.04,-9.2 12.29,-18.7 18.73,-28.6 158.56,-242 453.67,-692.4 823.97,-791.8 l 59.06,-15.8 -55.65,-25.3 c -82.11,-37.3 -207.12,-27.5 -286.85,-15.6 287.85,-266.3 780.58,-705 1256.59,-775.8 l 116.15,-17.3 -114.55,-25.8 c -54.86,-12.4 -130.24,-18.9 -220.87,-18.9" /></g><g
         transform="scale(1.85904)"
         id="g166"><path
           id="path168"
           style="fill:#d09a4f;fill-opacity:1;fill-rule:nonzero;stroke:none"
           d="m 3825.04,10527.8 c 0,0 39.26,-1059.97 471.12,-1560.55 431.86,-500.58 873.54,-628.17 1452.6,-412.26 438.62,161.97 1187.66,3111.41 3072.12,3425.51 157.07,323.9 1276.02,2277.1 2640.32,2345.8 1364.3,68.7 2085.7,-746.7 2667.2,-1464.9 C 14629,12243 15765,12375.9 15995.7,10734 16300,8568.76 15019.1,7686.37 15505,5816.59 15990.8,3946.82 15416.6,4786.01 14665.8,3284.33 13914.9,1782.64 14341.9,1105.35 13598.4,928.704 13811.8,818.27 14489.6,22.2162 12531,60.0843 c -742,14.3092 -982.7,261.3177 -859.1,515.3737 -338.3,338.508 417.4,699.232 1035.8,721.342 -34.4,289.5 252.7,663.03 618.3,780.29 195.1,62.56 1206.3,2698.27 1030.6,3400.89 -184,736.13 -692,1236.71 -785.2,2360.52 C 13316.2,7563.68 11794.9,6052.15 9272.41,7122 8251.61,7239.8 7809.93,6749.06 7122.91,7082.73 6906.94,6955.14 5537.74,5698.85 3947.72,6699.95 2357.69,7701.11 2607.97,9511.99 2607.97,9511.99 2755.2,9688.65 3825.04,10527.8 3825.04,10527.8" /></g><g
         transform="scale(1.64099)"
         id="g170"><path
           id="path172"
           style="fill:#edc39a;fill-opacity:1;fill-rule:nonzero;stroke:none"
           d="m 15819.4,12067.5 c -457.9,-684.9 -578.3,-2109.11 -465.8,-3209.97 7.6,8.11 14.9,15.78 21.2,22.55 57.9,-1133.89 842.8,-2184.66 905.7,-2810.14 19.5,658.81 -459.8,1341.57 -647.7,2415.8 -226.3,1294.16 -98.3,2807.66 186.6,3581.76" /></g><g
         transform="scale(1.65251)"
         id="g174"><path
           id="path176"
           style="fill:#edc39a;fill-opacity:1;fill-rule:nonzero;stroke:none"
           d="m 15075.6,2286.77 c 379.7,502.62 1224.4,2691.66 1098,3632.47 -10.5,-1026.5 -981.1,-3518.1 -1182.1,-3582.55 -336.1,-107.84 -613.1,-408.17 -682.1,-692.16 312.2,449.2 549.6,559.63 766.2,642.24" /></g><g
         transform="scale(1.66979)"
         id="g178"><path
           id="path180"
           style="fill:#edc39a;fill-opacity:1;fill-rule:nonzero;stroke:none"
           d="m 7098.76,10049.5 c -148.58,-157.87 -272.55,-264.65 -353.46,-322.02 771.24,1373.12 1638.41,3583.92 3688.9,3538.92 -131.1,65.5 -355.4,73.3 -398.4,71.3 426.2,852.3 1091.5,1759.1 1970.4,2229.9 925.5,495.7 2152.7,202.1 3043.3,-639.3 367.3,-347 595.6,-688.4 1250.5,-1038.1 -120.7,79.9 -479.6,316.9 -570.3,428.9 -647.3,799.7 -1450.6,1707.4 -2969.5,1630.9 -1518.9,-76.4 -2764.66,-2251 -2939.53,-2611.6 -2098.06,-349.7 -2932,-3633.44 -3420.33,-3813.76 -135.58,-50.55 -264.34,-83.96 -387.77,-100.37 461.5,-30.79 849.51,178.22 1086.19,625.23" /></g><g
         transform="scale(1.66979)"
         id="g182"><path
           id="path184"
           style="fill:#b77e39;fill-opacity:1;fill-rule:nonzero;stroke:none"
           d="m 16147.7,13950.3 c 52.6,-17.5 103.2,-37.8 152.3,-60.1 -90.5,49.2 -178,99.3 -260.1,154.3 34.9,-47.2 71.3,-82 107.8,-94.2" /></g><g
         transform="scale(1.85904)"
         id="g186"><path
           id="path188"
           style="fill:#b77e39;fill-opacity:1;fill-rule:nonzero;stroke:none"
           d="m 15995.7,10734 c -152.3,1084.2 -699.4,1394.5 -1197.7,1658.3 1332.7,-1025.3 919.7,-3001.55 472.1,-4264.25 -153.8,-433.77 -306.5,-1433.96 -163.3,-2009.31 280.4,-1126.6 457.1,-1217.29 -282.4,-2100.54 -341.3,-407.69 -791.7,-1597.6 -850.6,-2191.4 -29.4,-382.78 -245.4,-716.5 -603.6,-863.723 66.7,-122.805 496.7,-412.094 157,-613.435 -549.8,-267.3395 -1602.7,-181.328 -1880.3,51.856 41.5,-182.73 315.4,-330.4391 884.1,-341.4137 1958.6,-37.8681 1280.8,758.1857 1067.4,868.6197 743.5,176.646 316.5,853.936 1067.4,2355.626 750.8,1501.68 1325,662.49 839.2,2532.26 -485.9,1869.78 795,2752.17 490.7,4917.41" /></g><g
         transform="scale(1.59261)"
         id="g190"><path
           id="path192"
           style="fill:#b77e39;fill-opacity:1;fill-rule:nonzero;stroke:none"
           d="m 15841.8,9149.84 c -59.8,428.73 -221,2233.26 458.2,3284.26 -297.8,-460.8 -504,-1038.7 -813.3,-1519.9 -584.3,-859.2 -1200.6,-1378.45 -2266.2,-1653.41 -893.6,-206.2 -1940.9,0 -2270.8,725.41 -206.2,-343.71 -446.9,-618.67 -790.6,-893.62 -68.7,0 -137.5,-103.11 -171.83,-137.52 C 9471.7,8302.05 8379.9,8159.95 7933.09,8881.79 7589.38,8022.51 6764.95,7803.62 5905.68,7872.37 c -928.03,34.41 -2456.97,1011.11 -1886.13,1858.72 505.54,750.61 -196.2,1051.21 530.61,1877.01 18.84,94.2 65.79,274.5 120.3,378.1 -57.93,334.6 -205.51,302.9 -205.51,302.9 0,0 -1248.82,-979.6 -1420.68,-1185.8 0,0 -292.15,-2113.83 1563.89,-3282.48 1856.02,-1168.58 3454.28,297.88 3706.38,446.82 801.96,-389.49 1317.53,183.35 2509.06,45.83 2944.5,-1248.83 4720.3,515.57 5018.2,836.37" /></g><g
         transform="scale(1.84301)"
         id="g194"><path
           id="path196"
           style="fill:#44250c;fill-opacity:1;fill-rule:nonzero;stroke:none"
           d="m 13701.4,7941.45 2.8,-33.53 c 58.1,-700.04 271.7,-1149.74 478.3,-1584.63 124.7,-262.45 242.5,-510.36 313.4,-794.08 109.3,-437.22 -229.3,-1520.34 -379.9,-1965.7 C 13884.7,2879.64 13563,2118.38 13446.5,2081 13091,1966.94 12798.6,1599.39 12833,1309.81 l 1.9,-16 -16.2,-0.6 c -495.7,-17.69 -1010,-235.16 -1100.7,-465.379 -32,-81.388 -9.8,-161.096 65.9,-236.842 l 7.5,-7.486 -4.7,-9.496 c -40.3,-82.963 -39.1,-163.646 3.6,-233.313 99.3,-162.345 401.2,-256.5926 850,-265.2189 1029.2,-20.1839 1299,188.1159 1344.1,366.1399 52.8,208.136 -177.9,432.01 -274.6,481.983 l -35.5,18.393 39,9.224 c 408.3,97.065 459.5,351.115 552.4,812.315 75.1,372.65 177.8,882.95 514.3,1555.98 282.5,564.89 539.8,802.38 727.6,975.74 308.4,284.59 423.7,391.1 117.9,1568.2 -251.6,968.36 -35.2,1676.38 194.1,2425.97 221.3,723.54 450.1,1471.71 300.5,2535.88 -155.9,1109.7 -728,1412 -1232.7,1678.8 -247.6,130.9 -481.4,254.4 -647.7,459.8 -497.7,614.9 -1250.3,1544 -2678.1,1472.1 -577.6,-29 -1175.7,-392.9 -1777.83,-1081.5 -467.55,-534.7 -788.55,-1102.6 -872.76,-1276.3 l -3.37,-6.9 -7.59,-1.3 C 7599.89,11853.3 6843.63,10395.7 6343.15,9431.19 6113.42,8988.38 5947.44,8668.47 5803.92,8615.46 5218.28,8397.12 4761.33,8526.64 4322.29,9035.53 3928.39,9492.07 3855.41,10415.3 3844.99,10590 3690.27,10468.2 2788.14,9755.53 2644.84,9588.49 c -5.77,-47.42 -53.71,-486.65 74.78,-1031.03 124.8,-528.76 446.51,-1267.93 1270.36,-1786.64 1425.82,-897.72 2670.2,11.77 3079.15,310.58 49.11,35.86 84.54,61.8 108.2,75.74 l 6.83,4.07 7.16,-3.47 c 373.41,-181.33 666.96,-119.86 1038.58,-41.94 306.72,64.29 654.42,137.16 1124.84,82.9 l 4.12,-1.08 c 1069.84,-453.77 2084.24,-503.25 3014.64,-147.04 701.1,268.36 1146.2,695.16 1305,866.19 z M 12771.3,44.4394 c -42.5,0 -86.3,0.4345 -131.6,1.3014 -459.3,8.8997 -769.9,108.1382 -874.8,279.4342 -46.5,76.07 -49.7,163.048 -9.3,252.304 -77.8,81.768 -100.4,171.893 -65.2,261.204 103.2,262.287 664.6,463.427 1111.5,483.557 -23.7,299.72 274.2,671.18 635.5,787.08 82.4,26.37 369.8,634.07 650.5,1463.69 312,922.35 453.7,1650.99 379.2,1949.04 -70.2,280.79 -187.4,527.4 -311.4,788.49 -195,410.36 -415.5,874.71 -478.2,1561.84 -177.4,-185.89 -617.5,-590.88 -1293.3,-849.53 -937.4,-358.81 -1958.5,-309.44 -3035,146.61 -464.51,53.23 -809.16,-18.99 -1113.23,-82.75 -359.9,-75.47 -671.02,-140.63 -1050.29,40.75 -22.68,-14.27 -56.81,-39.23 -99.02,-70.05 C 6673.75,6755.62 5417.05,5837.07 3974.15,6745.7 3141.39,7270 2816.42,8017.26 2690.45,8551.76 c -136.43,578.89 -75.14,1040.36 -74.5,1044.98 l 0.58,4.23 2.71,3.25 c 147.83,177.38 1185.79,992.28 1229.9,1026.88 l 22.93,18 1.08,-29.1 c 0.41,-10.7 44.44,-1069.93 471.62,-1565.04 435.55,-504.83 868.84,-627.94 1448.84,-411.61 132.78,49 305.05,381.06 523.17,801.51 502.22,967.94 1260.6,2429.74 2570.84,2653.14 89.64,182.5 410.09,745.8 873.79,1276.1 607.59,694.8 1212.79,1062.1 1798.69,1091.6 1443.8,72.1 2201.2,-863.6 2702.7,-1483.1 162.4,-200.6 393.6,-322.9 638.5,-452.2 511,-270.1 1090.2,-576.2 1248.2,-1701 150.5,-1070.66 -79.3,-1822.03 -301.5,-2548.72 -228,-745.41 -443.3,-1449.53 -193.8,-2409.75 310.3,-1194.35 191.4,-1304.11 -126.5,-1597.49 -186.1,-171.84 -441,-407.16 -721.1,-967.17 -334.7,-669.5 -437.1,-1177.63 -511.8,-1548.6 -92.7,-460.17 -144.9,-719.37 -540.2,-826.583 113.1,-77.32 310.3,-293.162 258.6,-496.742 -45.7,-180.303 -301.5,-389.8526 -1241.9,-389.9056" /></g><g
         transform="scale(1.59261)"
         id="g198"><path
           id="path200"
           style="fill:#44250c;fill-opacity:1;fill-rule:nonzero;stroke:none"
           d="m 15916.5,8543.48 c -289.7,1552.32 -115.2,2632.12 77.3,3257.72 132.8,431.7 306.2,632.9 306.2,632.9 -8.4,-12.4 -836.5,-1276.1 -349.7,-3884.28 l -33.8,-6.34" /></g><g
         transform="scale(1.76889)"
         id="g202"><path
           id="path204"
           style="fill:#44250c;fill-opacity:1;fill-rule:nonzero;stroke:none"
           d="m 15624.3,4515.04 c 675.7,645.43 432.2,1266.22 429.6,1272.38 0,0 79.8,-118.27 75,-316.47 -4.5,-188.88 -58.7,-442.2 -252.1,-713.78 -61.8,-86.78 -252.5,-242.13 -252.5,-242.13" /></g><path
         id="path206"
         style="fill:#44250c;fill-opacity:1;fill-rule:nonzero;stroke:none"
         d="m 13452.5,13047.9 c -270,74.5 -464.8,269 -600.8,473.2 -190.2,285.5 -217.4,624.1 -217.4,624.1 2.1,-8.8 216.6,-874.5 832.7,-1044.6 l -14.5,-52.7" /><g
         transform="scale(1.02948)"
         id="g208"><path
           id="path210"
           style="fill:#44250c;fill-opacity:1;fill-rule:nonzero;stroke:none"
           d="m 10349.4,15412.5 -16,50.7 c 547.6,172.9 1174.4,830.2 1180.6,836.8 0,0 -207.9,-295.3 -511.7,-523.6 -199.6,-149.8 -430.6,-293.7 -652.9,-363.9" /></g><g
         transform="scale(1.37154)"
         id="g212"><path
           id="path214"
           style="fill:#44250c;fill-opacity:1;fill-rule:nonzero;stroke:none"
           d="m 12703.2,16151.2 c -6.2,1.5 -626.3,148.8 -1014.4,8 l -13.7,37.6 c 174.7,63.3 389.7,71.1 578.9,59.4 243.6,-15 449.2,-105 449.2,-105" /></g><g
         transform="scale(1.43574)"
         id="g216"><path
           id="path218"
           style="fill:#44250c;fill-opacity:1;fill-rule:nonzero;stroke:none"
           d="m 15097.3,637.581 -37.8,4.666 c 69.9,439.563 1240.5,560.473 1240.5,560.473 -11.6,-1.81 -1155.8,-188.47 -1202.7,-565.139" /></g><g
         transform="scale(1.38712)"
         id="g220"><path
           id="path222"
           style="fill:#712703;fill-opacity:1;fill-rule:nonzero;stroke:none"
           d="m 16128.5,1128.82 c -82.6,192.84 -239.7,337.17 -530.9,125.51 -291.1,-211.74 -458,-407.103 -423,-519.206 43.8,-140.148 597.4,-289.449 905.5,-118.664 219.9,121.835 48.4,512.36 48.4,512.36" /></g><g
         transform="scale(1.37179)"
         id="g224"><path
           id="path226"
           style="fill:#963a15;fill-opacity:1;fill-rule:nonzero;stroke:none"
           d="m 15340.2,782.631 c 6.5,116.636 168.8,294.509 431.7,485.719 241.8,175.83 442.3,100.74 528.1,-104.68 -117.6,143.17 -290.1,173.57 -439.2,84.49 -185.4,-110.81 -397.2,-274.682 -520.6,-465.529" /></g><g
         transform="scale(1.38587)"
         id="g228"><path
           id="path230"
           style="fill:#471400;fill-opacity:1;fill-rule:nonzero;stroke:none"
           d="m 15842,705.121 c 199.8,41.922 333.3,238.333 303.2,419.519 19.1,-45.96 154.8,-393.832 -50.6,-507.624 -308.4,-170.939 -862.5,-21.503 -906.3,118.772 -4.6,14.646 -5.5,30.737 -3.4,48.055 179.6,-90.988 414.3,-129.739 657.1,-78.722" /></g><g
         transform="scale(1.38883)"
         id="g232"><path
           id="path234"
           style="fill:#2d0b00;fill-opacity:1;fill-rule:nonzero;stroke:none"
           d="m 15589,1238.16 c -287.3,-208.95 -446.7,-399.974 -415.9,-498.545 11.1,-35.641 68.2,-77.116 152.6,-110.884 202.8,-81.22 526,-107.934 725.7,2.734 202.7,112.327 42.2,484.945 40.6,488.685 l -0.1,0.14 c -50.5,118.02 -116.9,189.15 -197.4,211.33 -24.4,6.7 -50.2,8.93 -77.3,6.7 -67.9,-5.62 -144.3,-39.1 -228.2,-100.16 z m -276.7,-642.984 c -97.3,38.955 -158.9,86.404 -173.7,133.639 -36.7,117.364 119.8,313.645 429.1,538.585 126.9,92.23 240.1,125.64 336.4,99.07 91.6,-25.27 166,-103.32 221,-231.92 7.7,-17.64 174.9,-406.672 -56.2,-534.693 -78.7,-43.635 -173.6,-67.396 -272.9,-75.603 -167.9,-13.897 -348.2,16.631 -483.7,70.922" /></g><g
         transform="scale(1.41358)"
         id="g236"><path
           id="path238"
           style="fill:#712703;fill-opacity:1;fill-rule:nonzero;stroke:none"
           d="m 16109.8,798.752 c -91.4,213.858 -265.7,373.868 -588.5,139.149 -322.8,-234.723 -507.8,-451.335 -469,-575.557 48.5,-155.492 662.3,-320.957 1003.9,-131.652 243.8,135.045 53.6,568.06 53.6,568.06" /></g><g
         transform="scale(1.39626)"
         id="g240"><path
           id="path242"
           style="fill:#963a15;fill-opacity:1;fill-rule:nonzero;stroke:none"
           d="m 15234.6,410.384 c 7.2,129.486 187.3,326.941 479.2,539.15 268.4,195.236 490.9,111.866 586.2,-116.166 -130.5,158.926 -322,192.732 -487.5,93.749 -205.9,-122.97 -441.1,-304.812 -577.9,-516.733" /></g><g
         transform="scale(1.41217)"
         id="g244"><path
           id="path246"
           style="fill:#471400;fill-opacity:1;fill-rule:nonzero;stroke:none"
           d="m 15792.1,328.644 c 221.6,46.523 369.7,264.273 336.2,465.171 21.2,-50.916 171.7,-436.705 -56,-562.893 -342,-189.4937 -956.4,-23.863 -1005,131.784 -5,16.143 -6.1,34.059 -3.8,53.179 199.2,-100.837 459.4,-143.75 728.6,-87.241" /></g><g
         transform="scale(1.41552)"
         id="g248"><path
           id="path250"
           style="fill:#2d0b00;fill-opacity:1;fill-rule:nonzero;stroke:none"
           d="m 15511.8,920.44 c -318.5,-231.648 -495.1,-443.371 -461,-552.659 12.3,-39.49 75.6,-85.481 169.2,-122.923 224.8,-90.073 583.1,-119.672 804.6,3.038 224.5,124.477 46.6,537.539 44.9,541.709 l -0.2,0.141 c -55.9,130.906 -129.5,209.745 -218.8,234.334 -27,7.41 -55.6,9.89 -85.7,7.41 -75.2,-6.21 -159.9,-43.374 -253,-111.05 z m -306.7,-712.812 c -107.8,43.163 -176.2,95.794 -192.6,148.212 -40.6,130.059 132.8,347.647 475.8,597.025 140.6,102.295 266.1,139.245 372.9,109.855 101.5,-28.05 183.9,-114.516 244.9,-257.079 8.7,-19.568 193.9,-450.858 -62.2,-592.786 -87.2,-48.32 -192.5,-74.741 -302.6,-83.856 -186,-15.401 -386,18.437 -536.2,78.629" /></g><path
         id="path252"
         style="fill:#d09a4f;fill-opacity:1;fill-rule:nonzero;stroke:none"
         d="m 13636.6,8482.4 40.6,-36.7 c 118.6,130.9 241.5,111.1 248.1,110.1 -0.7,0.4 -148,81.9 -288.7,-73.4" /><path
         id="path254"
         style="fill:#d09a4f;fill-opacity:1;fill-rule:nonzero;stroke:none"
         d="m 13925.4,8555.8 h 0.1 -0.2 0.1" /><g
         transform="scale(1.13477)"
         id="g256"><path
           id="path258"
           style="fill:#d09a4f;fill-opacity:1;fill-rule:nonzero;stroke:none"
           d="m 15452.4,1473.25 c 0,0 670.7,578.79 225.4,1414.99 -445.3,836.12 -246.1,2669.17 -193.2,3151.56 294.2,225.15 220.5,1575.82 -7.5,1720.52 45.5,482.39 -125.7,2846.08 -250.1,3585.78 502.8,1222 92.2,2476.2 92.2,2476.2 l -2990.8,-659.2 C 11846,11506.9 13872,7744.28 14000.6,7503 c -160.7,-289.4 48.3,-1286.34 316.4,-1447.07 334.8,-683.4 298.7,-2870.27 133.8,-3055.15 -320.9,-294.95 -707.4,-884.41 -723.6,-1125.6 C 12957,1573.97 12002.8,1039.06 12412.8,629.025 12473.1,152.718 13097,2.38208 14113.2,93.4142 16300,289.489 15689,1248.09 15452.4,1473.25" /></g><g
         transform="scale(1.02871)"
         id="g260"><path
           id="path262"
           style="fill:#edc39a;fill-opacity:1;fill-rule:nonzero;stroke:none"
           d="m 16131.5,3239.22 c 168.5,1141.53 95.4,2509.85 -135.4,3452 -506.1,388.16 -538.6,1474.58 -362.6,1672.4 -657.1,1417.51 -2115.7,4045.88 -2008.4,6149.18 -532.1,-1827 1677.2,-5970.02 1819.1,-6236.18 -177.3,-319.24 53.2,-1418.97 348.9,-1596.28 369.4,-753.86 329.6,-3166.22 147.7,-3370.16 -354,-325.36 -780.4,-975.59 -798.2,-1241.66 -385.2,-150.67 -811.9,-354.42 -1121.4,-574.21 488,260.32 871.2,423.44 1183.5,476.71 119.8,403.52 487.2,1018.66 926.8,1268.2" /></g><g
         transform="scale(1.13477)"
         id="g264"><path
           id="path266"
           style="fill:#b77e39;fill-opacity:1;fill-rule:nonzero;stroke:none"
           d="m 15452.4,1473.25 c 0,0 670.7,578.79 225.4,1414.99 -445.3,836.12 -246.1,2669.17 -193.2,3151.56 294.2,225.15 220.5,1575.82 -7.5,1720.52 45.5,482.39 -125.7,2846.08 -250.1,3585.78 502.8,1222 92.2,2476.2 92.2,2476.2 l -49.2,-10.8 c -24.2,-116.6 -59.3,-222.3 -143.8,-278.7 -196.8,-196.7 -896.9,127.3 -896.9,127.3 599.4,-1116.1 676.6,-1990.5 550,-2418.6 192.9,-663.3 411.8,-2532.53 439.3,-3489.2 189.5,-329.67 221.1,-1427.07 -2,-1744.67 6.1,-1205.96 -178.9,-2468.16 235.2,-3232.01 209,-536.58 66.4,-958.69 -262,-1199.71 292.2,-411.71 181.1,-780.772 -72.4,-957.019 C 14409.8,126.898 12849.2,166.288 12428.5,552.007 12544.6,136.681 13154,7.49393 14113.2,93.4142 16300,289.489 15689,1248.09 15452.4,1473.25" /></g><g
         transform="scale(1.1212)"
         id="g268"><path
           id="path270"
           style="fill:#44250c;fill-opacity:1;fill-rule:nonzero;stroke:none"
           d="m 13766.1,44.9541 c -760.2,0 -1171.9,194.4349 -1226.1,580.4489 -84.6,87.406 -116.3,184.983 -94.3,290.228 92.2,440.509 1095.5,869.689 1424.9,999.559 30.6,254.82 402.5,830.98 738.7,1139.94 158.1,177.49 195.9,2362.57 -137.9,3057.1 -270.3,175.25 -487.9,1160.72 -328.8,1481.54 -317.5,594.36 -1709.5,3299.13 -1762.6,5034.93 -15.3,497.5 121.1,686.9 121.1,686.9 -456.6,-1567.4 1323.7,-5023.2 1685.2,-5700.07 l 11.7,-21.86 -6.5,-11.68 c -160.1,-287.99 55.3,-1278.27 311.4,-1431.86 l 6.2,-3.75 3.2,-6.42 c 147.9,-302 245.2,-954.51 259.9,-1745.55 11.1,-598.64 -29.3,-1262.67 -128.1,-1373.53 -331.6,-304.76 -710.8,-892.44 -726.2,-1124.6 l -1.1,-15.43 -14.4,-5.71 c -635,-248.31 -1338.5,-633.43 -1408.9,-969.498 -19.1,-91.779 9.2,-174.099 86.8,-251.695 l 6,-5.978 1,-8.292 c 55.9,-441.315 626,-616.7523 1694.6,-520.785 906.9,81.341 1450.3,307.888 1571.4,655.194 99.4,284.964 -107.3,581.964 -230.6,699.254 l -19.5,18.55 20.4,17.66 c 27,23.46 658.5,583.48 222.5,1402.16 -207.9,390.39 -411.1,1263.12 -198.3,3203.9 l 1.2,10.35 8.3,6.42 c 149.7,114.52 199.6,554.67 182.7,940.07 -16.7,382.36 -96,702.46 -188.6,761.24 l -12.6,8.02 1.5,14.81 c 47.5,505.18 -131.8,2901.58 -253,3622.88 l -1.1,6.9 2.6,6.4 c 499.7,1214.5 96.8,2476.8 92.6,2489.3 0,0 107.5,-175.9 153.4,-472.4 75.1,-485.4 113.6,-1266.1 -198.2,-2028.9 120.4,-725.2 296.8,-3080.48 253.5,-3614.81 125.2,-101.06 185.3,-485.2 198.6,-791.3 16,-363.01 -25.6,-831.88 -193.4,-974.32 -209.7,-1921.43 -10.4,-2781.94 193.9,-3165.64 410.8,-771.23 -106,-1337.49 -214.5,-1443.99 132,-135.39 327.5,-438.1 224.7,-732.608 C 15769.7,386.017 15227,154.568 14286.3,70.2828 14097.9,53.4272 13924.4,44.9541 13766.1,44.9541" /></g><g
         transform="scale(1.06856)"
         id="g272"><path
           id="path274"
           style="fill:#44250c;fill-opacity:1;fill-rule:nonzero;stroke:none"
           d="m 16278.4,12271.3 -51.2,1.6 c 34.8,1129 -1104.7,2222.7 -1116.2,2233.7 0,0 219.8,-140 435.2,-417.9 334.4,-431.6 753.8,-1116.7 732.2,-1817.4" /></g><path
         id="path276"
         style="fill:#712703;fill-opacity:1;fill-rule:nonzero;stroke:none"
         d="m 14937.5,1388.4 c -114.5,267.5 -332.5,467.8 -736.3,174.1 -403.9,-293.6 -635.4,-564.598 -586.8,-720.098 60.7,-194.5 828.6,-401.601 1256,-164.699 305,168.996 67.1,710.697 67.1,710.697" /><path
         id="path278"
         style="fill:#963a15;fill-opacity:1;fill-rule:nonzero;stroke:none"
         d="m 13608.9,896.301 c 9,159.899 231.5,403.899 592.3,666.199 331.7,241.2 606.6,138.2 724.3,-143.6 -161.2,196.4 -397.9,238.2 -602.4,115.9 -254.3,-151.9 -545,-376.7 -714.2,-638.499" /><path
         id="path280"
         style="fill:#471400;fill-opacity:1;fill-rule:nonzero;stroke:none"
         d="m 14520.3,799.801 c 276.9,58.203 462,330.299 420.2,581.499 26.4,-63.7 214.5,-545.898 -70.1,-703.597 -427.4,-236.902 -1195.3,-29.801 -1256,164.699 -6.3,20.2 -7.7,42.5 -4.7,66.5 248.8,-126.101 574.1,-179.703 910.6,-109.101" /><path
         id="path282"
         style="fill:#2d0b00;fill-opacity:1;fill-rule:nonzero;stroke:none"
         d="m 14215.9,1542.2 c -399,-290.2 -620.3,-555.501 -577.6,-692.298 15.5,-49.5 94.7,-107.101 212,-154.101 281.6,-112.797 730.6,-149.899 1008,3.902 281.3,155.899 58.5,673.397 56.2,678.597 l -0.1,0.2 c -70.1,164 -162.3,262.7 -274.2,293.5 -33.8,9.4 -69.6,12.5 -107.3,9.3 -94.2,-7.8 -200.4,-54.3 -317,-139.1 z m -384.3,-893.001 c -135.1,54.102 -220.7,120 -241.2,185.703 -50.8,162.899 166.4,435.498 596,747.998 176.2,128.1 333.4,174.4 467.2,137.5 127.2,-35.1 230.5,-143.4 306.9,-322 10.8,-24.5 242.9,-564.896 -77.9,-742.697 -109.3,-60.5 -241.2,-93.601 -379.2,-105 -233.1,-19.301 -483.5,23.098 -671.8,98.496" /><path
         id="path284"
         style="fill:#44250c;fill-opacity:1;fill-rule:nonzero;stroke:none"
         d="m 14130.6,613.801 c -23.7,90.902 -8.6,181.601 45,269.601 254.5,417.798 1359.3,613.798 1359.3,613.798 -10.7,-2.3 -1070.1,-244.3 -1312.5,-642.298 -46.3,-75.902 -58.9,-150.199 -38.8,-227.3 l -53,-13.801" /><path
         id="path286"
         style="fill:#712703;fill-opacity:1;fill-rule:nonzero;stroke:none"
         d="m 15338,951.699 c -129.3,302.401 -375.7,528.601 -832,196.801 -456.2,-331.801 -717.8,-637.996 -663,-813.699 68.7,-219.699 936.3,-453.699 1419.2,-186.102 344.6,191.004 75.8,803 75.8,803" /><path
         id="path288"
         style="fill:#963a15;fill-opacity:1;fill-rule:nonzero;stroke:none"
         d="m 13836.9,395.703 c 10.1,180.699 261.6,456.399 669.2,752.797 374.7,272.5 685.4,156.1 818.4,-162.301 -182.2,222.001 -449.6,269.101 -680.7,131.001 -287.3,-171.696 -615.7,-425.7 -806.9,-721.497" /><path
         id="path290"
         style="fill:#471400;fill-opacity:1;fill-rule:nonzero;stroke:none"
         d="m 14866.7,286.699 c 312.8,65.703 521.9,373.203 474.7,657 29.9,-72 242.4,-616.797 -79.2,-795 -482.9,-267.597 -1350.5,-33.597 -1419.2,186.102 -7.1,22.902 -8.6,48.101 -5.3,75.199 281.2,-142.5 648.8,-203.098 1029,-123.301" /><path
         id="path292"
         style="fill:#2d0b00;fill-opacity:1;fill-rule:nonzero;stroke:none"
         d="m 14522.7,1125.5 c -450.8,-327.797 -700.9,-627.598 -652.6,-782.199 17.5,-55.899 107,-121 239.5,-174.102 318.2,-127.3982 825.5,-169.398219 1138.9,4.403 317.9,176.199 66.1,760.898 63.6,766.8 l -0.2,0.2 c -79.2,185.198 -183.4,296.798 -309.8,331.598 -38.2,10.6 -78.7,14 -121.3,10.5 -106.4,-8.8 -226.3,-61.3 -358.1,-157.2 z M 14088.5,116.602 c -152.6,61.101 -249.4,135.601 -272.6,209.699 -57.4,184.101 188.1,492.101 673.5,845.199 199.1,144.7 376.7,197.1 527.8,155.4 143.8,-39.7 260.5,-162.1 346.9,-363.896 12.1,-27.703 274.4,-638.203 -88.2,-839.102 -123.5,-68.3981 -272.4,-105.6989 -428.4,-118.60122 -263.3,-21.79688 -546.3,26.10152 -759,111.30122" /><path
         id="path294"
         style="fill:#000000;fill-opacity:1;fill-rule:nonzero;stroke:none"
         d="m 15882,8438.5 -52.8,14.6 c 45,162.6 253.1,150.6 253.1,150.6 -1.6,-0.3 -164.3,-35.3 -200.3,-165.2" /><g
         transform="scale(1.00953)"
         id="g296"><path
           id="path298"
           style="fill:#000000;fill-opacity:1;fill-rule:nonzero;stroke:none"
           d="m 15996.6,6858.06 42.3,33.88 c 71.2,-89.05 259.3,-73.7 261.1,-73.6 0,0 -191.9,-68.75 -303.4,39.72" /></g><g
         transform="scale(1.60899)"
         id="g300"><path
           id="path302"
           style="fill:#d09a4f;fill-opacity:1;fill-rule:nonzero;stroke:none"
           d="m 3979.82,14757.1 c 0,0 503.23,172.4 912.26,1016.5 255.08,526.4 1302.49,185.9 1091.06,-760.4 -244.85,-1095.9 -1464.01,-1120 -1541.49,-1102.7 -77.48,17.2 -461.83,846.6 -461.83,846.6" /></g><g
         transform="scale(1.59001)"
         id="g304"><path
           id="path306"
           style="fill:#edc39a;fill-opacity:1;fill-rule:nonzero;stroke:none"
           d="m 5066.6,16008.1 c 76.49,106.1 278.4,206 586.44,140.3 -325.85,151.6 -600.17,24.8 -702.54,-186.4 -413.92,-854.2 -923.15,-1028.7 -923.15,-1028.7 0,0 114.06,-33.8 121.54,-49.7 548.55,312.8 669.4,726.9 917.71,1124.5" /></g><g
         transform="scale(1.57521)"
         id="g308"><path
           id="path310"
           style="fill:#b77e39;fill-opacity:1;fill-rule:nonzero;stroke:none"
           d="m 5706.13,16300 c 483.91,-273.3 434.81,-772.4 203.19,-1212.6 -270.38,-513.8 -948.69,-700.2 -1438.55,-770.7 11.41,-13.4 59.14,-106.4 66.13,-107.9 79.14,-17.7 1324.44,6.9 1574.55,1126.3 111.49,499 -119.73,832.6 -405.32,964.9" /></g><g
         transform="scale(1.58887)"
         id="g312"><path
           id="path314"
           style="fill:#44250c;fill-opacity:1;fill-rule:nonzero;stroke:none"
           d="m 4053.6,14934.6 c 185.56,-399 401.9,-815.1 448.32,-831.2 119.75,-26.7 1303.33,43.5 1540.21,1103.7 115.21,515.7 -145.77,855.5 -455.53,963.6 -260.87,90.9 -514.55,6.7 -617.03,-204.8 -374.34,-772.5 -820.63,-991.9 -915.97,-1031.3 z m 440.57,-864.7 c -80.51,17.9 -387.42,668 -479.57,866.9 l -8.01,17.3 18.04,6.2 c 5.04,1.8 508.21,183.4 913.92,1020.6 110.39,227.8 381.65,319.1 659.39,222.3 324.17,-113.1 597.65,-467.2 477.81,-1003.6 C 5813.62,14026.3 4506.84,14067 4494.17,14069.9" /></g><g
         transform="scale(1.58616)"
         id="g316"><path
           id="path318"
           style="fill:#f99a9a;fill-opacity:1;fill-rule:nonzero;stroke:none"
           d="m 4354.48,14754.3 c 0,0 294.68,127.6 587.18,532 178.93,247.4 554.63,1013.7 833.5,365.6 332.06,-771.7 -758.46,-1337 -1229.19,-1346.9 -74.62,299.5 -191.49,449.3 -191.49,449.3" /></g><g
         transform="scale(1.58616)"
         id="g320"><path
           id="path322"
           style="fill:#e57676;fill-opacity:1;fill-rule:nonzero;stroke:none"
           d="m 5323.6,15631.4 c 122.71,190.5 332.29,212.2 455.04,11.9 -1.19,2.9 -2.24,5.7 -3.48,8.6 -278.86,648.1 -654.57,-118.2 -833.5,-365.6 -292.49,-404.4 -587.18,-532 -587.18,-532 0,0 116.87,-149.8 191.49,-449.3 7.32,0.1 -8.43,312.9 -0.82,313.3 431.11,175.7 584.28,711.7 778.45,1013.1" /></g><g
         transform="scale(1.551)"
         id="g324"><path
           id="path326"
           style="fill:#44250c;fill-opacity:1;fill-rule:nonzero;stroke:none"
           d="m 4479.84,15081.9 c 32.62,-47.8 120.38,-191.6 182.82,-434.5 319.89,13.7 907.71,270.1 1164.57,669.4 141.75,220.4 162.84,450.1 62.66,683 -67.99,158 -146.11,241.9 -231.79,248.8 -175.06,14.5 -362.13,-276.3 -498.72,-488.6 -33.27,-51.7 -64.71,-100.6 -91.4,-137.5 -258.57,-357.5 -515.81,-504.2 -588.14,-540.6 z m 155.48,-470.6 -3.41,13.7 c -74.36,298.5 -191.46,451.4 -192.63,452.9 l -13.96,18 20.87,9.1 c 2.97,1.3 300.82,134 593.2,538.2 26.12,36.1 55.86,82.4 90.32,135.9 141.43,219.8 335.13,520.9 531.3,504.6 101.53,-8.2 186.74,-96.7 261.29,-270 105.12,-244.3 83.12,-485.2 -65.39,-716 -266.96,-414.9 -883.2,-679.3 -1207.5,-686.1 l -14.09,-0.3" /></g><g
         transform="scale(1.64737)"
         id="g328"><path
           id="path330"
           style="fill:#d09a4f;fill-opacity:1;fill-rule:nonzero;stroke:none"
           d="m 1587.93,14466.7 c 0,0 -345.28,334.2 -355.73,1181.4 -6.51,528.3 -993.655,651.9 -1184.0149,-203 -220.4601,-990.1 767.1489,-1477.8 837.1399,-1493.4 69.984,-15.6 702.605,515 702.605,515" /></g><g
         transform="scale(1.62364)"
         id="g332"><path
           id="path334"
           style="fill:#edc39a;fill-opacity:1;fill-rule:nonzero;stroke:none"
           d="m 1172.78,15959.3 c -21.85,116.5 -148.94,276.1 -426.802,340.7 325.512,-1.1 501.612,-210.6 504.242,-423.2 10.59,-859.6 360.93,-1198.6 360.93,-1198.6 0,0 -106.52,16.2 -118.79,6 -329.32,467.6 -269.03,853.6 -319.58,1275.1" /></g><g
         transform="scale(1.62378)"
         id="g336"><path
           id="path338"
           style="fill:#b77e39;fill-opacity:1;fill-rule:nonzero;stroke:none"
           d="M 745.913,16298.6 C 248.73,16261.2 98.2973,15837 118.587,15391.3 c 23.686,-520.4 503.51,-930.4 874.466,-1174.4 -14.367,-6.5 -88.595,-63.9 -94.865,-62.5 -71.007,15.9 -1072.966,510.6 -849.3028,1515.1 99.7018,447.8 414.6358,630.5 697.0278,629.1" /></g><g
         transform="scale(1.6281)"
         id="g340"><path
           id="path342"
           style="fill:#44250c;fill-opacity:1;fill-rule:nonzero;stroke:none"
           d="m 1231.24,15833.2 c -2.61,212.1 -177.56,378.2 -425.592,403.9 -294.506,30.5 -638.056,-147 -741.7169,-612.5 -213.1061,-957 726.9569,-1468.4 835.0349,-1492.5 44.081,-4.6 380.434,252.3 685.064,507.1 -62.76,68.8 -343.24,419.3 -352.79,1194 z M 33.5827,15631.4 c 107.8063,484.2 467.0723,668.6 775.2713,636.6 264.046,-27.4 450.656,-206.1 453.486,-434.5 10.35,-839.6 351.77,-1181 355.23,-1184.3 l 12.35,-12.1 -13.19,-11 c -151.54,-127.1 -651.645,-540.6 -724.312,-524.4 -11.425,2.6 -1094.684,470.5 -858.8353,1529.7" /></g><g
         transform="scale(1.62628)"
         id="g344"><path
           id="path346"
           style="fill:#f99a9a;fill-opacity:1;fill-rule:nonzero;stroke:none"
           d="m 1266.88,14600.2 c 0,0 -191.68,217.2 -275.501,659.5 -51.284,270.6 -64.307,1040.3 -540.446,618 -566.926,-502.8 106.812,-1382.4 487.356,-1571 175.751,216 328.591,293.5 328.591,293.5" /></g><g
         transform="scale(1.62628)"
         id="g348"><path
           id="path350"
           style="fill:#e57676;fill-opacity:1;fill-rule:nonzero;stroke:none"
           d="m 811.79,15687.9 c -27.178,202.6 -189.985,300.6 -366.994,184.1 2.085,1.9 4.023,3.8 6.144,5.7 476.132,422.3 489.155,-347.4 540.439,-618 83.821,-442.3 275.501,-659.5 275.501,-659.5 0,0 -152.84,-77.5 -328.591,-293.5 -5.904,3 126.831,252.3 120.781,255.6 -284.678,308.6 -204.28,805 -247.28,1125.6" /></g><g
         transform="scale(1.60019)"
         id="g352"><path
           id="path354"
           style="fill:#44250c;fill-opacity:1;fill-rule:nonzero;stroke:none"
           d="m 992.008,15505.6 c -7.611,40.1 -14.502,91.7 -21.801,146.4 -29.955,224.3 -70.993,531.5 -218.576,586.4 -72.128,27.1 -167.5,-11.3 -282.845,-113.6 -169.983,-150.8 -240.409,-345.2 -209.319,-578 56.336,-421.9 435.62,-853.9 689.966,-986.9 143.217,173.4 269.197,256.6 313.887,283 -44.84,57.1 -197.69,274.1 -271.312,662.7 z m -45.436,-979.7 c -260.551,129 -659.918,578.3 -718.464,1016.7 -32.574,243.8 41.336,447.7 219.682,605.9 126.518,112.2 229.343,151.5 314.885,119.5 165.378,-61.5 207.868,-379.6 238.895,-611.8 7.56,-56.6 14.07,-105.5 21.51,-144.7 83.27,-439.4 274.41,-660.5 276.32,-662.7 l 13.47,-15.3 -18.15,-9.3 c -1.53,-0.8 -154.82,-80.3 -328.859,-294.1 l -7.972,-9.8 -11.317,5.6" /></g><g
         transform="scale(1.52103)"
         id="g356"><path
           id="path358"
           style="fill:#d09a4f;fill-opacity:1;fill-rule:nonzero;stroke:none"
           d="m 2640.87,15739.3 c 0,0 -1521.93,560.7 -2004.116,-388.8 -482.179,-949.5 -91.096,-1675.8 -91.096,-1675.8 -201.829,-188.5 -759.137,-703.4 -127.573,-1729.2 -82.31,-424.1 -319.7447,-1213.1 991.785,-1284.4 -5.31,-134 -61.81,-828.13 760.58,-778.04 822.38,50.1 1422.39,260.44 1498.47,1042.44 76.08,781.9 768.07,775.3 1116.06,1201.3 295.88,362.3 810.36,1318.8 199.25,1885.3 31.44,251.1 86.51,1309.2 -417.67,1654.1 -613.18,419.5 -1925.69,73.1 -1925.69,73.1" /></g><g
         transform="scale(1.43455)"
         id="g360"><path
           id="path362"
           style="fill:#000000;fill-opacity:1;fill-rule:nonzero;stroke:none"
           d="m 4143.38,16109.3 c 0,0 89.38,190.7 237.88,153.6 309.47,-77.2 546.7,-458 546.7,-458 -153.33,118.7 -535.53,310.3 -784.58,304.4" /></g><g
         transform="scale(1.44963)"
         id="g364"><path
           id="path366"
           style="fill:#000000;fill-opacity:1;fill-rule:nonzero;stroke:none"
           d="m 1200.51,16114.7 c 0,0 -93.82,185.3 -208.858,151.1 -239.737,-71.4 -386.396,-437 -386.396,-437 109.497,113.2 394.467,294.3 595.254,285.9" /></g><g
         transform="scale(1.48353)"
         id="g368"><path
           id="path370"
           style="fill:#edc39a;fill-opacity:1;fill-rule:nonzero;stroke:none"
           d="m 747.548,14016.1 c -331.533,540.8 -332.028,1057.2 -138.17,1514.7 140.272,331 634.212,688.1 989.592,769.2 -479.52,-44.4 -792.483,-259 -946.123,-561.5 -494.365,-973.5 -93.398,-1718.2 -93.398,-1718.2 -206.93,-193.3 -778.323,-721.1 -130.798,-1772.9 -30.143,-155.3 -90.293,-464.3 -54.739,-690.3 18.708,253.4 62.939,515.2 130.111,689.3 -122.367,256.4 -265.364,654.6 -253.115,942.5 16.971,398.8 180.284,595.4 496.64,827.2" /></g><g
         transform="scale(1.21561)"
         id="g372"><path
           id="path374"
           style="fill:#b77e39;fill-opacity:1;fill-rule:nonzero;stroke:none"
           d="m 4032.16,16009 c -81.85,49.8 -110.48,66.2 -291.03,291 116.72,-287.3 -215.43,-354.3 -244.95,-763.7 -26.08,-361.6 19.76,-1134.1 -363.65,-1493.1 -420.92,-394.2 -1401.14,-400.8 -1674.32,29.3 103.08,-482.9 -797.422,-434.8 -1022.556,145.9 59.014,-653.3 718.036,-823.5 1176.646,-867.4 151.79,-11.4 342.9,0.8 433.56,111.3 459.58,-84.2 927.97,-103.9 1284.83,225.8 621.05,573.7 314.45,1590.8 465.16,1857 95.61,275.7 148.69,409.5 236.31,463.9" /></g><g
         transform="scale(1.48606)"
         id="g376"><path
           id="path378"
           style="fill:#b77e39;fill-opacity:1;fill-rule:nonzero;stroke:none"
           d="m 5101.51,14341.8 c 32.18,257 88.55,1340 -427.5,1693 -387.6,265.2 -1047.94,231.3 -1496.51,166.7 523.02,-27.7 1212.96,19.3 1519.03,-366.7 295.37,-367.8 363.68,-1100.1 255.88,-1428.3 -35.96,8 -93.28,27.2 -129.24,35.2 386.03,-237.5 439.71,-673.7 373.51,-1026.9 -118.92,-533.1 -585.23,-1143.2 -1069.08,-1239.7 8.02,35.9 138.67,226.9 165.08,265.2 -902.6,-892.7 -594.76,-1345.7 -969.01,-1782.6 -183.09,-207.6 -1584.71,-788.24 -1882.44,111.7 41.79,-474.9 317.19,-682 780.29,-653.8 841.74,51.3 1455.86,266.6 1533.74,1066.9 77.87,800.3 786.13,793.7 1142.31,1229.7 302.85,370.7 829.43,1349.8 203.94,1929.6" /></g><g
         transform="scale(1.51942)"
         id="g380"><path
           id="path382"
           style="fill:#44250c;fill-opacity:1;fill-rule:nonzero;stroke:none"
           d="m 1430.06,10689.4 -1.29,-31.3 c -4.44,-97.9 -17.93,-396.1 172.7,-583.7 125.41,-123.5 317.2,-178.26 570.18,-162.92 722.72,44.03 1402.63,198.92 1483.24,1027.22 49.96,513.7 363.74,695.3 667.17,871 163.36,94.5 332.25,192.3 454.03,341.4 264.94,324.3 817.56,1291.2 201.17,1862.6 l -6.77,6.3 1.15,9.1 c 43.53,348 54.65,1320.7 -410.42,1638.8 -600.18,410.6 -1899.92,74.1 -1912.94,70.6 l -5.5,-1.4 -5.33,1.9 c -15.06,5.5 -1514.09,544.8 -1983.955,-380.4 -472.96,-931.3 -95.264,-1653.7 -91.408,-1660.9 l 6.592,-12.3 -10.147,-9.4 c -205.846,-192.3 -746.967,-697.6 -124.667,-1708.4 l 3.676,-6 -1.324,-6.9 c -4.489,-23.1 -9.44,-47.3 -14.569,-72.4 -51.544,-252.2 -122.125,-597.5 73.018,-850.3 156.001,-202.1 464.707,-317 917.674,-341.6 z m 442.37,-794.24 c -120.59,26.85 -219.69,78.12 -296.24,153.54 -199.24,196.1 -188.38,500.5 -183.61,606.7 -454.229,27.3 -765.814,146.6 -926.438,354.6 -205.218,265.8 -132.722,620.5 -79.8,879.5 4.607,22.5 9.052,44.3 13.163,65.2 -624.293,1019.5 -90.027,1537.7 124.644,1738.4 -48.454,101.4 -349.825,801.5 97.228,1681.8 469.773,925.1 1922.313,435.3 2023.103,399.9 105.19,27.1 1337.26,333.2 1937.07,-77.1 552.26,-377.8 439.57,-1547.8 426.89,-1663.8 626.03,-591 65.48,-1575.2 -204.45,-1905.6 -125.93,-154.2 -297.74,-253.6 -463.88,-349.8 -309.17,-178.9 -601.2,-348 -649.38,-843.3 -83.43,-857.4 -813.61,-1016.81 -1516.9,-1059.66 -111.86,-6.84 -212.48,-0.26 -301.4,19.62" /></g><g
         transform="scale(1.16151)"
         id="g384"><path
           id="path386"
           style="fill:#3e0000;fill-opacity:1;fill-rule:nonzero;stroke:none"
           d="m 4135.8,14898.9 c 6.45,364.5 -95.72,1025.2 -159.92,1401.1 -46.24,-149.3 -76.76,-322.9 -63.02,-506.3 38.71,-516.6 6.37,-1944.5 -1558.01,-1748.2 18.68,-289.3 -195.31,-612 498.01,-622.9 957.52,-14.9 1273.58,947.3 1282.94,1476.3" /></g><g
         transform="scale(1.00454)"
         id="g388"><path
           id="path390"
           style="fill:#f99a9a;fill-opacity:1;fill-rule:nonzero;stroke:none"
           d="m 3298.65,15520 c 441.07,6.3 643.67,77.2 987.37,400.9 -213.22,379.1 -1395.75,275.9 -1582.82,-28.2 -14.97,-316 247.28,-377.6 595.45,-372.7" /></g><path
         id="path392"
         style="fill:#e57676;fill-opacity:1;fill-rule:nonzero;stroke:none"
         d="m 3102.14,16148.8 c -160.28,6.8 -344.04,-114.7 -386.67,-184 -7.71,-162.7 58.1,-258 170.87,-311.8 -69.76,55.4 -130.43,363.4 215.8,495.8" /><path
         id="path394"
         style="fill:#e57676;fill-opacity:1;fill-rule:nonzero;stroke:none"
         d="m 4305.48,15993.2 c -50.56,89.9 -155.73,152.5 -288.84,192.1 133.4,-129.4 -56.09,-444.6 -348.8,-564.5 228.57,44.6 399.39,148 637.64,372.4" /><path
         id="path396"
         style="fill:#a30000;fill-opacity:1;fill-rule:nonzero;stroke:none"
         d="m 2742.51,15956.3 c -3.23,-95.3 20.01,-167.3 70.95,-219.9 82.93,-85.7 237,-122.3 499.78,-118.5 l 0.38,-27.4 -0.38,27.4 c 444.46,6.3 636.61,81.4 957.13,379.9 -88.08,127.9 -322.06,207.1 -633.39,213.2 -396.92,7.7 -794.69,-106.1 -894.47,-254.7 z m 250.51,-367.9 c -97.65,21.8 -168.55,57.9 -218.89,109.9 -62.42,64.5 -91.37,154.6 -86,267.8 l 0.32,7 3.7,6.1 c 120.43,195.7 577.23,293.7 945.89,286.5 350.48,-6.7 602.52,-101.2 691.31,-259.1 l 10.49,-18.6 -15.57,-14.7 c -338.94,-319.2 -546.65,-403.5 -1010.26,-410.2 v 0 c -130.11,-1.8 -235.74,6.3 -320.99,25.3" /><g
         transform="scale(1.16871)"
         id="g398"><path
           id="path400"
           style="fill:#44250c;fill-opacity:1;fill-rule:nonzero;stroke:none"
           d="m 2364.86,13932.4 c 0.95,-52.3 -4.3,-104.9 -9.41,-155.9 -11.44,-114.8 -22.28,-223.2 43.47,-296.9 66.52,-74.7 209.3,-112.7 436.73,-116.2 1005.21,-15.8 1244.06,1037.2 1251.26,1444.1 v 0 c 5.83,329.6 -78.97,908.3 -140.99,1283.3 -31.91,-134.8 -43.27,-266.5 -33.81,-392.7 28.08,-375.1 11.43,-1065 -415.72,-1471.3 -264.07,-251.2 -644.68,-350.1 -1131.53,-294.4 z m 207.39,-589.7 c -96.2,21.3 -164.23,56.3 -208.29,105.7 -79.42,89.1 -67.61,207.4 -55.11,332.7 5.82,58.3 11.84,118.7 8.12,176.3 l -1.83,28.4 28.11,-3.6 c 485.4,-61 862.51,32.8 1120.86,278.6 428.6,407.6 423.4,1138.5 401.29,1433.8 -12.26,163.8 9.14,336 63.61,511.9 l 28.96,93.5 16.51,-96.5 c 62.25,-364.6 165.72,-1030.8 159.24,-1396.8 v 0 c -10.72,-606.9 -365.48,-1504.8 -1298.81,-1490.2 -104.21,1.7 -191.21,10.2 -262.66,26.2" /></g><g
         transform="scale(1.19736)"
         id="g402"><path
           id="path404"
           style="fill:#44250c;fill-opacity:1;fill-rule:nonzero;stroke:none"
           d="m 1442.02,13549.4 c -27.2,6 -54.93,13.2 -83.21,21.5 l 12.86,43.9 c 352.53,-103.5 631.43,-15.9 675.87,58 l 8.33,13.8 15.83,-3.2 c 561.11,-115 992.39,-44.2 1281.86,210.5 445.5,392.1 441.68,1127.3 419.35,1425.2 -39.46,526.5 294.57,976.4 297.95,980.9 l 36.51,-27.5 c -3.26,-4.3 -327,-441 -288.86,-950 22.82,-304.7 26.17,-1057.3 -434.73,-1462.9 -298.32,-262.5 -737.96,-337.8 -1306.94,-223.9 -67.33,-78.7 -310.14,-158.7 -634.82,-86.3" /></g><g
         transform="scale(1.14586)"
         id="g406"><path
           id="path408"
           style="fill:#44250c;fill-opacity:1;fill-rule:nonzero;stroke:none"
           d="m 2227.11,14234.3 c -261.16,58.3 -618.79,386.3 -772.08,960.2 -141.29,528.9 58.18,1100.2 60.76,1105.5 l 43.03,-20.7 c -2.49,-5.2 -194.26,-561 -57.65,-1072.5 159.17,-596 535.16,-928 800.6,-933.5 l -0.95,-47.8 c -24.84,0.5 -49.44,3.4 -73.71,8.8" /></g><g
         transform="scale(1.60566)"
         id="g410"><path
           id="path412"
           style="fill:#632311;fill-opacity:1;fill-rule:nonzero;stroke:none"
           d="m 3556.45,15279.9 c 0,0 293.69,429.3 238.36,598.8 -132.54,-46.1 -365.07,-279.5 -365.07,-279.5 0.76,186.1 16.28,611.3 -535.81,651.5 86.35,-102.2 194.57,-318.5 124.14,-529.8 -87.62,246.6 -257.23,579.1 -925.68,479.3 222.71,-97.7 340.35,-291.3 326.7,-404.7 -174.26,184.4 -503.88,302 -794.25,89.9 158.97,-31.1 264.77,-136.2 358.68,-269.5 -236.29,134.7 -516.86,147.6 -771.95,-174 102.3,-11.1 490.9,-17.6 490.9,-17.6 -150.81,-128.1 -447.42,-335.5 -318.37,-800.9 118.51,218 248.63,331.7 302.89,366.1 -71.32,-141.6 -195.04,-378.5 44.45,-688.1 79.05,197.8 363.26,525.9 519.9,653.9 10.2,-156.5 19.91,-253.3 -113.61,-476.7 273.93,89.5 468.04,261.6 559.16,438.5 72.05,-169.6 -23.4,-379 -131.6,-609.6 206.54,84.2 572.79,345.9 667.31,603.6 96.47,-145.3 117.91,-295.5 117.91,-295.5 175.26,151.5 266.05,325.3 296.37,391.1 48.67,-115.1 61.49,-115.8 61.49,-115.8 101.45,190.6 47.51,359.8 -151.92,389" /></g><g
         transform="scale(1.60566)"
         id="g414"><path
           id="path416"
           style="fill:#7a3d2e;fill-opacity:1;fill-rule:nonzero;stroke:none"
           d="m 1917.83,15445.9 c -179.21,77.4 -384.52,57.4 -534.22,51.8 218.32,195.8 533.04,119.1 736.27,-66 -22.01,214.5 -133.81,300.6 -277.91,437.5 251.79,130.5 407.73,-142.6 633.22,-227.8 77.81,192.2 18.62,370.6 -92.21,500.1 314.57,-60.4 568.19,-264.5 610.74,-615.8 150.76,297.5 142.52,558.1 -40.48,718.7 -19.08,2.6 -38.68,4.8 -59.32,6.3 86.35,-102.3 194.58,-318.5 124.16,-529.8 -87.63,246.6 -257.24,579.1 -925.69,479.3 222.71,-97.7 340.35,-291.3 326.7,-404.7 -174.26,184.4 -503.88,302 -794.25,89.9 158.97,-31.1 264.77,-136.2 358.68,-269.5 -236.29,134.7 -516.86,147.5 -771.95,-174 102.3,-11.1 490.9,-17.6 490.9,-17.6 -29.96,-25.4 -187.49,-146.3 -239.98,-266.7 77.64,82.6 361.3,278.7 455.34,288.3" /></g><g
         transform="scale(1.59666)"
         id="g418"><path
           id="path420"
           style="fill:#4c170b;fill-opacity:1;fill-rule:nonzero;stroke:none"
           d="m 3576.5,15366 c 0,0 295.35,431.8 239.71,602.2 -133.3,-46.3 -367.13,-281.1 -367.13,-281.1 0.65,159.2 11.79,491.9 -325.95,612.9 229.78,-178.8 294.62,-528 232.11,-808.3 48.39,59.5 122.77,78 171.16,137.5 -3.85,-174.8 -85.7,-226.8 -15.17,-383 85.45,-89.3 -44.79,-200.8 -74.64,-334.7 -3.61,141.4 -79.39,313.4 -157.39,436.2 -26.25,-275.2 -207.08,-495.4 -385.71,-666.3 44.78,200.8 53.28,448.9 -76.71,653.5 -119.17,-219.3 -194.59,-452.5 -425.22,-541.5 37.33,167.3 48.64,375.5 -21.89,531.8 -167.55,-278.8 -546.96,-404.9 -655.05,-732.1 -55.61,223.2 63.56,442.5 175.26,628.3 -290.18,-29.8 -417.24,-254.9 -502.27,-498.7 1.47,-5.6 2.71,-11.1 4.3,-16.9 119.17,219.3 250.02,333.6 304.59,368.2 -71.73,-142.4 -196.14,-380.7 44.7,-692 79.49,198.9 365.31,528.8 522.83,657.6 10.26,-157.4 20.02,-254.7 -114.25,-479.4 275.47,90 470.68,263.1 562.31,441 72.46,-170.6 -23.53,-381.2 -132.34,-613 207.7,84.6 576.02,347.8 671.08,607 97.01,-146.2 118.57,-297.2 118.57,-297.2 176.25,152.4 267.55,327.2 298.03,393.3 48.96,-115.7 61.84,-116.5 61.84,-116.5 102.03,191.7 47.78,361.8 -152.77,391.2" /></g><g
         transform="scale(1.60643)"
         id="g422"><path
           id="path424"
           style="fill:#000000;fill-opacity:1;fill-rule:nonzero;stroke:none"
           d="m 1729.19,15029.8 -30.1,-59.7 c -67.47,-133.9 -179.15,-355.5 27.53,-641.8 95.41,207.2 365.35,512.5 512.86,633.1 l 25.63,20.9 2.82,-43.3 c 9.39,-143 15.8,-240.5 -93.49,-436.1 227.37,84.5 414.6,237.3 506.01,414.8 l 16.64,32.3 14.2,-33.4 c 71.53,-168.4 -16.92,-377 -112.54,-582.1 213.55,100.6 531.58,344.3 616.31,575.3 l 11.58,31.6 18.6,-28 c 72.59,-109.4 103.42,-220.2 114.8,-272.2 157.07,143.5 240.36,302 269.62,365.4 l 16.14,35 15.03,-35.5 c 20.5,-48.4 34.15,-75.4 42.73,-90.4 41.92,89.7 47.7,172.5 15.92,235.4 -28.59,56.6 -86.35,92.6 -167.2,104.6 l -27.01,3.9 15.4,22.6 c 2.79,4.1 268.49,395.1 240.39,565.9 -129.59,-57.2 -338.7,-266.2 -340.89,-268.4 l -29.28,-29.4 0.25,54.8 c 1.04,184.4 2.91,563 -480.98,617.2 78.94,-109.1 170.03,-312.1 102.64,-514.3 l -15.65,-47 -16.57,46.6 c -97.63,274.7 -275.79,543.6 -851.11,475.5 194.6,-105 299.28,-281.6 285.39,-397.2 l -4.36,-36 -24.94,26.4 c -168.9,178.7 -468.36,284.2 -740.24,109.1 156.12,-43.9 254.75,-158.7 331.2,-267.2 l 43.97,-62.4 -66.35,37.8 c -188.41,107.4 -465.87,167.1 -729.5,-144.8 131.94,-9.3 453.75,-14.8 457.3,-14.8 l 45.21,-0.8 -34.46,-29.2 c -9.7,-8.3 -20,-16.8 -30.73,-25.8 -154.04,-128.1 -384.23,-319.5 -292.52,-716.3 135.53,233.8 271.8,324.8 287.61,334.8 z m 6.17,-769.2 -18.22,23.5 c -211.45,273.3 -147.12,491.9 -78.79,639.4 -57.59,-51.1 -149.85,-149.5 -239.93,-315.3 l -20.13,-37 -11.28,40.6 c -122.5,441.8 132.39,658.9 288.72,788.9 -106.12,2.1 -364.63,8 -446.59,16.9 l -30.67,3.3 19.18,24.2 c 255.51,322.1 526.57,303.6 727.55,211.9 -72.83,91.7 -167.28,177.8 -304.41,204 l -38.25,7.5 31.46,23 c 269.05,196.5 590.81,119.5 786.27,-62.1 -14.12,103.8 -117.91,260.7 -315.72,347.5 l -54.1,23.7 58.42,8.7 c 607.53,90.7 815.03,-162.3 925.01,-440.1 38.44,192.3 -62.86,378 -134.36,462.7 l -26.13,30.9 40.38,-2.9 c 528.96,-38.6 551.52,-431.5 551.54,-627.6 67.29,64.5 234.31,217.4 342.08,254.9 l 16.41,5.7 5.38,-16.5 c 50.57,-154.9 -166.09,-500.7 -225.88,-591.7 0.48,-0.1 0.92,-0.2 1.37,-0.3 78.03,-17.4 134.84,-57.8 165.23,-117.9 39.72,-78.6 29.69,-181.9 -28.27,-290.8 l -5.13,-9.6 -10.92,0.6 c -8.34,0.5 -20.57,1.3 -61.32,92.1 -41.94,-82.2 -131.7,-231.2 -284.22,-363.1 l -23.57,-20.4 -4.44,30.9 c -0.19,1.3 -19.37,129.5 -97.7,260.6 -110.93,-248.5 -450.17,-494.8 -663.82,-581.9 l -40.4,-16.5 18.54,39.5 c 96.55,205.8 188.11,400.9 143.47,560.5 -107.23,-181.6 -309.87,-334.4 -550.14,-413 l -43.26,-14.1 23.35,39.1 c 121.04,202.5 122.05,295.1 113.38,432.9 -157.27,-138.1 -415.34,-440.7 -489.02,-625.1 l -11.07,-27.6" /></g><g
         transform="scale(1.21561)"
         id="g426"><path
           id="path428"
           style="fill:#44250c;fill-opacity:1;fill-rule:nonzero;stroke:none"
           d="m 4128.84,15953.8 c -7.72,2.5 -15.34,5.1 -22.86,7.8 -98.24,35.5 -178.57,87.1 -240.95,138.4 -107.05,87.9 -123.9,200 -123.9,200 2.11,-3.4 215.16,-343.4 636.33,-338.7 0,0 -119.96,-49.4 -248.62,-7.5" /></g><g
         transform="scale(1.31664)"
         id="g430"><path
           id="path432"
           style="fill:#44250c;fill-opacity:1;fill-rule:nonzero;stroke:none"
           d="m 5838.93,16071.8 c -65.39,120.9 -391.86,227.1 -395.14,228.2 0,0 295.83,-19.9 430.93,-208.6 l -35.79,-19.6" /></g><g
         transform="scale(1.13418)"
         id="g434"><path
           id="path436"
           style="fill:#44250c;fill-opacity:1;fill-rule:nonzero;stroke:none"
           d="m 5022.02,15000.8 -46.95,11.2 c 52.72,221.5 170.82,492.5 289.06,730.6 158.09,318.3 360.37,557.4 360.37,557.4 -4.82,-7.8 -481.06,-789.1 -602.48,-1299.2" /></g><g
         transform="scale(1.4176)"
         id="g438"><path
           id="path440"
           style="fill:#b77e39;fill-opacity:1;fill-rule:nonzero;stroke:none"
           d="m 970.866,16281 c -295.779,19 -551.986,-348.5 -601.379,-820.1 -49.39,-471.6 150.358,-869.4 446.138,-888.4 295.785,-19 575.595,347.9 624.995,819.5 49.38,471.6 -173.97,869.9 -469.754,889" /></g><g
         transform="scale(1.39696)"
         id="g442"><path
           id="path444"
           style="fill:#000000;fill-opacity:1;fill-rule:nonzero;stroke:none"
           d="m 963.419,16278.4 c -281.353,21.6 -541.043,-294.5 -580.037,-705.9 -38.988,-411.5 157.493,-762.5 438.846,-784 281.362,-21.6 541.042,294.4 580.042,705.9 38.99,411.4 -157.49,762.5 -438.851,784" /></g><g
         transform="scale(1.39192)"
         id="g446"><path
           id="path448"
           style="fill:#ffffff;fill-opacity:1;fill-rule:nonzero;stroke:none"
           d="m 961.393,16279.2 c -271.374,20.8 -521.86,-284.1 -559.463,-680.9 -37.611,-396.9 151.895,-735.4 423.278,-756.2 271.382,-20.8 521.862,284 559.472,680.9 37.61,396.8 -151.9,735.4 -423.287,756.2" /></g><g
         transform="scale(1.332)"
         id="g450"><path
           id="path452"
           style="fill:#d4d9e0;fill-opacity:1;fill-rule:nonzero;stroke:none"
           d="m 420.011,16300 c -39.303,-414.7 158.729,-768.5 442.32,-790.3 283.589,-21.7 545.339,296.9 584.639,711.6 -112.66,-366.6 -861.658,-314.4 -1026.959,78.7" /></g><g
         transform="scale(1.39366)"
         id="g454"><path
           id="path456"
           style="fill:#000000;fill-opacity:1;fill-rule:nonzero;stroke:none"
           d="m 958.701,16239.3 c -260.003,19.9 -501.244,-277.2 -537.726,-662.3 -22.011,-232.3 35.44,-454.7 153.648,-595.1 70.425,-83.6 157.3,-131.6 251.068,-138.8 259.979,-19.9 501.209,277.2 537.719,662.3 22,232.2 -35.45,454.7 -153.66,595.1 -70.44,83.6 -157.32,131.7 -251.049,138.8 z M 771.604,14811.5 c -84.756,18.9 -162.444,68.4 -227.028,145.1 -124.856,148.3 -185.687,381.5 -162.707,624 38.501,406.4 298.613,719.4 579.831,697.9 v 0 c 104.59,-8.1 200.76,-60.9 278.1,-152.7 124.86,-148.3 185.69,-381.6 162.71,-624.1 -38.52,-406.3 -298.62,-719.3 -579.827,-697.8 -17.263,1.4 -34.304,3.9 -51.079,7.6" /></g><g
         transform="scale(1.3635)"
         id="g458"><path
           id="path460"
           style="fill:#542416;fill-opacity:1;fill-rule:nonzero;stroke:none"
           d="m 984.489,16287.6 c -174.757,12.4 -335.485,-173.1 -358.859,-414.3 -23.332,-241.1 99.431,-446.7 274.268,-459.1 174.772,-12.3 335.472,173.2 358.902,414.3 23.3,241.2 -99.46,446.7 -274.311,459.1" /></g><g
         transform="scale(1.32677)"
         id="g462"><path
           id="path464"
           style="fill:#a74f45;fill-opacity:1;fill-rule:nonzero;stroke:none"
           d="m 1030.63,16105.8 c -157.521,-3 -305.214,57.8 -386.226,194.2 -19.997,-241.8 103.83,-446.4 279.716,-458.9 169.25,-11.9 325.26,158.4 360.64,386.4 -73.68,-61.5 -154.41,-108.9 -254.13,-121.7" /></g><g
         transform="scale(1.36524)"
         id="g466"><path
           id="path468"
           style="fill:#261005;fill-opacity:1;fill-rule:nonzero;stroke:none"
           d="m 981.822,16246.9 c -163.584,11.6 -314.771,-165.9 -337.031,-395.7 -13.005,-134.3 21.462,-264.4 92.185,-348.1 45.319,-53.5 101.734,-84.3 163.196,-88.5 163.528,-11.5 314.738,166 337.088,395.7 12.95,134.3 -21.52,264.4 -92.25,348.1 -45.32,53.5 -101.78,84.2 -163.188,88.5 z M 859.98,15380.1 c -57.797,12.8 -110.331,46 -153.61,97.2 -77.571,91.7 -115.511,232.9 -101.482,377.7 24.34,251.3 194.709,445 379.761,431.9 v 0 c 72.551,-5.1 138.551,-40.6 190.971,-102.6 77.57,-91.8 115.52,-233 101.53,-377.9 -24.41,-251.1 -194.78,-444.8 -379.811,-431.8 -12.658,0.9 -25.124,2.7 -37.359,5.5" /></g><g
         transform="scale(1.34652)"
         id="g470"><path
           id="path472"
           style="fill:#000000;fill-opacity:1;fill-rule:nonzero;stroke:none"
           d="m 976.657,16292.7 c -103.124,7.3 -198.541,-108.2 -213.098,-258.1 -14.511,-149.8 57.364,-277.1 160.48,-284.4 103.151,-7.4 198.531,108.2 213.031,258 14.59,149.8 -57.3,277.2 -160.413,284.5" /></g><g
         transform="scale(1.34823)"
         id="g474"><path
           id="path476"
           style="fill:#ffffff;fill-opacity:1;fill-rule:nonzero;stroke:none"
           d="m 912.079,16297.8 c -60.11,-2.1 -109.663,-57 -110.715,-122.6 -0.944,-65.5 46.934,-116.9 107.021,-114.8 60.152,2.2 109.695,57.1 110.705,122.6 1.05,65.7 -46.897,117 -107.011,114.8" /></g><g
         transform="scale(1.3126)"
         id="g478"><path
           id="path480"
           style="fill:#ffffff;fill-opacity:1;fill-rule:nonzero;stroke:none"
           d="m 1056.9,16299.3 c -18.94,-0.6 -34.58,-17.9 -34.9,-38.6 -0.32,-20.7 14.78,-36.9 33.74,-36.2 18.96,0.7 34.59,18 34.92,38.7 0.27,20.6 -14.79,36.8 -33.76,36.1" /></g><g
         transform="scale(1.40142)"
         id="g482"><path
           id="path484"
           style="fill:#b77e39;fill-opacity:1;fill-rule:nonzero;stroke:none"
           d="m 4426.64,16274.5 c -341.99,25.5 -631.89,-369 -681.17,-879.8 -49.27,-510.9 188.02,-945.7 530.01,-971.2 341.99,-25.5 659.17,367.9 708.46,878.8 49.27,510.8 -215.31,946.7 -557.3,972.2" /></g><g
         transform="scale(1.37928)"
         id="g486"><path
           id="path488"
           style="fill:#000000;fill-opacity:1;fill-rule:nonzero;stroke:none"
           d="m 4476.49,16271.9 c -325.78,28.1 -620.92,-310.9 -659.23,-757.2 -38.3,-446.3 194.75,-830.9 520.52,-859 325.77,-28 620.92,311 659.23,757.3 38.29,446.3 -194.75,830.8 -520.52,858.9" /></g><g
         transform="scale(1.37386)"
         id="g490"><path
           id="path492"
           style="fill:#ffffff;fill-opacity:1;fill-rule:nonzero;stroke:none"
           d="m 4488.72,16272.9 c -314.32,27.1 -599.1,-300 -636.06,-730.6 -36.95,-430.7 187.91,-801.7 502.23,-828.8 314.33,-27.1 599.09,300.1 636.05,730.7 36.96,430.6 -187.9,801.6 -502.22,828.7" /></g><g
         transform="scale(1.31)"
         id="g494"><path
           id="path496"
           style="fill:#d4d9e0;fill-opacity:1;fill-rule:nonzero;stroke:none"
           d="m 4040.5,16300 c -38.76,-451.6 197.06,-840.7 526.71,-869.1 329.65,-28.4 628.3,314.6 667.05,766.2 -124.73,-397.8 -995.3,-328.5 -1193.76,102.9" /></g><g
         transform="scale(1.37441)"
         id="g498"><path
           id="path500"
           style="fill:#000000;fill-opacity:1;fill-rule:nonzero;stroke:none"
           d="m 4485.24,16246.7 c -145.45,12.5 -289.34,-53.9 -405.14,-186.9 -117.33,-134.8 -191.59,-321.4 -209.09,-525.4 -35.96,-418.8 181,-780.6 483.87,-806.8 145.45,-12.6 289.32,53.8 405.13,186.8 117.33,134.8 191.61,321.4 209.12,525.4 35.93,418.8 -181.04,780.8 -483.89,806.9 z m -191.87,-1549.9 c -293.9,65.6 -497.59,427.1 -462.05,841 18.21,212.4 95.9,407.1 218.73,548.2 124.38,142.8 280.15,214 438.62,200.4 v 0 c 324.67,-28 557.95,-409.3 520.15,-850 -18.24,-212.4 -95.93,-407 -218.75,-548.1 -124.38,-142.9 -280.15,-214.1 -438.62,-200.4 -19.68,1.7 -39.1,4.7 -58.08,8.9" /></g><g
         transform="scale(1.34325)"
         id="g502"><path
           id="path504"
           style="fill:#542416;fill-opacity:1;fill-rule:nonzero;stroke:none"
           d="m 4600.05,16283.7 c -202.77,16.3 -386.03,-183 -409.12,-445.2 -23.06,-262.2 122.65,-488 325.51,-504.3 202.82,-16.4 386.02,182.9 409.19,445 23.03,262.2 -122.69,488 -325.58,504.5" /></g><g
         transform="scale(1.30409)"
         id="g506"><path
           id="path508"
           style="fill:#a74f45;fill-opacity:1;fill-rule:nonzero;stroke:none"
           d="m 4770.6,16081.7 c -182.96,-0.7 -355.57,68.1 -451.95,218.3 -19.22,-263.5 128.03,-488.8 332.59,-505.3 196.84,-15.9 375.26,167.4 412.6,415.5 -84.59,-65.8 -177.59,-116.2 -293.24,-128.5" /></g><g
         transform="scale(1.34499)"
         id="g510"><path
           id="path512"
           style="fill:#261005;fill-opacity:1;fill-rule:nonzero;stroke:none"
           d="m 4592.45,16242.3 c -191.17,15.3 -364.64,-175.8 -386.7,-426.1 -12.51,-142.6 25.72,-278.1 104.92,-371.9 55.42,-65.6 125.12,-103.6 201.56,-109.7 191.13,-15.4 364.64,175.7 386.75,426 12.52,142.5 -25.72,278.1 -104.94,371.9 -55.44,65.6 -125.22,103.7 -201.59,109.8 z m -126.46,-941.8 c -70.46,15.7 -134.25,55.8 -186.4,117.5 -86.16,102 -127.86,248.5 -114.37,401.7 24.01,272.6 217.14,480.3 430.5,463.1 v 0 c 87.72,-7.2 166.85,-50 229.42,-124.1 86.14,-102 127.83,-248.4 114.37,-401.7 -24.07,-272.5 -217.21,-480.2 -430.55,-463 -14.56,1.2 -28.9,3.3 -42.97,6.5" /></g><g
         transform="scale(1.32496)"
         id="g514"><path
           id="path516"
           style="fill:#000000;fill-opacity:1;fill-rule:nonzero;stroke:none"
           d="m 4643.36,16290.3 c -119.8,9.7 -228.62,-114.6 -243.03,-277.7 -14.36,-163 71.15,-303.1 190.95,-312.7 119.83,-9.7 228.62,114.7 242.97,277.7 14.45,163 -71.1,303.1 -190.89,312.7" /></g><g
         transform="scale(1.32666)"
         id="g518"><path
           id="path520"
           style="fill:#ffffff;fill-opacity:1;fill-rule:nonzero;stroke:none"
           d="m 4563.48,16298.7 c -69.72,-1.4 -126.32,-60.4 -126.46,-131.9 0,-71.4 56.41,-128.2 126.11,-126.9 69.77,1.4 126.36,60.4 126.45,131.8 0.12,71.5 -56.36,128.3 -126.1,127" /></g><g
         transform="scale(1.28834)"
         id="g522"><path
           id="path524"
           style="fill:#ffffff;fill-opacity:1;fill-rule:nonzero;stroke:none"
           d="m 4846.2,16299.6 c -22.02,-0.5 -39.93,-19.1 -39.95,-41.7 -0.02,-22.5 17.8,-40.5 39.85,-40.1 22.05,0.5 39.95,19.1 39.99,41.7 -0.03,22.6 -17.81,40.5 -39.89,40.1" /></g><g
         transform="scale(1.37947)"
         id="g526"><path
           id="path528"
           style="fill:#000000;fill-opacity:1;fill-rule:nonzero;stroke:none"
           d="m 4722.72,16117.4 c -12.56,2.8 -25.43,6.5 -38.66,11 l 12.96,37.5 c 212.63,-73 322.91,125.6 327.52,134.1 0,0 -81.94,-231.6 -301.82,-182.6" /></g><g
         transform="scale(1.39621)"
         id="g530"><path
           id="path532"
           style="fill:#000000;fill-opacity:1;fill-rule:nonzero;stroke:none"
           d="m 4496.32,15998.1 2.21,39.1 c 280.3,-15.8 338.08,251.4 340.4,262.8 0,0 -28.86,-319.6 -342.61,-301.9" /></g><g
         transform="scale(1.40424)"
         id="g534"><path
           id="path536"
           style="fill:#000000;fill-opacity:1;fill-rule:nonzero;stroke:none"
           d="m 4291.82,15917.5 -6.2,38.5 c 249.59,40.2 316.74,341 317.4,344 0,0 -35.01,-338 -311.2,-382.5" /></g><g
         transform="scale(1.36005)"
         id="g538"><path
           id="path540"
           style="fill:#000000;fill-opacity:1;fill-rule:nonzero;stroke:none"
           d="m 176.541,16278.1 c 8.576,-5.1 211.484,-123.1 302.274,21.9 l 34.104,-21.3 c -134.622,-203.6 -336.378,-0.6 -336.378,-0.6" /></g><g
         transform="scale(1.38422)"
         id="g542"><path
           id="path544"
           style="fill:#000000;fill-opacity:1;fill-rule:nonzero;stroke:none"
           d="m 364.902,16112.9 c -144.909,32.4 -245.222,187.1 -245.222,187.1 1.55,-1.6 157.71,-155.6 314.31,-155.4 59.095,0.1 111.471,22.7 155.618,67.1 l 28.042,-27.9 c -51.868,-52.2 -113.683,-78.6 -183.722,-78.8 -23.313,0 -46.444,2.9 -69.026,7.9" /></g><g
         transform="scale(1.40338)"
         id="g546"><path
           id="path548"
           style="fill:#000000;fill-opacity:1;fill-rule:nonzero;stroke:none"
           d="m 508.484,16042.9 c -176.174,39.3 -306.747,257.1 -306.747,257.1 2.748,-3.4 280.543,-336.7 497.857,-184.9 l 22.337,-31.9 c -70.027,-49 -143.644,-55.9 -213.447,-40.3" /></g><g
         transform="scale(1.35203)"
         id="g550"><path
           id="path552"
           style="fill:#d09a4f;fill-opacity:1;fill-rule:nonzero;stroke:none"
           d="m 3097.73,15675.1 c 0,0 -333.74,351.9 -669.31,486.4 -335.57,134.4 -609.48,138.5 -919.73,2.9 -310.25,-135.6 -614.492,-672.7 -665.446,-867.9 -76.025,-3.8 -330.221,-50.8 -391.651,-337.8 -61.43,-287.1 85.404,-988.7 781.137,-1379.8 181.71,22.5 708.1,303.5 827,383.3 118.91,79.8 638.74,422.7 660.35,682.3 l 377.65,1030.6" /></g><g
         transform="scale(1.27114)"
         id="g554"><path
           id="path556"
           style="fill:#edc39a;fill-opacity:1;fill-rule:nonzero;stroke:none"
           d="m 2363.21,16180 c -289.68,-111.9 -486.04,-398.8 -594.22,-746.3 211.74,366.7 563.08,866.3 1160.69,571.6 -165.88,137.3 -261.7,219.8 -566.47,174.7" /></g><g
         transform="scale(1.36177)"
         id="g558"><path
           id="path560"
           style="fill:#edc39a;fill-opacity:1;fill-rule:nonzero;stroke:none"
           d="m 809.875,15064.5 c -15.51,-173.5 11.095,-434.9 71.862,-589.5 -158.279,907.4 579.523,1825 1614.303,1532.3 -28.18,14.2 -56.57,27.2 -84.99,38.6 -333.17,133.5 -605.11,137.5 -913.15,2.9 -308.03,-134.6 -610.096,-667.9 -660.685,-861.7 -75.482,-3.7 -327.861,-50.4 -388.851,-335.4 -48.624,-227.2 34.514,-715.9 420.083,-1101.6 -4.753,9.1 -9.738,18.3 -15.986,28.2 -331.079,362.1 -521.184,1187 -42.586,1286.2" /></g><g
         transform="scale(1.35687)"
         id="g562"><path
           id="path564"
           style="fill:#44250c;fill-opacity:1;fill-rule:nonzero;stroke:none"
           d="m 1228.38,13507.1 c -0.05,0 -0.08,0 -0.12,0 -152.05,34.4 -660.583,440.5 -792.228,1025.6 -92.543,411.3 93.552,597.3 177.851,658.2 70.569,51 152.931,74.7 201.972,64.2 229.505,556.1 541.755,877.1 928.255,953.8 328.78,65.2 657.31,-60.4 909.47,-208.1 268.42,-157.3 425.03,-371.4 425.03,-371.4 -6.63,6.8 -669.4,670.6 -1326.78,539.9 -376.46,-74.8 -681.31,-393.6 -906.032,-947.6 l -8.873,-21.8 -20.215,12.1 c -23.143,13.8 -100.59,2.9 -179.226,-53.8 -77.802,-56.2 -249.356,-228.8 -162.1,-616.6 125.869,-559.5 620.686,-963.2 761.776,-995.1 h 0.05 c 72.32,-16.2 536.18,197.5 928.99,471.8 316.47,220.9 501.14,422.4 520.01,567.5 l 40.01,-5.2 c -26.1,-200.5 -306.38,-434.5 -536.92,-595.4 -387.34,-270.4 -869.48,-498.4 -960.92,-478.1" /></g><g
         transform="scale(1.29027)"
         id="g566"><path
           id="path568"
           style="fill:#44250c;fill-opacity:1;fill-rule:nonzero;stroke:none"
           d="m 831.697,15608.1 c -15.501,211.8 3.061,481.9 146.621,691.9 l 35.022,-23.9 c -259.97,-380.4 -84.54,-992.8 -82.742,-999 0,0 -85.096,142.5 -98.901,331" /></g><g
         transform="scale(1.26507)"
         id="g570"><path
           id="path572"
           style="fill:#44250c;fill-opacity:1;fill-rule:nonzero;stroke:none"
           d="m 1777.47,15507.7 c 0,0 74.28,265.9 137.16,364.8 147.61,232.2 316.01,369.3 503,408.9 87.93,18.6 170.25,13.6 243.2,-3.3 181.91,-42.1 282.9,-196 282.9,-196 -2.31,2.1 -232.98,217.3 -517.55,156.9 -251.67,-53.5 -469.93,-299.5 -648.71,-731.3" /></g><g
         transform="scale(1.23364)"
         id="g574"><path
           id="path576"
           style="fill:#630000;fill-opacity:1;fill-rule:nonzero;stroke:none"
           d="m 2110.95,15486.3 c 0,0 283.46,85.1 393.87,136.9 110.42,51.8 358.46,194.5 427.45,312.6 69,118.1 74.32,364.2 -164.75,328.5 -239.07,-35.7 -620.81,-685.6 -656.57,-778" /></g><g
         transform="scale(1.23158)"
         id="g578"><path
           id="path580"
           style="fill:#3a0202;fill-opacity:1;fill-rule:nonzero;stroke:none"
           d="m 2500.12,15738.3 c 102,67.2 324.16,246 375.58,373 20.44,50.5 41.44,102 28.52,162.6 -31.76,18.2 -74.73,26.1 -132.08,17.5 -193.53,-28.9 -480.32,-459.5 -602.17,-672.5 -15.91,-41.8 -26.4,-73.2 -29.97,-88.8 0,0 258.12,140.9 360.12,208.2" /></g><g
         transform="scale(1.23325)"
         id="g582"><path
           id="path584"
           style="fill:#44250c;fill-opacity:1;fill-rule:nonzero;stroke:none"
           d="m 2851.52,16250.8 c -8.66,1.9 -17.72,2.7 -27.24,2.4 -216.56,-7.4 -590.04,-556.9 -687.18,-744.1 160.22,49.9 683.86,229.3 799.38,474.4 28.81,61.2 29.63,120.4 2.52,181.2 -22.12,49.5 -50.91,78 -87.48,86.1 z m -790.92,-810 14.92,40.5 c 48.9,133.2 481.79,807.3 747.25,816.3 68.85,2.4 121.68,-36.3 156.77,-114.9 32.24,-72.2 31.26,-145.5 -2.91,-218.1 -144.79,-307.2 -844.65,-504.1 -874.35,-512.3 l -41.68,-11.5" /></g><g
         transform="scale(1.17666)"
         id="g586"><path
           id="path588"
           style="fill:#44250c;fill-opacity:1;fill-rule:nonzero;stroke:none"
           d="m 1834.46,15909.2 c 3.01,2.3 301.01,227.6 376.48,390.8 l 42.24,-19.5 c -80.36,-173.9 -418.72,-371.3 -418.72,-371.3" /></g></g></g></svg>