<?xml version="1.0" encoding="UTF-8" standalone="no"?>
<!-- Created with Inkscape (http://www.inkscape.org/) -->

<svg
   version="1.1"
   id="svg2"
   xml:space="preserve"
   width="5000"
   height="3000"
   viewBox="0 0 5000 3000"
   sodipodi:docname="Silhouette of palm tree and hammock on beach under sunset sky background. Design summer vector illustration.eps"
   xmlns:inkscape="http://www.inkscape.org/namespaces/inkscape"
   xmlns:sodipodi="http://sodipodi.sourceforge.net/DTD/sodipodi-0.dtd"
   xmlns="http://www.w3.org/2000/svg"
   xmlns:svg="http://www.w3.org/2000/svg"><defs
     id="defs6"><linearGradient
       x1="0"
       y1="0"
       x2="1"
       y2="0"
       gradientUnits="userSpaceOnUse"
       gradientTransform="matrix(-60.6086,-25334.6,25334.6,-60.6086,18546.4,23213.3)"
       spreadMethod="pad"
       id="linearGradient18"><stop
         style="stop-opacity:1;stop-color:#cd5300"
         offset="0"
         id="stop12" /><stop
         style="stop-opacity:1;stop-color:#f39f22"
         offset="0.63153"
         id="stop14" /><stop
         style="stop-opacity:1;stop-color:#f6a625"
         offset="1"
         id="stop16" /></linearGradient><linearGradient
       x1="0"
       y1="0"
       x2="1"
       y2="0"
       gradientUnits="userSpaceOnUse"
       gradientTransform="matrix(-42.857,1800,-1800,-42.857,18942.9,5582.87)"
       spreadMethod="pad"
       id="linearGradient32"><stop
         style="stop-opacity:1;stop-color:#cc5200"
         offset="0"
         id="stop28" /><stop
         style="stop-opacity:1;stop-color:#cc5200"
         offset="1"
         id="stop30" /></linearGradient></defs><sodipodi:namedview
     id="namedview4"
     pagecolor="#ffffff"
     bordercolor="#666666"
     borderopacity="1.0"
     inkscape:pageshadow="2"
     inkscape:pageopacity="0.0"
     inkscape:pagecheckerboard="0" /><g
     id="g8"
     inkscape:groupmode="layer"
     inkscape:label="ink_ext_XXXXXX"
     transform="matrix(1.3333333,0,0,-1.3333333,0,3000)"><g
       id="g10"
       transform="scale(0.1)"><path
         d="M 0,22500 H 37500 V 0 H 0 v 22500"
         style="fill:url(#linearGradient18);fill-opacity:1;fill-rule:nonzero;stroke:none"
         id="path20" /><path
         d="m 23993.9,9471.43 c 0,-2576.61 -2088.7,-4665.36 -4665.3,-4665.36 -2576.6,0 -4665.4,2088.75 -4665.4,4665.36 0,1237.37 491.5,2423.97 1366.5,3298.87 874.9,875 2061.5,1366.5 3298.9,1366.5 1237.3,0 2424,-491.5 3298.9,-1366.5 874.9,-874.9 1366.4,-2061.5 1366.4,-3298.87"
         style="fill:#fed255;fill-opacity:1;fill-rule:nonzero;stroke:none"
         id="path22" /><path
         d="m 37422.6,8175.61 c -1511.8,-6.48 -4542,-349.87 -5913.8,-296.42 -3413.1,132.97 -6848.5,300.8 -10235,-60.62 C 14235,7067.37 7096.48,7826.8 0,7771.9 v -719.28 c 1868.78,-469.94 5407.63,733.29 7316.5,332.74 7049.4,-1479.22 14420.9,-290.52 21631.9,-372.52 2675.2,-30.43 6350,-300.32 8551.6,520.79 v 641.88 c -25.5,0.1 -50.9,0.22 -77.4,0.11"
         style="fill:#f28a16;fill-opacity:1;fill-rule:nonzero;stroke:none"
         id="path24" /><path
         d="m 20891.8,9471.43 c 0,-863.35 -699.9,-1563.23 -1563.2,-1563.23 -863.4,0 -1563.3,699.88 -1563.3,1563.23 0,863.37 699.9,1563.27 1563.3,1563.27 863.3,0 1563.2,-699.9 1563.2,-1563.27"
         style="fill:#fffde6;fill-opacity:1;fill-rule:nonzero;stroke:none"
         id="path26" /><path
         d="M 0,7394.31 V 0 H 37500 V 7394.31 H 0"
         style="fill:url(#linearGradient32);fill-opacity:1;fill-rule:nonzero;stroke:none"
         id="path34" /><path
         d="m 27383.2,2802.99 c -1734.1,5.86 -3494.4,-297.65 -5233.3,-238.28 -4963.5,169.44 -9932.1,-78.54 -14898.24,-79.65 C 5164.68,2484.6 3086.68,2272.48 1011.23,2110.22 673.133,2083.79 336.211,2064.78 0,2050.57 V 0 h 37500 v 2335.3 c -715.2,55.31 -1430.5,76.47 -2148.2,-85.24 -935.9,-210.87 -1909.2,333.47 -2881.1,112.1 -1034.9,-235.69 -2054.7,43.43 -3066.7,251.56 -667.7,137.32 -1342.2,186.98 -2020.8,189.27"
         style="fill:#000000;fill-opacity:1;fill-rule:nonzero;stroke:none"
         id="path36" /><path
         d="m 27383.2,2802.99 c -1734.1,5.86 -3494.4,-297.65 -5233.3,-238.28 -4963.5,169.44 -9932.1,-78.54 -14898.24,-79.65 C 5164.68,2484.6 3086.68,2272.48 1011.23,2110.22 673.133,2083.79 336.211,2064.78 0,2050.57 V 0 h 37500 v 2335.3 c -715.2,55.31 -1430.5,76.47 -2148.2,-85.24 -935.9,-210.87 -1909.2,333.47 -2881.1,112.1 -1034.9,-235.69 -2054.7,43.43 -3066.7,251.56 -667.7,137.32 -1342.2,186.98 -2020.8,189.27 z"
         style="fill:none;stroke:#000000;stroke-width:1.98437;stroke-linecap:butt;stroke-linejoin:miter;stroke-miterlimit:4;stroke-dasharray:none;stroke-opacity:1"
         id="path38" /><path
         d="m 6970.05,6849.79 c 1979.9,-1.14 7919.25,34.74 5939.75,-3.02 -512.4,-9.77 -1024.8,-8.97 -1537.4,-14.56 -1528.45,-16.66 -3057.16,-25.61 -4585.56,-6.57 -590.09,7.35 -2360.5,12.47 -1770.34,14.62 678.7,2.47 1357.85,-13.36 2036.2,9.33 93.19,3.12 190.07,-13.94 281.01,0.2 h -363.66"
         style="fill:#f28a04;fill-opacity:1;fill-rule:nonzero;stroke:none"
         id="path40" /><path
         d="m 18485.8,6986.11 c 679,-2.88 1357.9,-5.81 2036.9,-14.28 882.8,-11.01 1765.5,-17.34 2648.4,-12.95 87.3,0.44 47.8,-17.72 -17.5,-22.01 -607.9,-40.01 -1217.8,-35.38 -1826.8,-37.99 -1197.2,-5.14 -2394.5,-10.98 -3591.5,9.24 -187.2,3.16 -731,-73.25 -562.6,9.27 68.9,33.74 215.4,24.72 312.8,27 353.5,8.26 1246.2,-292.95 1060.9,7.7 -12.7,20.58 -41.9,21.17 -60.6,34.02"
         style="fill:#f28a04;fill-opacity:1;fill-rule:nonzero;stroke:none"
         id="path42" /><path
         d="m 19152.5,6517.74 c 2244.2,0.58 4490.4,-96.26 6732.5,0.87 49.1,2.13 251.8,-1.44 210.9,-0.36 -816.6,21.63 -1633.4,34.84 -2450.3,38 -1396.7,5.41 -2793.6,28.3 -4190.1,4.11 -105,-1.82 -194.6,-54.5 -303,-42.62"
         style="fill:#ee8716;fill-opacity:1;fill-rule:nonzero;stroke:none"
         id="path44" /><path
         d="m 12121.8,6603.45 c 1750.1,23.21 3500.4,34.58 5250.6,39.19 187.6,0.5 737.8,-69.66 562.6,-3.75 -81.4,30.63 -221.1,24.44 -324.5,27.68 -686.7,21.47 -1373.8,16.14 -2060.5,37.17 -1090.1,33.39 -2193.4,155.97 -3270.8,-10.77 -80.2,-12.42 -325.1,-9.99 -263.8,-48.45 32.5,-20.34 70.1,-29.97 106.4,-41.07"
         style="fill:#ee8716;fill-opacity:1;fill-rule:nonzero;stroke:none"
         id="path46" /><path
         d="m 27455.9,6865.61 c 787.5,12.3 1573.9,55.6 2360.4,94.76 772.4,38.46 1551.4,-26.41 2319.3,67.52 80.8,9.88 260.3,-34.56 84.2,-58.86 -534.5,-73.75 -1076.1,-47.35 -1614.2,-55.23 -1616.3,-23.66 -3231.5,-94.86 -4848.4,-101.22 -415.5,-1.63 -851.8,126.99 -1246.5,-2.49 -73.7,-24.18 -118.7,20.79 -17,12.43 242.7,-19.96 487.2,-14.97 730.6,-9.06 493.3,11.98 986.4,25.63 1480,25.63 513.2,0 1026.4,0 1539.6,0 l -788,26.52"
         style="fill:#f28a04;fill-opacity:1;fill-rule:nonzero;stroke:none"
         id="path48" /><path
         d="m 34304.8,6612.61 c -1455,-1.35 -2910.2,22.84 -4365,-2.57 -706.7,-12.34 -2721.2,364.85 -2120.2,-7.12 13.7,-8.49 196.6,-5.49 275.3,-5.79 1358.6,-5.1 2717.1,-33.36 4075.6,-18.57 554.2,6.04 1108.3,9.3 1662.7,18.11 157.8,2.51 624.5,-40.06 473.9,4.75 -73.8,21.97 121.7,11.88 159,8.38 111.3,-10.41 424.9,-7.37 368.3,-6.28 -459.3,8.8 -918.7,12.69 -1378.1,9.09 h 848.5"
         style="fill:#ee8716;fill-opacity:1;fill-rule:nonzero;stroke:none"
         id="path50" /><path
         d="m 25758.9,7152.13 c 1070.1,-1.33 2140.4,5.85 3210.2,-30.83 970,-33.26 1940.6,-23.57 2911,-21.43 145.1,0.32 -115.4,-2.1 -160.7,-4.28 -835.2,-40.3 -1671.7,-33.2 -2507.7,-33.08 -1019.9,0.15 -2039.8,16.49 -3059.7,7.93 -368.2,-3.1 -745.3,-79.02 -1105,0.71 -160.5,35.56 100.3,49.81 146.4,51.82 511.4,22.28 1023.5,16.7 1535.2,16.09 l -969.7,13.07"
         style="fill:#f28a04;fill-opacity:1;fill-rule:nonzero;stroke:none"
         id="path52" /><path
         d="m 36486.7,6982.3 c -489.4,24.84 -975.6,-38.82 -1464.7,-53.71 -489.8,-14.91 -979.6,-29.85 -1469.7,-36.89 -349.3,-5.02 -698.7,-14.14 -1047.9,-6.79 -105.3,2.22 -421.3,-23.62 -320.9,5.94 81.4,24 175,1.05 261,0.9 1391.7,-2.51 2783.5,6.23 4175.2,-1.54 314.7,-1.75 629.7,5.12 944.7,-1.71 63,-1.36 109.3,39.96 19.1,50.28 -358.2,40.97 -719.9,37.36 -1079.9,43.48 l -16.9,0.04"
         style="fill:#f28a04;fill-opacity:1;fill-rule:nonzero;stroke:none"
         id="path54" /><path
         d="m 4377.3,6396.64 c 949.99,5.32 1899.02,-50.38 2848.78,-61.25 1257.03,-14.37 2516.94,-105.4 3771.22,-20.73 81.7,5.51 182.9,-24.39 39.5,-29.04 -909.8,-29.51 -1820.35,-12.42 -2730.54,-14.48 -1533.63,-3.48 -3067.38,6.73 -4600.48,51.73 -341.84,10.03 -1327.52,-121.27 -1025.53,39.79 57.66,30.75 274.94,16.8 394.7,21.63 655.99,26.41 1312.67,23.3 1969.05,23.67 l -666.7,-11.32"
         style="fill:#ee8716;fill-opacity:1;fill-rule:nonzero;stroke:none"
         id="path56" /><path
         d="m 13925,6187.04 c 1989.2,17.28 4007.3,351.93 5967.8,15.11 51.5,-8.83 -179.9,-11.18 -242,-11.78 -1377.1,-13.42 -2752.9,-67.9 -4131,-64.89 -458.6,1 -917.3,-12.41 -1376.2,-11.05 -904.7,2.69 -1808.9,33.52 -2714.1,32.04 -138,-0.22 -551.8,6.95 -413.8,7.57 859.4,3.87 1718.6,11.83 2578,8.76 111.1,-0.39 222.3,-1.04 331.3,24.24"
         style="fill:#ee8716;fill-opacity:1;fill-rule:nonzero;stroke:none"
         id="path58" /><path
         d="m 21728.4,6104.58 c 2507.6,30.79 5016,51.1 7522.7,-17.69 250.1,-6.86 1000.6,-14.28 750.4,-11.6 -560.6,6.01 -1120.7,43.42 -1681.6,24.88 -437.8,-14.47 -874.8,-7.95 -1312.3,11.92 -722.7,32.82 -1446,33.51 -2169.3,45.49 -1504,24.92 -3008.4,1.3 -4512.5,14.5 -219.6,1.93 -877.6,-18.96 -658.1,-18.69 714.6,0.9 1433.1,68.53 2144.2,-4.74 151.1,-15.57 -159,-14.74 -204.7,-14.78 l 121.2,-29.29"
         style="fill:#ee8716;fill-opacity:1;fill-rule:nonzero;stroke:none"
         id="path60" /><path
         d="m 10591.4,5757.87 c 1664.4,-23.81 3329,-4.63 4993.4,-21.23 836.3,-8.34 1673.2,2.28 2508.6,-41.53 392.6,-20.59 795,86.9 1177.8,-0.49 165.3,-37.73 -151.5,-44.02 -195.3,-45.29 -649.3,-18.78 -1299,-2.89 -1948.5,-2.29 -764.7,0.69 -1531.7,68.53 -2294,8.51 -449.7,-35.41 -900.3,-17.53 -1351,-26.01 -747.1,-14.04 -1493.6,-48.16 -2241.2,-46.02 -449.2,1.29 -896.8,38.49 -1344.99,68.5 -283.13,18.96 -1133.78,32.55 -850.29,45.39 515.08,23.35 1029.28,66.65 1545.48,60.46"
         style="fill:#ee8716;fill-opacity:1;fill-rule:nonzero;stroke:none"
         id="path62" /><path
         d="m 21501.1,5515.43 c 933.2,-73.08 1869.4,-11.68 2804.1,-46.87 478.2,-18.01 957.1,-7.83 1434.4,-48.29 300.3,-25.46 604.5,0.18 902,-47.82 144.3,-23.27 280.9,11.32 416.1,52.27 66.5,20.16 165,-8.92 38.8,-6.44 -322.1,6.32 -642.6,39.86 -963.9,65.46 -432.1,34.43 -865.7,8.39 -1298.3,-2.08 -609.5,-14.74 -1234.6,-139.06 -1830.4,5.38 -219.1,53.11 -443.6,76.96 -669.7,69.27 -375.3,-12.77 -748.9,-24.85 -1127,-6.76 -487.7,23.35 -1828.5,-267.86 -1463.8,56.8 56.8,50.51 159,2.81 241.7,0 377.3,-12.84 752.2,30.78 1129.6,39.11 139.2,3.07 262.9,-61.24 391.2,-109.15 66,-24.66 138.2,-19.38 207.3,-20.88 h -212.1"
         style="fill:#ee8716;fill-opacity:1;fill-rule:nonzero;stroke:none"
         id="path64" /><path
         d="m 5970,5788.17 c 863.69,1.1 1727.5,-6.6 2590.97,17.63 415.26,11.66 830.77,8.96 1246.02,17.85 172.09,3.68 339.41,47.18 509.51,68.22 65.2,8.06 252.9,-12.8 223.4,-12.78 -1305.02,0.65 -2610.33,-28.09 -3914.97,1.01 -443.55,9.89 -886.79,29.29 -1330.64,29.29 -98.01,0 -392.04,0.19 -294.04,0 303.04,-0.58 727.67,242.65 909.14,0 27.32,-36.52 40.41,-80.86 60.61,-121.22"
         style="fill:#ee8716;fill-opacity:1;fill-rule:nonzero;stroke:none"
         id="path66" /><path
         d="m 14591.7,5212.39 c 1595.7,82.59 3190.4,-60.61 4786.6,-60.61 242.9,0 971.7,1.68 728.8,0 -490.2,-3.39 -972.4,111.89 -1460.7,130.7 -271.1,10.43 -540.4,-21.05 -812.9,1.93 -766.2,64.63 -1536.5,73.59 -2304.1,45.95 -503.5,-18.14 -1009.4,-51.26 -1511.9,34.32 -283.8,48.33 -572.4,29.53 -858.9,29.53 -138.5,0 -554,1 -415.5,0 622.6,-4.5 1256.3,-158.82 1867.8,-40.01 112.8,21.92 149.1,-87.57 27.7,-114.13 l -25.4,-13.79 -21.5,-13.89"
         style="fill:#ee8716;fill-opacity:1;fill-rule:nonzero;stroke:none"
         id="path68" /><path
         d="m 20615.4,4654.09 c 1334.3,-49.46 2669.7,-31.91 4004.6,-30.3 677.5,0.81 1359.2,39.59 2031.6,-49.4 105.2,-13.91 420.5,-42.59 327.7,-41.52 -500.3,5.79 -1000.5,40.01 -1499.9,72.06 -769.9,49.41 -1540.6,-12.9 -2310.8,-21.75 -560.9,-6.45 -1117.7,65.99 -1677,113.3 -405.5,34.29 -806.1,-40.16 -1216.3,1.96 -438.3,45.01 -879.6,-0.85 -1319,16.26 -79.8,3.1 -216.3,-93.92 -236.9,-17.05 -19.2,71.91 141.7,17.67 208.4,17.05 322.7,-3 644.4,16.53 967.1,26.46 241.3,7.43 496.2,16.96 720.5,-87.07"
         style="fill:#ee8716;fill-opacity:1;fill-rule:nonzero;stroke:none"
         id="path70" /><path
         d="m 32040.8,5174.47 c -638.8,-250.2 -1336.2,-243.14 -2011.4,-242.44 -985.5,1.03 -1971.7,-29.99 -2956.7,1.6 -328.8,10.54 -658.2,22.79 -986.7,-18.02 -105.6,-13.11 -424.5,-13.88 -318.2,-13.88 1397.5,-0.06 2790.8,112.72 4189.5,113.75 341.2,0.25 713.4,-108.82 1023.5,35.6 107.6,50.1 222.2,52.45 342.3,45.94 189.2,-10.25 386.7,-81.32 568.8,-24.08 57.9,18.2 100.1,67.68 148.9,101.53"
         style="fill:#ee8716;fill-opacity:1;fill-rule:nonzero;stroke:none"
         id="path72" /><path
         d="m 31759.2,5357.13 c 849.8,-118.75 1707.8,-169.8 2566.2,-171.25 736.8,-1.25 1473.8,11.62 2210.5,-2.05 304,-5.63 606.9,-16.76 910.8,-36.81 112.7,-7.43 -88.7,30.87 -114.8,34.16 -519.7,65.7 -1045.3,49.59 -1568,52.86 -450.3,2.82 -899.4,38.55 -1349.2,58.46 -553,24.48 -1106.9,10.07 -1659.7,31.86 -378.9,14.94 -759,6.03 -1136.9,37.18 -185,15.25 -741.3,14.51 -555.9,14.62 354,0.2 706.6,-39.11 1060.7,-38.06 l -363.7,19.03"
         style="fill:#ee8716;fill-opacity:1;fill-rule:nonzero;stroke:none"
         id="path74" /><path
         d="m 36551,4325.04 c -2264.1,-24.15 -4528,-49.02 -6792.2,-71.93 -352.2,-3.56 -1404.2,44.44 -1056.7,-12.78 227.5,-37.46 462.4,-31.86 693.2,-35.17 959,-13.71 1918.2,-10.49 2877.3,-7.18 766,2.64 1530.8,26.97 2297.5,49.11 451.7,13.03 901.6,-37.31 1355.1,15.07 208.3,24.05 417.6,38.26 625.8,62.88"
         style="fill:#fdc627;fill-opacity:1;fill-rule:nonzero;stroke:none"
         id="path76" /><path
         d="m 36698.8,5636.65 c -975.1,2.21 -1950.5,-21.17 -2925.3,5.28 -746.9,20.27 -1494,31.25 -2241.1,25.03 -813.5,-6.78 -1679,317.88 -2440,30.3 -68.4,-25.83 -131.8,1.92 -25.1,0.1 297.4,-5.07 593.7,10.45 890.7,25.3 1433.2,71.63 2868.5,35.56 4302.2,7.49 433.7,-8.49 866.8,16.64 1300.4,18.46 347.9,1.47 710,42.84 1043.4,-66.79 33.3,-10.96 66.4,-24.24 94.8,-45.17"
         style="fill:#ee8716;fill-opacity:1;fill-rule:nonzero;stroke:none"
         id="path78" /><path
         d="m 2274.11,5645.27 c 208.35,0.48 833.33,-0.91 624.99,-7.36 -43.06,-1.34 -232.35,-1.33 -113.24,-7.75 866.32,-46.74 3467.68,-8.16 2600.98,-33.1 -78.84,-2.27 91.54,-0.83 119.39,-0.83 134.81,0.04 539.23,-0.87 404.43,0.02 -386.41,2.55 -767.53,76.5 -1155.46,67.81 -355.48,-7.97 -711.27,-0.49 -1066.38,15.49 -811.48,36.52 -1623.7,63.99 -2436.04,56.29 -196.12,-1.87 -774.354,58.34 -589.159,-3.22 106.164,-35.29 221.856,-50.03 334.043,-56.95 446.416,-27.53 893.236,-54.46 1340.556,-60.95 136.42,-1.98 -24.58,28.32 -64.11,30.55"
         style="fill:#ee8716;fill-opacity:1;fill-rule:nonzero;stroke:none"
         id="path80" /><path
         d="m 0,4350.94 v -21.24 c 83.5469,-4.82 167.059,-10.15 250.531,-15.77 88.512,-5.95 177.016,-13.74 264.641,-27.89 1536.458,-0.72 3073.058,22.32 4609.408,8.56 -601.52,11.65 -1202.95,32.23 -1805.01,42.6 -354.67,6.1 -708.44,-7.84 -1063.87,1.24 -494.9,12.64 -989.25,-3.53 -1484.809,7.27 -177.188,3.86 -475.598,5.02 -770.891,5.23 z m 5124.58,-56.34 c 271.67,-5.26 543.34,-8.71 815.11,-8.56 105.22,0.09 -262.37,2.12 -386.37,3.83 -142.91,1.97 -285.82,3.45 -428.74,4.73"
         style="fill:#fdc627;fill-opacity:1;fill-rule:evenodd;stroke:none"
         id="path82" /><path
         d="m 9061.07,4545.69 c 980.23,-0.03 1960.53,13.05 2940.73,4.77 408,-3.45 819.4,12.5 1223.2,-46.79 209.8,-30.81 430.7,-151.84 632.5,-69.56 43.5,17.75 232.6,-39.93 186.8,-39.94 -1451.9,-0.56 -2904.9,131.03 -4354.98,59.15 -161.02,-7.98 -374.9,-130.11 -485.48,-8.59 -77.35,85.01 -184.18,140.54 -290.27,65.05 -103.36,-73.54 -226.89,-78.1 -350.96,-88.11 -230.59,-18.6 -461.48,-27.64 -692.97,-27.51 -47.35,0.03 -122.04,-1.82 -22.77,0.17 342.54,6.9 707.41,-74 1027.36,50.62 99.83,38.89 205.88,171.31 301.66,36.81 l 18.11,-14.38 18.59,-12.61 -151.52,90.92"
         style="fill:#ee8716;fill-opacity:1;fill-rule:nonzero;stroke:none"
         id="path84" /><path
         d="m 7060.96,5363.91 c 1460.08,-0.69 2920.85,43.8 4380.24,-1.07 164,-5.04 540.4,132.96 492.3,-24.28 -22.4,-73.39 -149,-5.15 -223.3,-4.95 -648,1.66 -1296.1,0.3 -1943.93,-19.37 -892.19,-27.09 -1784.41,9.28 -2676.57,17.19 -454.03,4.02 -1816.13,-4.66 -1362.13,2.18 513.89,7.74 2054.45,-7 1541.65,27.5 -69.16,4.66 -138.9,1.86 -208.26,2.8"
         style="fill:#ee8716;fill-opacity:1;fill-rule:nonzero;stroke:none"
         id="path86" /><path
         d="m 9909.6,3727.46 c 577.9,3.73 1153.2,-60.61 1731.4,-60.61 1029,0 4116,12.78 3087,0 -277.2,-3.44 -556.1,-29.82 -831.9,21.61 -266.8,49.79 -534.7,94 -806.9,107.81 -569.4,28.9 -1140.1,1.13 -1709.4,24.53 -348.7,14.34 -701.9,74.65 -1047.5,19.38 -103.8,-16.61 -198.7,-65.91 -300.8,-92.17 -160.39,-41.24 -340.48,-173.02 -488.57,-96.37 -78.26,40.51 61.16,13.81 93.93,15.21 115.66,4.94 218.78,70.35 339.67,56.63 129.77,-14.72 256.17,-56.3 387.67,-56.63 l -454.6,60.61"
         style="fill:#fdc627;fill-opacity:1;fill-rule:nonzero;stroke:none"
         id="path88" /><path
         d="m 21576.9,3490.19 c -2080.9,0 -8302.6,294.92 -6242.8,0 832.9,-119.25 1675.4,-70.65 2513.6,-86.8 1404,-27.06 2808.1,-31.46 4212.4,-28.35 384.5,0.86 1537.7,-9.49 1153.2,-11.24 -475.2,-2.16 -949.4,32.13 -1423.7,58.56 -189,10.53 -750.6,-17.56 -569.2,27.19 115.5,28.5 238,29 356.5,40.64"
         style="fill:#fdc627;fill-opacity:1;fill-rule:nonzero;stroke:none"
         id="path90" /><path
         d="m 26577.1,3717.26 c -662.2,-3.58 -1324.3,-5.97 -1986.7,-11.07 -661.9,-5.09 -1323.5,20.19 -1984.7,46 -335.5,13.09 -690.8,-67.53 -1006,48.13 -59.5,21.81 131.4,23.54 167.5,22.59 283.1,-7.43 566.1,-4.62 849.2,-1.71 279.1,2.86 555.3,-40.17 834.1,-51.55 732.1,-29.9 1464.8,-11.1 2197.4,-28.96 304.6,-7.44 608.9,-24.81 913.7,-23.6 165.2,0.65 329.7,26.02 488.6,67.8 125.5,33.02 255.8,33.19 383.1,55.81 118.3,21.02 -149.3,-26.02 -202.7,-32.64 -227.3,-28.19 -455,-57.58 -683.8,-69.51 l 30.3,-21.29"
         style="fill:#fdc627;fill-opacity:1;fill-rule:nonzero;stroke:none"
         id="path92" /><path
         d="m 28759,3198.03 c 999.7,14.26 1999.5,-1.6 2999.2,9.72 580.3,6.57 1160.8,-3.87 1741.1,7.8 81.2,1.64 197.4,10 47.6,15.99 -910.9,36.39 -1822.8,19.51 -2734.1,13.79 -993.9,-6.24 -1987.7,14.24 -2981.7,11.8 -821.1,-2.02 -1668.6,194.56 -2463.1,-12.44 -62.1,-16.18 149.1,-27.01 201.2,-28.87 742.5,-26.5 1484.9,-65.46 2228.1,-55.12 331.3,4.61 661.5,13.31 993.5,34.11 39.9,2.49 79.8,3.2 119.8,3.22 H 28759"
         style="fill:#fdc627;fill-opacity:1;fill-rule:nonzero;stroke:none"
         id="path94" /><path
         d="m 36426.1,3575.94 c -775.4,8.21 -1551.4,-10.98 -2326,42.55 -691.9,47.81 -1382.8,120.36 -2076.2,133.91 -294.7,5.76 -590.1,-3.11 -883.9,20.68 -49.8,4.03 -248.9,14.83 -214.1,16.81 404.6,23.03 811,13.94 1215.4,-7.11 471.2,-24.53 943.3,-16.66 1414.7,-33.22 552.5,-19.41 1104.6,-40.86 1657.7,-47.79 767.8,-9.61 3071,4.48 2303.4,-13.16 -235.7,-5.41 -464.3,-66.06 -700.1,-82.47 -130.4,-9.07 -261,-15.58 -390.9,-30.2"
         style="fill:#fdc627;fill-opacity:1;fill-rule:nonzero;stroke:none"
         id="path96" /><path
         d="m 2635.98,3841.96 c 1737.11,-38.55 3474.73,-2.24 5212.04,-10.05 307.65,-1.39 1230.62,2.72 922.94,3.41 -1058.12,2.42 -2115.85,-22.79 -3173.8,-46.48 -1319.59,-29.55 -2639.47,-54.45 -3959.39,-45.57 -273.3,1.84 -1084.707,-61.06 -820.071,6.89 158.719,40.74 329.641,32.45 493.911,33.39 295.3,1.69 590.04,18.86 884.89,30.79 216.01,8.74 440.96,-30.3 651.61,27.62 h -212.13"
         style="fill:#fdc627;fill-opacity:1;fill-rule:nonzero;stroke:none"
         id="path98" /><path
         d="m 13576.5,3121.37 c -1838.3,-38.18 -3676.41,50.06 -5514.68,30.31 -318.11,-3.42 -637.13,14.74 -954.44,-8.01 -158.71,-11.38 -628.65,-52.7 -500.98,-52.6 1879.77,1.44 3760,-74.81 5639.2,-28.03 604,15.04 1212.2,95.86 1812.9,13.81 147,-20.08 283.3,30.07 421.8,61.45 56.9,12.9 239.5,6.43 81.1,16.51 -285.9,18.2 -706.5,278.69 -863.7,27.17 -68.8,-110.02 -340.8,5.35 -312,-1.97 64.5,-16.41 127.6,-37.93 190.8,-58.64"
         style="fill:#fdc627;fill-opacity:1;fill-rule:nonzero;stroke:none"
         id="path100" /><path
         d="m 29759.7,6849.79 c -1979.9,-1.14 -7919.3,34.74 -5939.7,-3.02 512.3,-9.77 1024.7,-8.97 1537.3,-14.56 1528.5,-16.66 3057.2,-25.61 4585.6,-6.57 590.1,7.35 2360.5,12.47 1770.3,14.62 -678.7,2.47 -1357.8,-13.36 -2036.2,9.33 -93.2,3.12 -190.1,-13.94 -281,0.2 h 363.7"
         style="fill:#f07c03;fill-opacity:1;fill-rule:nonzero;stroke:none"
         id="path102" /><path
         d="m 18243.9,6986.11 c -679,-2.88 -1357.9,-5.81 -2036.9,-14.28 -882.8,-11.01 -1765.5,-17.34 -2648.4,-12.95 -87.3,0.44 -47.8,-17.72 17.5,-22.01 607.9,-40.01 1217.9,-35.38 1826.8,-37.99 1197.2,-5.14 2394.6,-10.98 3591.5,9.24 187.3,3.16 731,-73.25 562.6,9.27 -68.9,33.74 -215.4,24.72 -312.8,27 -353.5,8.26 -1246.1,-292.95 -1060.9,7.7 12.7,20.58 41.9,21.17 60.6,34.02"
         style="fill:#f07c03;fill-opacity:1;fill-rule:nonzero;stroke:none"
         id="path104" /><path
         d="m 17577.2,6517.74 c -2244.1,0.58 -4490.4,-96.26 -6732.5,0.87 -49.1,2.13 -251.8,-1.44 -210.9,-0.36 816.7,21.63 1633.4,34.84 2450.3,38 1396.7,5.41 2793.6,28.3 4190.1,4.11 105,-1.82 194.6,-54.5 303,-42.62"
         style="fill:#f07c03;fill-opacity:1;fill-rule:nonzero;stroke:none"
         id="path106" /><path
         d="m 24607.9,6603.45 c -1750.1,23.21 -3500.3,34.58 -5250.6,39.19 -187.6,0.5 -737.8,-69.66 -562.6,-3.75 81.5,30.63 221.1,24.44 324.5,27.68 686.7,21.47 1373.8,16.14 2060.5,37.17 1090.2,33.39 2193.4,155.97 3270.8,-10.77 80.2,-12.42 325.2,-9.99 263.8,-48.45 -32.5,-20.34 -70.1,-29.97 -106.4,-41.07"
         style="fill:#f07c03;fill-opacity:1;fill-rule:nonzero;stroke:none"
         id="path108" /><path
         d="m 9273.77,6865.61 c -787.45,12.3 -1573.9,55.6 -2360.36,94.76 -772.43,38.46 -1551.41,-26.4 -2319.35,67.52 -80.78,9.88 -260.29,-34.56 -84.16,-58.86 534.55,-73.75 1076.11,-47.35 1614.17,-55.23 1616.36,-23.66 3231.49,-94.86 4848.43,-101.22 415.5,-1.63 851.8,126.99 1246.5,-2.49 73.7,-24.18 118.7,20.79 17,12.43 -242.7,-19.96 -487.2,-14.97 -730.6,-9.06 -493.2,11.98 -986.4,25.63 -1479.9,25.63 -513.25,0 -1026.45,0 -1539.65,0 l 787.92,26.52"
         style="fill:#f07c03;fill-opacity:1;fill-rule:nonzero;stroke:none"
         id="path110" /><path
         d="m 2424.93,6612.61 c 1454.99,-1.35 2910.21,22.84 4364.98,-2.57 706.69,-12.34 2721.19,364.85 2120.2,-7.12 -13.71,-8.49 -196.57,-5.49 -275.32,-5.79 -1358.53,-5.1 -2717.03,-33.36 -4075.56,-18.57 -554.23,6.04 -1108.29,9.3 -1662.69,18.11 -157.83,2.51 -624.5,-40.06 -473.97,4.75 73.82,21.97 -121.66,11.88 -158.98,8.38 -111.27,-10.41 -424.83,-7.37 -368.25,-6.28 459.3,8.8 918.65,12.69 1378.12,9.09 h -848.53"
         style="fill:#f07c03;fill-opacity:1;fill-rule:nonzero;stroke:none"
         id="path112" /><path
         d="m 10970.8,7152.13 c -1070.1,-1.33 -2140.37,5.85 -3210.18,-30.83 -969.99,-33.26 -1940.61,-23.57 -2910.96,-21.43 -145.2,0.32 115.35,-2.1 160.64,-4.28 835.2,-40.3 1671.75,-33.2 2507.68,-33.08 1019.91,0.15 2039.86,16.49 3059.72,7.93 368.2,-3.1 745.3,-79.02 1105,0.71 160.5,35.56 -100.3,49.81 -146.4,51.82 -511.3,22.28 -1023.5,16.7 -1535.2,16.09 l 969.7,13.07"
         style="fill:#f07c03;fill-opacity:1;fill-rule:nonzero;stroke:none"
         id="path114" /><path
         d="m 472.18,6987.98 c -76.336,-0.09 -152.715,-1.8 -229.176,-5.68 H 226.156 C 150.828,6980.98 75.4219,6980.12 0,6979.19 v -89.25 c 36.6875,0 73.3711,0.07 110.055,0.27 1024.115,5.72 2048.265,2.52 3072.405,1.41 -1.69,0 -3.38,0.08 -5.07,0.09 -490.12,7.04 -979.82,21.97 -1469.63,36.88 -412.74,12.57 -823.385,59.84 -1235.58,59.39 347.59,-5.03 695.3,-14.03 1042.85,-6.71 105.34,2.22 421.27,-23.62 320.93,5.95 -81.44,24 -175.04,1.05 -261.02,0.89 -367.58,-0.66 -735.17,-0.52 -1102.76,-0.13"
         style="fill:#f07c03;fill-opacity:1;fill-rule:evenodd;stroke:none"
         id="path116" /><path
         d="m 32352.4,6396.64 c -950,5.32 -1899,-50.38 -2848.8,-61.25 -1257,-14.37 -2516.9,-105.4 -3771.2,-20.73 -81.7,5.51 -182.9,-24.39 -39.5,-29.04 909.8,-29.51 1820.4,-12.42 2730.6,-14.48 1533.6,-3.48 3067.3,6.73 4600.4,51.73 341.9,10.03 1327.5,-121.26 1025.6,39.79 -57.7,30.75 -275,16.8 -394.7,21.63 -656,26.41 -1312.7,23.3 -1969.1,23.67 l 666.7,-11.32"
         style="fill:#f07c03;fill-opacity:1;fill-rule:nonzero;stroke:none"
         id="path118" /><path
         d="m 22804.8,6187.04 c -1989.3,17.28 -4007.4,351.93 -5967.9,15.11 -51.4,-8.83 179.9,-11.18 242,-11.78 1377.1,-13.42 2752.9,-67.9 4131,-64.89 458.6,1 917.3,-12.41 1376.2,-11.05 904.7,2.69 1808.9,33.52 2714.1,32.04 138,-0.22 551.8,6.95 413.8,7.57 -859.3,3.87 -1718.6,11.83 -2578,8.76 -111.1,-0.39 -222.3,-1.04 -331.2,24.24"
         style="fill:#f07c03;fill-opacity:1;fill-rule:nonzero;stroke:none"
         id="path120" /><path
         d="m 15001.3,6104.58 c -2507.5,30.79 -5016.03,51.1 -7522.7,-17.69 -250.09,-6.86 -1000.62,-14.28 -750.42,-11.6 560.61,6.01 1120.71,43.42 1681.61,24.88 437.82,-14.47 874.86,-7.95 1312.35,11.92 722.66,32.82 1445.96,33.51 2169.26,45.49 1504,24.92 3008.4,1.3 4512.5,14.5 219.6,1.93 877.7,-18.96 658.1,-18.69 -714.6,0.9 -1433.1,68.53 -2144.2,-4.74 -151.1,-15.57 159,-14.74 204.7,-14.78 l -121.2,-29.29"
         style="fill:#f07c03;fill-opacity:1;fill-rule:nonzero;stroke:none"
         id="path122" /><path
         d="m 26138.3,5757.87 c -1664.4,-23.81 -3329,-4.63 -4993.4,-21.23 -836.3,-8.34 -1673.2,2.28 -2508.6,-41.53 -392.6,-20.59 -795,86.9 -1177.8,-0.49 -165.3,-37.73 151.5,-44.02 195.3,-45.29 649.4,-18.78 1299,-2.89 1948.5,-2.29 764.7,0.69 1531.8,68.53 2294.1,8.51 449.6,-35.41 900.2,-17.53 1350.9,-26.01 747.2,-14.04 1493.6,-48.16 2241.3,-46.02 449.2,1.29 896.7,38.49 1344.9,68.5 283.1,18.96 1133.8,32.55 850.3,45.39 -515.1,23.35 -1029.3,66.65 -1545.5,60.46"
         style="fill:#f07c03;fill-opacity:1;fill-rule:nonzero;stroke:none"
         id="path124" /><path
         d="m 15228.6,5515.43 c -933.2,-73.08 -1869.4,-11.68 -2804.1,-46.87 -478.2,-18.01 -957.1,-7.83 -1434.4,-48.29 -300.3,-25.46 -604.5,0.18 -902,-47.82 -144.28,-23.27 -280.87,11.32 -416.07,52.27 -66.53,20.16 -165.05,-8.92 -38.78,-6.44 322.11,6.32 642.55,39.86 963.85,65.46 432.2,34.43 865.7,8.39 1298.3,-2.08 609.5,-14.74 1234.6,-139.06 1830.4,5.38 219.1,53.11 443.6,76.96 669.8,69.27 375.2,-12.77 748.8,-24.85 1126.9,-6.76 487.7,23.35 1828.5,-267.86 1463.8,56.8 -56.8,50.51 -159,2.81 -241.6,0 -377.4,-12.84 -752.3,30.78 -1129.7,39.11 -139.2,3.07 -262.9,-61.24 -391.1,-109.15 -66.1,-24.66 -138.3,-19.38 -207.4,-20.88 h 212.1"
         style="fill:#f07c03;fill-opacity:1;fill-rule:nonzero;stroke:none"
         id="path126" /><path
         d="m 30759.7,5788.17 c -863.7,1.1 -1727.5,-6.6 -2591,17.63 -415.2,11.66 -830.7,8.96 -1246,17.85 -172.1,3.68 -339.4,47.18 -509.5,68.22 -65.2,8.06 -252.9,-12.8 -223.3,-12.78 1304.9,0.65 2610.2,-28.09 3914.9,1.01 443.5,9.89 886.8,29.29 1330.6,29.29 98,0 392.1,0.19 294.1,0 -303.1,-0.58 -727.7,242.65 -909.2,0 -27.3,-36.52 -40.4,-80.86 -60.6,-121.22"
         style="fill:#f07c03;fill-opacity:1;fill-rule:nonzero;stroke:none"
         id="path128" /><path
         d="m 22138.1,5212.39 c -1595.8,82.59 -3190.5,-60.61 -4786.7,-60.61 -242.9,0 -971.7,1.68 -728.8,0 490.2,-3.39 972.5,111.89 1460.8,130.7 271,10.43 540.3,-21.05 812.8,1.93 766.2,64.63 1536.6,73.59 2304.1,45.95 503.5,-18.14 1009.4,-51.26 1511.9,34.32 283.8,48.33 572.4,29.53 858.9,29.53 138.5,0 554.1,1 415.5,0 -622.6,-4.5 -1256.3,-158.82 -1867.8,-40.01 -112.8,21.92 -149.1,-87.57 -27.7,-114.13 l 25.4,-13.79 21.6,-13.89"
         style="fill:#f07c03;fill-opacity:1;fill-rule:nonzero;stroke:none"
         id="path130" /><path
         d="m 16114.4,4654.09 c -1334.4,-49.46 -2669.8,-31.91 -4004.7,-30.3 -677.5,0.81 -1359.2,39.59 -2031.6,-49.4 -105.16,-13.91 -420.5,-42.59 -327.71,-41.52 500.31,5.79 1000.51,40.01 1499.91,72.06 769.9,49.41 1540.6,-12.9 2310.9,-21.75 560.8,-6.45 1117.6,65.99 1677,113.3 405.4,34.29 806,-40.16 1216.2,1.96 438.3,45.01 879.6,-0.85 1319.1,16.26 79.8,3.1 216.2,-93.92 236.8,-17.05 19.2,71.91 -141.7,17.67 -208.4,17.05 -322.7,-3 -644.4,16.53 -967.1,26.46 -241.2,7.43 -496.2,16.96 -720.4,-87.07"
         style="fill:#f07c03;fill-opacity:1;fill-rule:nonzero;stroke:none"
         id="path132" /><path
         d="m 4688.9,5174.47 c 638.81,-250.2 1336.21,-243.14 2011.37,-242.44 985.59,1.03 1971.71,-29.99 2956.78,1.6 328.79,10.54 658.15,22.79 986.65,-18.02 105.6,-13.11 424.5,-13.88 318.2,-13.88 -1397.48,-0.06 -2790.8,112.72 -4189.47,113.75 -341.2,0.25 -713.44,-108.81 -1023.55,35.6 -107.59,50.1 -222.17,52.45 -342.28,45.94 -189.19,-10.25 -386.65,-81.32 -568.76,-24.08 -57.9,18.2 -100.12,67.68 -148.94,101.53"
         style="fill:#f07c03;fill-opacity:1;fill-rule:nonzero;stroke:none"
         id="path134" /><path
         d="m 5667.52,5376.15 c -42.61,0 -85.2,-0.54 -127.77,-1.52 130.63,1.54 217.15,1.47 127.77,1.52 z m -127.77,-1.52 c -140.41,-1.66 -332.33,-5.18 -428.15,-13.08 -68.76,-5.67 -137.58,-9.99 -206.47,-13.39 -11.32,-1.53 -22.64,-3.05 -33.97,-4.56 222.91,8.89 445.55,25.89 668.59,31.03 z m -668.59,-31.03 c -88.04,-3.51 -176.13,-5.76 -264.3,-5.51 l 5.93,0.31 c -212.66,-4.65 -425.54,-5.65 -638.04,-14.03 -552.88,-21.8 -1106.78,-7.39 -1659.71,-31.86 -449.84,-19.91 -898.96,-55.64 -1349.282,-58.46 -321.52,-2.02 -644.094,3.22 -965.758,-7.68 v -46.98 c 64.5625,1.73 129.16,3.24 193.801,4.44 736.695,13.67 1473.699,0.8 2210.539,2.05 824.91,1.4 1649.5,48.64 2466.82,157.72 z m -258.37,-5.2 c 97.51,2.14 194.98,4.95 292.34,9.76 21.8,2.95 43.59,5.92 65.38,8.97 l -357.72,-18.73"
         style="fill:#f07c03;fill-opacity:1;fill-rule:evenodd;stroke:none"
         id="path136" /><path
         d="m 178.715,4325.04 c 2264.065,-24.15 4527.995,-49.02 6792.205,-71.93 352.18,-3.56 1404.15,44.45 1056.68,-12.78 -227.48,-37.46 -462.36,-31.86 -693.19,-35.17 -959.02,-13.71 -1918.18,-10.49 -2877.26,-7.18 -766.04,2.64 -1530.82,26.97 -2297.59,49.11 -451.65,13.03 -901.54,-37.31 -1355.009,15.07 -208.297,24.05 -417.598,38.26 -625.836,62.88"
         style="fill:#f07c03;fill-opacity:1;fill-rule:nonzero;stroke:none"
         id="path138" /><path
         d="m 30.8672,5636.65 c 975.1128,2.21 1950.5828,-21.17 2925.3428,5.28 746.89,20.27 1494,31.25 2241.13,25.03 813.52,-6.78 1678.94,317.88 2439.98,30.3 68.35,-25.83 131.82,1.92 25.05,0.1 -297.33,-5.07 -593.66,10.45 -890.67,25.3 -1433.15,71.63 -2868.52,35.56 -4302.19,7.49 -433.65,-8.49 -866.75,16.64 -1300.38,18.46 -347.962,1.46 -710.04,42.85 -1043.427,-66.8 -33.3085,-10.95 -66.371,-24.23 -94.8358,-45.16"
         style="fill:#f07c03;fill-opacity:1;fill-rule:nonzero;stroke:none"
         id="path140" /><path
         d="m 34455.6,5645.27 c -208.3,0.48 -833.3,-0.91 -625,-7.36 43.1,-1.34 232.4,-1.33 113.3,-7.75 -866.4,-46.74 -3467.7,-8.16 -2601,-33.1 78.8,-2.27 -91.6,-0.83 -119.4,-0.83 -134.8,0.04 -539.2,-0.87 -404.4,0.02 386.4,2.55 767.5,76.5 1155.4,67.81 355.5,-7.97 711.3,-0.49 1066.4,15.49 811.5,36.52 1623.7,63.99 2436,56.29 196.2,-1.87 774.4,58.34 589.2,-3.22 -106.2,-35.29 -221.9,-50.03 -334,-56.95 -446.5,-27.53 -893.3,-54.46 -1340.6,-60.95 -136.4,-1.98 24.6,28.32 64.1,30.55"
         style="fill:#f07c03;fill-opacity:1;fill-rule:nonzero;stroke:none"
         id="path142" /><path
         d="m 36214.5,4286.05 c -1679.3,-0.8 -3358.9,26.94 -5038.1,3.81 -124,-1.7 -491.6,-3.75 -386.4,-3.81 873.5,-0.51 1746.2,36.09 2620.1,51.15 354.7,6.1 708.5,-7.84 1063.9,1.24 494.9,12.64 989.3,-3.53 1484.8,7.26 519.5,11.32 2078.4,0.23 1558.8,6.12 -346.5,3.95 -692.8,-14.62 -1038.4,-37.88 -88.5,-5.96 -177,-13.74 -264.7,-27.89"
         style="fill:#f07c03;fill-opacity:1;fill-rule:nonzero;stroke:none"
         id="path144" /><path
         d="m 27668.6,4545.69 c -980.2,-0.03 -1960.5,13.05 -2940.7,4.77 -407.9,-3.45 -819.3,12.5 -1223.2,-46.79 -209.8,-30.81 -430.7,-151.84 -632.5,-69.56 -43.5,17.75 -232.6,-39.93 -186.8,-39.94 1451.9,-0.56 2904.9,131.03 4355,59.15 161,-7.98 374.9,-130.11 485.5,-8.59 77.3,85.01 184.2,140.54 290.2,65.05 103.4,-73.54 226.9,-78.1 351,-88.11 230.6,-18.6 461.5,-27.64 693,-27.51 47.3,0.03 122,-1.82 22.7,0.17 -342.5,6.9 -707.4,-74 -1027.3,50.62 -99.9,38.89 -205.9,171.31 -301.7,36.81 l -18.1,-14.38 -18.6,-12.61 151.5,90.92"
         style="fill:#f07c03;fill-opacity:1;fill-rule:nonzero;stroke:none"
         id="path146" /><path
         d="m 29668.7,5363.91 c -1460,-0.69 -2920.8,43.8 -4380.2,-1.07 -164,-5.04 -540.4,132.96 -492.3,-24.28 22.4,-73.39 149,-5.15 223.3,-4.95 648.1,1.66 1296.1,0.3 1943.9,-19.37 892.2,-27.09 1784.5,9.28 2676.6,17.19 454,4.02 1816.1,-4.66 1362.1,2.18 -513.8,7.74 -2054.4,-7 -1541.6,27.5 69.2,4.66 138.9,1.86 208.2,2.8"
         style="fill:#f07c03;fill-opacity:1;fill-rule:nonzero;stroke:none"
         id="path148" /><path
         d="m 26820.1,3727.46 c -577.9,3.73 -1153.2,-60.61 -1731.4,-60.61 -1029,0 -4115.9,12.78 -3087,0 277.2,-3.44 556.1,-29.82 831.9,21.61 266.9,49.79 534.7,94 806.9,107.81 569.4,28.9 1140.1,1.13 1709.4,24.53 348.7,14.34 701.9,74.65 1047.5,19.38 103.8,-16.61 198.7,-65.91 300.8,-92.17 160.4,-41.24 340.5,-173.02 488.6,-96.37 78.2,40.51 -61.2,13.81 -93.9,15.21 -115.7,4.94 -218.8,70.35 -339.7,56.63 -129.8,-14.72 -256.2,-56.3 -387.7,-56.63 l 454.6,60.61"
         style="fill:#f07c03;fill-opacity:1;fill-rule:nonzero;stroke:none"
         id="path150" /><path
         d="m 15152.9,3490.19 c 2080.9,0 8302.5,294.92 6242.7,0 -832.9,-119.25 -1675.4,-70.65 -2513.6,-86.8 -1404,-27.06 -2808.1,-31.46 -4212.4,-28.35 -384.5,0.86 -1537.7,-9.49 -1153.2,-11.24 475.2,-2.16 949.4,32.13 1423.7,58.56 189,10.53 750.6,-17.56 569.2,27.19 -115.5,28.5 -238,29 -356.4,40.64"
         style="fill:#f07c03;fill-opacity:1;fill-rule:nonzero;stroke:none"
         id="path152" /><path
         d="m 10152.6,3717.26 c 662.3,-3.58 1324.3,-5.97 1986.7,-11.07 661.9,-5.09 1323.5,20.19 1984.7,46 335.5,13.09 690.8,-67.53 1006,48.13 59.5,21.81 -131.4,23.54 -167.5,22.59 -283,-7.43 -566.1,-4.62 -849.2,-1.71 -279.1,2.86 -555.3,-40.17 -834.1,-51.55 -732.1,-29.9 -1464.8,-11.1 -2197.4,-28.96 -304.6,-7.44 -608.9,-24.81 -913.7,-23.6 -165.2,0.65 -329.72,26.02 -488.58,67.8 -125.52,33.02 -255.82,33.19 -383.13,55.81 -118.29,21.02 149.36,-26.02 202.71,-32.64 227.3,-28.19 454.98,-57.58 683.8,-69.51 l -30.3,-21.29"
         style="fill:#f07c03;fill-opacity:1;fill-rule:nonzero;stroke:none"
         id="path154" /><path
         d="m 7970.67,3198.03 c -999.65,14.26 -1999.49,-1.6 -2999.19,9.72 -580.3,6.57 -1160.82,-3.87 -1741.05,7.8 -81.23,1.64 -197.43,10 -47.61,15.99 910.86,36.39 1822.77,19.51 2734.06,13.79 993.94,-6.24 1987.75,14.24 2981.78,11.8 821.02,-2.02 1668.54,194.56 2463.04,-12.44 62.1,-16.18 -149.1,-27.01 -201.2,-28.87 -742.5,-26.5 -1484.89,-65.46 -2228.05,-55.12 -331.35,4.61 -661.59,13.31 -993.58,34.11 -39.86,2.49 -79.8,3.2 -119.73,3.22 h 151.53"
         style="fill:#f07c03;fill-opacity:1;fill-rule:nonzero;stroke:none"
         id="path156" /><path
         d="m 5272.05,3803.36 c -228.05,-0.68 -456.14,-8.74 -683.63,-20.58 -471.22,-24.52 -943.28,-16.65 -1414.71,-33.22 C 2621.25,3730.15 2069.12,3708.7 1516,3701.78 1176.34,3697.52 541.852,3697.9 0,3698.13 v -97.78 c 101.332,-6.57 202.684,-13.05 303.605,-24.4 775.385,8.21 1551.375,-11 2326.035,42.53 691.82,47.82 1382.77,120.37 2076.16,133.92 294.68,5.76 590.16,-3.1 883.94,20.69 49.76,4.02 248.84,14.83 214.05,16.81 -177.02,10.08 -354.37,14 -531.74,13.46"
         style="fill:#f07c03;fill-opacity:1;fill-rule:nonzero;stroke:none"
         id="path158" /><path
         d="m 34093.7,3841.96 c -1737.1,-38.55 -3474.7,-2.24 -5212,-10.05 -307.7,-1.39 -1230.6,2.72 -922.9,3.41 1058.1,2.42 2115.8,-22.79 3173.8,-46.48 1319.5,-29.55 2639.4,-54.45 3959.3,-45.57 273.3,1.84 1084.7,-61.06 820.1,6.89 -158.7,40.74 -329.6,32.45 -493.9,33.39 -295.3,1.69 -590,18.86 -884.9,30.79 -216,8.74 -440.9,-30.3 -651.6,27.62 h 212.1"
         style="fill:#f07c03;fill-opacity:1;fill-rule:nonzero;stroke:none"
         id="path160" /><path
         d="m 23153.3,3121.37 c 1838.2,-38.18 3676.3,50.07 5514.6,30.31 318.1,-3.43 637.1,14.74 954.4,-8.01 158.7,-11.38 628.7,-52.7 501,-52.6 -1879.8,1.44 -3760,-74.81 -5639.2,-28.03 -604,15.04 -1212.2,95.86 -1812.9,13.81 -147,-20.08 -283.3,30.07 -421.8,61.45 -56.9,12.9 -239.5,6.43 -81.1,16.51 286,18.2 706.5,278.69 863.7,27.17 68.8,-110.02 340.8,5.35 312,-1.97 -64.5,-16.41 -127.5,-37.93 -190.7,-58.64"
         style="fill:#f07c03;fill-opacity:1;fill-rule:nonzero;stroke:none"
         id="path162" /><path
         d="M 421.496,18800.4 C 265.438,18800.3 127.863,18799.8 0,18799 v -62.5 c 832.422,-30.2 3141.8,-76.5 2947.41,-93.1 -633.64,-54 -2019.566,-67.3 -2947.41,-72.7 v -21.8 c 601.43,10.4 1203.97,33.5 1793.07,-76 3325.89,-143.5 6661.59,-52.4 9992.23,-60.2 1748.3,-4.1 6993.2,-21.6 5245,-2.6 -1446,15.6 -5782.7,87 -4337,95.7 1327.6,8 5309.6,15 3982.9,27.3 -2293.3,21.4 -7032.57,45.4 -10289.06,57.9 -991.81,-6.2 -1947.05,-8 -2544.93,-3.1 -1981.69,16 -270.8,13.9 2544.93,3.1 2336.52,14.6 4881.36,54.3 3473.79,92.6 -2168.06,59.1 -7181.87,118.6 -9439.434,116.8"
         style="fill:#e97009;fill-opacity:1;fill-rule:nonzero;stroke:none"
         id="path164" /><path
         d="m 7359.55,17866.7 c 3484.65,-140.8 6979.15,-55 10468.45,-61.2 1589.6,-2.8 6358.3,-18.9 4768.8,-1.7 -1446.1,15.7 -5782.7,87 -4337.1,95.8 1327.6,8 5309.7,15.7 3983,27.3 -4277.3,37.6 -17111.03,83.6 -12834.01,54.7 2006.31,-13.5 8023.91,42.4 6018.71,95.8 -3303.7,88 -13215.26,181 -9913.17,54.7 786.72,-30.1 3197.94,-78 2999.65,-94.9 -1031.78,-88 -4063.38,-68 -3852.25,-81.9 896.7,-59.2 1812.5,76 2697.92,-88.6"
         style="fill:#ee8716;fill-opacity:1;fill-rule:nonzero;stroke:none"
         id="path166" /><path
         d="m 37500,20063.2 c -2390,-4.2 -7028.8,-61.1 -9091.7,-116.1 -1501.7,-40 1496,-81.4 3938.8,-93.9 2540.1,9.1 3955.2,10.8 2079.9,-1.9 -503.8,-3.4 -1260.7,-2.4 -2079.9,1.9 -3253.1,-11.7 -8352.2,-35.5 -10754.1,-56.6 -1326.7,-11.6 2655.4,-19.3 3982.9,-27.3 1445.7,-8.8 -2891,-80.1 -4337,-95.8 -1589.5,-17.2 3179.2,-1.1 4768.8,1.7 3489.3,6.2 6983.8,-79.6 10468.4,61.2 337.8,62.8 680,81.9 1023.9,84.9 v 19.1 c -809.7,8.5 -1704.3,26.1 -2178.2,66.5 -149.1,12.7 1176.6,42.9 2178.2,70 v 86.3"
         style="fill:#ee8716;fill-opacity:1;fill-rule:nonzero;stroke:none"
         id="path168" /><path
         d="M 3183.98,22500 C 2816.26,16484.4 4496.99,4923.88 5276.43,0 H 9253.62 C 6602.12,9127.1 5584.51,19245.3 5309.99,22500 H 3183.98"
         style="fill:#000000;fill-opacity:1;fill-rule:nonzero;stroke:none"
         id="path170" /><path
         d="M 34316,22500 C 34683.7,16484.4 33003,4923.88 32223.6,0 h -3977.2 c 2651.5,9127.1 3669.1,19245.3 3943.6,22500 h 2126"
         style="fill:#000000;fill-opacity:1;fill-rule:nonzero;stroke:none"
         id="path172" /><path
         d="m 2582.45,22500 c 43.77,-117.5 83.25,-210.2 115.44,-264.9 63.02,-107.2 62.52,25.3 30.6,264.9 z m 267.02,0 62.7,-243.5 -7.69,243.5 z m 288.07,0 53.2,-329.2 -10.97,329.2 z m 269.2,0 84,-479.2 -16.16,479.2 z m 176.62,0 57.38,-522.1 11.99,522.1 z m 328.42,0 136.11,-800.7 -51.11,800.7 z m 289.48,0 210.91,-907.8 -70.61,907.8 z m 252.94,0 215.11,-1143.5 -24.86,1143.5 z m 299.63,0 215.48,-1400.7 59.6,1400.7 z m 341.35,0 109.85,-1679.2 104.95,1679.2 z m 214.8,0 c 16.62,-12.4 33.22,-24.8 49.8,-37.2 l 123.82,-1963.5 209.87,1714 c 18.32,-13.6 36.62,-27.3 54.9,-41.1 l 35.23,-1972.9 228.21,1755.5 c 13.23,-11.3 26.45,-22.6 39.65,-33.9 l -53.57,-2107.3 295.29,1900.9 c 11.67,-9.9 23.34,-19.9 34.99,-29.8 l -73.14,-1956.8 264.74,1782.6 c 10.75,-10.3 21.48,-20.7 32.2,-31.1 l -125.51,-2115.8 359.84,1889.2 c 13.72,-13.2 27.42,-26.5 41.1,-39.8 l -143.8,-2085.1 380.77,1849.4 c 14.44,-15.6 28.85,-31.4 43.23,-47.1 l -145.43,-2145.1 332.71,1940.8 c 12.44,-13.6 24.86,-27.1 37.25,-40.7 l -91.39,-2028.7 260.92,1843.8 c 13.79,-15 27.55,-30 41.29,-45.1 l -87.92,-2163 281.38,1932.1 c 7.35,-8.9 14.68,-17.7 22,-26.6 l -131.95,-2205.5 322.66,1973.9 c 10.7,-14.3 21.38,-28.6 32.02,-43 l -76.11,-2359.5 365.13,1971.7 c 10.41,-13.9 20.8,-27.9 31.16,-41.8 l -203.43,-2422.7 454.51,2064.3 c 8.55,-13 17.07,-26 25.56,-39 l -265.79,-2411 419.97,2176.2 c 5.8,-8.8 11.59,-17.7 17.37,-26.5 l -287.34,-2471.2 502.44,2125.8 c 7.66,-13.4 15.29,-26.7 22.9,-40 l -289.62,-2471.5 587.4,1951.7 c 7.8,-15.6 15.56,-31.1 23.28,-46.7 l -417.83,-2355 572.31,2041.3 c 6.88,-13.9 13.72,-27.8 20.54,-41.7 l -421.42,-2471 666.02,1939.3 c 7.4,-17.8 14.74,-35.5 22.03,-53.3 l -409.48,-2378.9 638.39,1799.1 c 6.16,-18.3 12.25,-36.5 18.28,-54.7 l -506.67,-2494.4 640.16,2094.9 c 3.8,-11.3 7.6,-22.7 11.3,-34 l -565.74,-2575.2 698.94,2076.8 c 2.8,-11.1 5.6,-22.1 8.4,-33.2 l -600.2,-2600.7 712.9,2059.4 c 2.1,-12.8 4.3,-25.5 6.4,-38.3 -126.3,-502.3 -590.73,-2353.7 -590.73,-2428.2 0,-73.3 523.23,1261.9 682.13,1669 1.9,-23.9 3.8,-47.6 5.5,-71.3 l -559.06,-2197.7 565.56,1473.2 c 602.1,2135.1 -1309.48,5990.5 -3000.28,7858.3 -393.45,548 -833.14,1021.2 -1297.85,1433.4 h -898.19"
         style="fill:#360b01;fill-opacity:1;fill-rule:nonzero;stroke:none"
         id="path174" /><path
         d="m 31359.8,22500 c -174,-199.2 -341.8,-409.7 -501.9,-632.7 -1690.8,-1867.8 -3602.4,-5723.3 -3000.3,-7858.4 l 565.6,-1473.2 -559.1,2197.8 c 1.7,23.7 3.6,47.4 5.6,71.2 158.9,-407.1 682.1,-1742.3 682.1,-1669 0,74.6 -464.5,1926 -590.8,2428.3 2.1,12.7 4.3,25.5 6.5,38.3 l 712.8,-2059.4 -600.2,2600.7 c 2.8,11.1 5.6,22.1 8.4,33.2 l 698.9,-2076.8 -565.7,2575.2 c 3.7,11.3 7.5,22.6 11.4,34 l 640.1,-2094.9 -506.7,2494.3 c 6,18.3 12.1,36.5 18.3,54.8 l 638.4,-1799.1 -409.5,2378.9 c 7.3,17.7 14.6,35.5 22,53.2 l 666.1,-1939.3 -421.5,2471.1 c 6.8,13.9 13.7,27.7 20.6,41.6 l 572.3,-2041.2 -417.9,2355 c 7.8,15.6 15.5,31.1 23.3,46.7 l 587.4,-1951.7 -289.6,2471.5 c 7.6,13.3 15.2,26.6 22.9,39.9 l 502.5,-2125.7 -287.4,2471.2 c 5.8,8.8 11.6,17.6 17.4,26.4 l 419.9,-2176.2 -265.7,2411.1 c 8.5,13 17,26 25.5,38.9 l 454.5,-2064.3 -203.4,2422.7 c 10.4,14 20.7,27.9 31.2,41.8 l 365.1,-1971.6 -76.1,2359.5 c 10.6,14.3 21.3,28.7 32,43 l 322.7,-1973.9 -132,2205.5 c 7.3,8.9 14.7,17.7 22,26.6 l 281.4,-1932.1 -87.9,2163 c 13.7,15 27.5,30.1 41.3,45 l 260.9,-1843.8 -91.4,2028.8 c 12.4,13.6 24.8,27.1 37.2,40.6 l 332.7,-1940.8 -145.4,2145.1 c 14.4,15.8 28.8,31.5 43.3,47.2 l 380.7,-1849.4 -143.8,2085.1 c 13.7,13.3 27.4,26.5 41.1,39.8 l 359.8,-1889.2 -125.4,2115.8 c 10.7,10.4 21.4,20.7 32.1,31.1 l 264.8,-1782.6 -73.2,1956.7 c 5.8,4.9 11.5,9.8 17.2,14.7 z m 713.3,0 292.9,-1885.7 -47.9,1885.7 z m 312.2,0 195,-1500 26.8,1500 z m 348.1,0 146.9,-1200 75.7,1200 z m 370.6,0 54.9,-878.6 57.5,878.6 z m 265.1,0 25.5,-600 92.3,600 z m 333,0 -7.5,-342.9 64.5,342.9 z m 258,0 -8.3,-107.1 24.8,107.1 z"
         style="fill:#360b01;fill-opacity:1;fill-rule:nonzero;stroke:none"
         id="path176" /><path
         d="M 2304.27,22500 C 2169.62,22328.6 2039,22149.4 1913.14,21962.1 1254.98,21185 563.313,20085.4 0,18897.9 v -820.3 l 531.008,-2024.2 -417.059,2512.3 c 7.707,16.6 15.449,33.2 23.235,49.8 l 586.304,-2082 -289.074,2636.5 c 7.59,14.3 15.207,28.5 22.852,42.7 L 958.77,16944.9 671.969,19581.2 c 5.769,9.4 11.551,18.8 17.344,28.2 L 1108.49,17287.9 843.195,19860 c 8.477,13.8 16.989,27.7 25.516,41.5 l 453.649,-2202.2 -203.04,2584.5 c 10.34,14.9 20.7,29.8 31.09,44.6 l 364.46,-2103.3 -75.98,2517.1 c 10.62,15.3 21.28,30.6 31.96,45.9 l 322.06,-2105.8 -131.7,2352.8 c 7.31,9.5 14.62,19 21.95,28.4 l 280.86,-2061.2 -87.76,2307.5 c 13.71,16.1 27.45,32.1 41.22,48.1 l 260.43,-1967 -91.23,2164.3 c 12.37,14.5 24.78,28.9 37.2,43.4 l 332.08,-2070.5 -145.16,2288.4 c 14.36,16.8 28.73,33.6 43.15,50.3 L 2734,19893.9 2590.47,22118.3 c 13.66,14.2 27.32,28.3 41.02,42.4 l 359.17,-2015.4 -125.28,2257.1 c 10.7,11.1 21.41,22.2 32.14,33.2 l 264.24,-1901.7 -68.74,1966.1 z m 841.7,0 272.46,-1874.6 -44.6,1874.6 z m 308.38,0 177.97,-1463.1 24.44,1463.1 z m 346.44,0 130.97,-1143.1 67.44,1143.1 z m 362.21,0 46.8,-800.2 48.99,800.2 z m 262.06,0 20.02,-503 72.41,503 z m 324.11,0 -4.66,-228.7 40.26,228.7 z M 0,17805.9 v -1135.4 l 359.898,-1120 z m 0,-2273 v -261.7 L 81.8555,15024.7 0,15532.9"
         style="fill:#360b01;fill-opacity:1;fill-rule:nonzero;stroke:none"
         id="path178" /><path
         d="m 32440.4,22500 17.5,-113.7 4.9,113.7 z m 227.6,0 25.7,-392.3 24.5,392.3 z m 259.2,0 45,-713.7 87.4,713.7 z m 326.9,0 18.1,-1013.7 131.8,1013.7 z m 268,0 -35.6,-1399.4 217.4,1399.4 z m 277.1,0 -55.5,-1485.1 220.5,1485.1 z m 225.6,0 -109.7,-1849.4 352.3,1849.4 z m 291.2,0 -143.8,-2085.1 380.8,1849.4 c 14.4,-15.7 28.9,-31.4 43.2,-47.2 l -145.4,-2145.1 332.7,1940.8 c 12.4,-13.5 24.9,-27 37.3,-40.6 l -91.4,-2028.8 260.9,1843.8 c 13.8,-14.9 27.5,-30 41.3,-45 l -87.9,-2163 281.3,1932.1 c 7.4,-8.9 14.7,-17.7 22,-26.6 l -131.9,-2205.5 322.7,1973.9 c 10.7,-14.3 21.3,-28.7 32,-43 l -76.1,-2359.5 365.1,1971.6 c 10.4,-13.9 20.8,-27.8 31.1,-41.8 l -203.4,-2422.7 454.5,2064.3 c 8.6,-12.9 17.1,-25.9 25.6,-38.9 l -265.8,-2411.1 420,2176.2 c 5.8,-8.8 11.6,-17.6 17.3,-26.4 l -287.3,-2471.2 502.4,2125.7 c 7.7,-13.3 15.3,-26.6 22.9,-39.9 l -289.6,-2471.5 587.4,1951.7 c 7.8,-15.6 15.6,-31.2 23.3,-46.7 l -417.8,-2355 572.3,2041.2 c 6.9,-13.9 13.7,-27.8 20.5,-41.6 l -421.4,-2471.1 666,1939.3 c 7.4,-17.7 14.8,-35.5 22,-53.2 l -409.4,-2378.9 638.4,1799.1 c 6.1,-18.3 12.2,-36.5 18.2,-54.8 l -506.6,-2494.3 520.6,1703.9 v 1358.6 c -611,1587.2 -1590.5,3179.8 -2505.4,4190.5 -35.5,49.4 -71.4,98.2 -107.6,146.4 z m 3184,-5934.1 -434.9,-1979.6 434.9,1292.3 z m 0,-1116.4 -327.8,-1420.3 327.8,946.9 z m 0,-972.8 c -109.8,-448.1 -199.2,-822.2 -199.2,-854.7 0,-29.7 86.4,173.3 199.2,450.8 z m 0,-1177 -70.6,-277.7 70.6,184 z"
         style="fill:#360b01;fill-opacity:1;fill-rule:nonzero;stroke:none"
         id="path180" /><path
         d="m 29525.1,22500 c -728.2,-1591.5 -1151.8,-3275.6 -822.3,-4444.3 l 565.6,-1473.3 -559.1,2197.8 c 1.8,23.7 3.6,47.4 5.6,71.2 158.9,-407 682.1,-1742.3 682.1,-1669 0,74.6 -464.4,1926 -590.8,2428.3 2.2,12.8 4.3,25.5 6.5,38.3 l 712.9,-2059.4 -600.2,2600.7 c 2.8,11.1 5.5,22.1 8.4,33.2 l 698.9,-2076.8 -565.8,2575.2 c 3.8,11.3 7.6,22.7 11.4,34 l 640.1,-2094.9 -506.7,2494.4 c 6.1,18.2 12.2,36.4 18.3,54.7 l 638.4,-1799.1 -409.5,2378.9 c 7.3,17.7 14.7,35.5 22.1,53.3 l 666,-1939.3 -421.4,2471 c 6.8,13.9 13.6,27.8 20.5,41.6 l 572.3,-2041.2 -377,2124.7 z m 482.1,0 504.1,-1674.7 -196.3,1674.7 z m 435.1,0 304.7,-1289 -149.9,1289 z m 268,0 186.7,-967.6 -106.7,967.6 z m 272.8,0 128.2,-581.9 -48.9,581.9 z m 304.5,0 16.5,-89 -2.8,89 z"
         style="fill:#360b01;fill-opacity:1;fill-rule:nonzero;stroke:none"
         id="path182" /><path
         d="m 3581.78,22500 4.68,-7 -2.94,7 z m 250.4,0 87.84,-159 -63.35,159 z m 296.5,0 182.15,-331.4 -110.2,331.4 z m 348.95,0 233.95,-474.4 -153.94,474.4 z m 270.56,0 324.36,-735 -218.92,735 z m 294.36,0 298.8,-699.2 -213.21,699.2 z m 226.1,0 385.75,-959.2 -251.18,959.2 z m 304.41,0 415.5,-1062 -261.71,1062 z m 323.26,0 492.38,-1254.2 -352.69,1254.2 z m 276.71,0 522.43,-1248.4 -389.86,1248.4 z m 243.29,0 630.77,-1489.2 -458.6,1489.2 z m 237.22,0 678.59,-1689.8 -489.04,1689.8 z m 266.28,0 849.81,-1961.2 -524.04,1961.2 z m 365.43,0 872.76,-2330.5 -490.58,2111.6 c 13.34,-8.1 26.66,-16.3 39.96,-24.5 l 811.57,-2347.7 -570.44,2199.6 c 9.07,-5.6 18.12,-11.1 27.18,-16.7 l 818.36,-2412.9 -474.22,2189.8 c 12.7,-8.9 25.36,-17.7 38.02,-26.7 l 816.46,-2414.2 -321.9,2067 c 13.79,-10.9 27.56,-21.8 41.29,-32.7 l 650.29,-2363.9 -374.5,2143 c 12.24,-9.7 24.45,-19.5 36.63,-29.3 l 697.62,-2472.8 -245.74,2090.8 c 14.4,-13.1 28.76,-26.3 43.06,-39.4 l 668.23,-2382.2 -209.5,1948.7 c 13.5,-14.1 26.9,-28.2 40.3,-42.4 l 631,-2532.5 -336.8,2223 c 8.3,-8.8 16.7,-17.6 25,-26.4 l 613.1,-2633.6 -276,2232.5 c 7.3,-8.9 14.7,-17.9 22,-26.9 l 593.3,-2672.7 -256,2222.8 c 7.6,-10.9 15.1,-21.7 22.5,-32.5 105.3,-520.9 494.1,-2440.1 526.6,-2509.1 32,-67.7 -79.1,1400.7 -113.5,1848.1 12.2,-21.1 24.2,-42.2 36.1,-63.4 l 454.6,-2281.8 -133,1615 C 11723.5,19325 9812.34,21223.8 7892.02,22500 h -606.77"
         style="fill:#360b01;fill-opacity:1;fill-rule:nonzero;stroke:none"
         id="path184" /><path
         d="m 27041.7,6812.82 c -1772.4,-390.09 -4910.1,-627.98 -8291.7,-628.64 -3382.9,0.4 -6522.6,238.22 -8296.3,628.41 -40.3,-51.28 -61.5,-102.89 -63.5,-154.56 0,-729.62 3543.7,-3219.15 8160.7,-3219.15 4617,0 8558.9,2489.53 8558.9,3219.15 -3.5,51.76 -26.2,103.44 -68.1,154.79"
         style="fill:#000000;fill-opacity:1;fill-rule:nonzero;stroke:none"
         id="path186" /><path
         d="m 10487.3,6940.98 c 28.4,-13.84 40.1,-47.83 26.2,-76.22 l -149.9,-307.42 c -13.8,-28.38 -47.8,-40.09 -76.2,-26.25 -28.4,13.84 -40.1,47.84 -26.2,76.22 l 149.9,307.42 c 13.8,28.38 47.8,40.09 76.2,26.25"
         style="fill:#151515;fill-opacity:1;fill-rule:nonzero;stroke:none"
         id="path188" /><path
         d="m 10384.8,6990.95 c 28.4,-13.84 40.1,-47.84 26.3,-76.22 l -149.9,-307.42 c -13.9,-28.38 -47.9,-40.1 -76.3,-26.25 -28.3,13.84 -40.1,47.83 -26.2,76.22 l 149.9,307.42 c 13.8,28.38 47.8,40.09 76.2,26.25"
         style="fill:#151515;fill-opacity:1;fill-rule:nonzero;stroke:none"
         id="path190" /><path
         d="m 10282.3,7040.91 c 28.4,-13.84 40.1,-47.83 26.3,-76.21 l -149.9,-307.42 c -13.9,-28.39 -47.8,-40.1 -76.2,-26.26 -28.4,13.84 -40.1,47.84 -26.3,76.22 l 149.9,307.42 c 13.9,28.38 47.8,40.09 76.2,26.25"
         style="fill:#151515;fill-opacity:1;fill-rule:nonzero;stroke:none"
         id="path192" /><path
         d="m 7317.64,8325.75 c -5.66,-0.18 -11.2,-1.32 -16.48,-3.24 -0.95,0 -1.9,0.07 -2.87,0 l -3191.88,-155.8 c -29.75,-1.45 -52.52,-26.25 -51.05,-55.59 1.48,-29.35 26.61,-51.8 56.37,-50.35 l 3191.88,155.82 c 2.53,0.12 4.99,0.47 7.41,0.92 L 10111.5,6810.03 c 26.3,-13.19 58.1,-2.68 71.2,23.57 13.2,26.25 2.7,58 -23.5,71.19 L 7343.13,8320.08 c -8.2,4.12 -16.94,5.93 -25.49,5.67"
         style="fill:#151515;fill-opacity:1;fill-rule:nonzero;stroke:none"
         id="path194" /><path
         d="m 26992.8,6714.43 -965.6,-470.55 835.7,348.23 -680.3,-375 664.3,326.77 -439.3,-557.14 471.4,514.3 151.1,136.93 z m 42.4,-86.83 -124,-233.72 145,190.61 z"
         style="fill:#1c1c1c;fill-opacity:1;fill-rule:evenodd;stroke:none"
         id="path196" /><path
         d="m 26942.8,6947.21 c -28.4,-13.84 -40.1,-47.83 -26.3,-76.22 l 149.9,-307.42 c 13.8,-28.38 47.8,-40.09 76.2,-26.25 28.4,13.84 40.1,47.84 26.3,76.22 l -149.9,307.42 c -13.9,28.38 -47.9,40.09 -76.2,26.25"
         style="fill:#151515;fill-opacity:1;fill-rule:nonzero;stroke:none"
         id="path198" /><path
         d="m 27045.2,6997.18 c -28.4,-13.84 -40.1,-47.84 -26.2,-76.22 l 149.9,-307.42 c 13.8,-28.38 47.8,-40.09 76.2,-26.25 28.4,13.84 40.1,47.83 26.2,76.22 l -149.9,307.41 c -13.8,28.39 -47.8,40.1 -76.2,26.26"
         style="fill:#151515;fill-opacity:1;fill-rule:nonzero;stroke:none"
         id="path200" /><path
         d="m 27147.7,7047.14 c -28.4,-13.84 -40.1,-47.83 -26.3,-76.22 l 149.9,-307.41 c 13.9,-28.39 47.9,-40.1 76.3,-26.26 28.3,13.84 40.1,47.84 26.2,76.22 l -149.9,307.42 c -13.8,28.38 -47.8,40.09 -76.2,26.25"
         style="fill:#151515;fill-opacity:1;fill-rule:nonzero;stroke:none"
         id="path202" /><path
         d="m 30112.4,8331.98 c 5.6,-0.18 11.2,-1.32 16.5,-3.24 0.9,0 1.9,0.07 2.8,0 l 3191.9,-155.8 c 29.8,-1.45 52.5,-26.25 51.1,-55.59 -1.5,-29.35 -26.6,-51.8 -56.4,-50.35 l -3191.9,155.82 c -2.5,0.12 -5,0.47 -7.4,0.92 L 27318.5,6816.26 c -26.3,-13.19 -58,-2.68 -71.2,23.57 -13.2,26.25 -2.7,58 23.6,71.19 l 2816,1415.29 c 8.2,4.12 16.9,5.93 25.5,5.67"
         style="fill:#151515;fill-opacity:1;fill-rule:nonzero;stroke:none"
         id="path204" /><path
         d="m 10453.7,6812.59 c 7443,-2696.87 15139.9,-531.91 16537.8,-95.39 l -35.8,73.42 c -8624.7,-2214.35 -16502,21.97 -16502,21.97"
         style="fill:#595959;fill-opacity:1;fill-rule:nonzero;stroke:none"
         id="path206" /><path
         d="m 10469.2,6773.77 -56.4,-115.57 166.5,-218.86 -139.3,262.5 171.5,-155.35 471.4,-514.29 -439.3,557.14 664.3,-326.78 -680.4,375 835.8,-348.22 -994.1,484.43"
         style="fill:#232323;fill-opacity:1;fill-rule:nonzero;stroke:none"
         id="path208" /><path
         d="m 10487.3,6940.98 c 28.4,-13.84 40.1,-47.83 26.2,-76.22 l -149.9,-307.42 c -13.8,-28.38 -47.8,-40.09 -76.2,-26.25 -28.4,13.84 -40.1,47.84 -26.2,76.22 l 149.9,307.42 c 13.8,28.38 47.8,40.09 76.2,26.25"
         style="fill:#151515;fill-opacity:1;fill-rule:nonzero;stroke:none"
         id="path210" /><path
         d="m 10384.8,6990.95 c 28.4,-13.84 40.1,-47.84 26.3,-76.22 l -149.9,-307.42 c -13.9,-28.38 -47.9,-40.1 -76.3,-26.25 -28.3,13.84 -40.1,47.83 -26.2,76.22 l 149.9,307.42 c 13.8,28.38 47.8,40.09 76.2,26.25"
         style="fill:#151515;fill-opacity:1;fill-rule:nonzero;stroke:none"
         id="path212" /><path
         d="m 10282.3,7040.91 c 28.4,-13.84 40.1,-47.83 26.3,-76.21 l -149.9,-307.42 c -13.9,-28.39 -47.8,-40.1 -76.2,-26.26 -28.4,13.84 -40.1,47.84 -26.3,76.22 l 149.9,307.42 c 13.9,28.38 47.8,40.09 76.2,26.25"
         style="fill:#151515;fill-opacity:1;fill-rule:nonzero;stroke:none"
         id="path214" /><path
         d="m 16542.9,4435.71 c 0,0 4050,-492.85 6107.1,278.58 2057.1,771.42 2207.1,814.28 2207.1,814.28 0,0 -3042.8,-1371.43 -3621.4,-1414.28 -578.6,-42.86 -1264.3,-21.43 -4692.8,321.42"
         style="fill:#141414;fill-opacity:1;fill-rule:nonzero;stroke:none"
         id="path216" /><path
         d="m 22735.7,4178.57 c 0,0 -4050,-492.86 -6107.1,278.57 -2057.2,771.43 -2207.2,814.29 -2207.2,814.29 0,0 3042.9,-1371.43 3621.5,-1414.29 578.5,-42.85 1264.2,-21.43 4692.8,321.43"
         style="fill:#141414;fill-opacity:1;fill-rule:nonzero;stroke:none"
         id="path218" /><path
         d="m 11250,4114.29 c -295.9,0 -535.7,-436.52 -535.7,-975 0.1,-226.22 43.5,-445.32 122.7,-619.74 277.4,4.54 554.8,9.34 832.2,14.32 75.3,172.11 116.3,385.48 116.5,605.42 0,538.48 -239.8,975 -535.7,975"
         style="fill:#000000;fill-opacity:1;fill-rule:nonzero;stroke:none"
         id="path220" /><path
         d="m 10143.9,4114.29 c -295.88,0 -535.72,-436.52 -535.72,-975 0.23,-233.63 46.55,-459.33 130.53,-636.03 272.19,3.56 544.29,7.46 816.49,11.73 80.3,175.2 124.3,396.12 124.4,624.3 0,538.48 -239.9,975 -535.7,975"
         style="fill:#000000;fill-opacity:1;fill-rule:nonzero;stroke:none"
         id="path222" /><path
         d="m 11267.3,3771.05 c -32.7,-0.04 -60.5,-23.55 -66,-55.71 -146.4,-38.47 -303.1,-238.26 -387.9,-494.43 -51.7,-156.43 -70.6,-316.61 -52.6,-445.29 18.1,-128.68 71.7,-215.33 148.9,-240.87 27.2,-8.8 56.8,-9.88 87.9,-3.21 -152.6,63.55 -190.4,364.69 -85.7,681.8 67,201.9 180.3,372.66 300.3,452.58 12.5,-18.1 33.1,-28.92 55.1,-28.95 22.1,0 42.8,10.92 55.3,29.18 120.3,-79.42 234.1,-250.38 301.4,-452.81 104.8,-317.11 66.9,-618.25 -85.7,-681.8 31.1,-6.67 60.7,-5.59 87.9,3.21 77.3,25.54 130.8,112.19 148.9,240.87 18,128.68 -0.9,288.86 -52.6,445.29 -85.1,256.92 -242.5,456.9 -389.1,494.39 -5.6,32.2 -33.5,55.75 -66.1,55.75"
         style="fill:#666666;fill-opacity:1;fill-rule:nonzero;stroke:none"
         id="path224" /><path
         d="m 10151.9,3767.17 c -32.6,-0.04 -60.5,-23.56 -66,-55.72 -146.37,-38.49 -303.09,-238.27 -387.86,-494.43 -51.72,-156.44 -70.63,-316.62 -52.56,-445.3 18.06,-128.68 71.61,-215.32 148.88,-240.86 27.19,-8.81 56.78,-9.89 87.9,-3.22 -152.59,63.55 -190.46,364.7 -85.72,681.8 66.99,201.9 180.28,372.66 300.26,452.6 12.5,-18.11 33.1,-28.93 55.1,-28.97 22.1,0 42.8,10.92 55.3,29.18 120.4,-79.42 234.2,-250.37 301.5,-452.81 104.7,-317.1 66.8,-618.25 -85.8,-681.8 31.2,-6.67 60.7,-5.59 87.9,3.22 77.3,25.54 130.9,112.18 148.9,240.86 18.1,128.68 -0.8,288.86 -52.5,445.3 -85.2,256.92 -242.6,456.91 -389.2,494.39 -5.5,32.21 -33.4,55.76 -66.1,55.76"
         style="fill:#666666;fill-opacity:1;fill-rule:nonzero;stroke:none"
         id="path226" /><path
         d="m 16849.3,21156.5 c 1980,5.3 7915.4,198.9 5939.7,69.5 -1222.6,-80.1 -4712.7,-190.1 -3972.8,-202.6 3003.1,-50.6 12001.8,240.8 9003.4,91.5 -2602,-129.6 -10427.5,-295.2 -7818.6,-305.6 2424.4,-9.6 9692.4,156.5 7273.1,0 -2924.2,-189 -5859.4,-145.9 -8788.3,-208.3 -2625,-55.8 -10505.48,-55 -7879.2,-27.7 2384.2,24.7 9536,66.2 7151.9,97.2 -2242.3,29.1 -8956.76,-149.2 -6727.6,83.3 2018.7,210.5 4099,-39.8 6085,321.2 l -83.5,34.8 -183.1,46.7"
         style="fill:#e67109;fill-opacity:1;fill-rule:nonzero;stroke:none"
         id="path228" /></g></g></svg>
