<?xml version="1.0" encoding="UTF-8" standalone="no"?>
<!-- Generator: Adobe Illustrator 18.0.0, SVG Export Plug-In . SVG Version: 6.00 Build 0)  -->

<svg
   version="1.1"
   id="Layer_1"
   x="0px"
   y="0px"
   viewBox="0 0 480.35999 970.59998"
   enable-background="new 0 0 2800 2800"
   xml:space="preserve"
   sodipodi:docname="woodgrain-01.svg"
   width="480.35999"
   height="970.59998"
   inkscape:version="1.1.1 (c3084ef, 2021-09-22)"
   xmlns:inkscape="http://www.inkscape.org/namespaces/inkscape"
   xmlns:sodipodi="http://sodipodi.sourceforge.net/DTD/sodipodi-0.dtd"
   xmlns="http://www.w3.org/2000/svg"
   xmlns:svg="http://www.w3.org/2000/svg"><defs
   id="defs6153">
	
	
	
	
	
	
	
	
	
	
</defs><sodipodi:namedview
   id="namedview6151"
   pagecolor="#ffffff"
   bordercolor="#666666"
   borderopacity="1.0"
   inkscape:pageshadow="2"
   inkscape:pageopacity="0.0"
   inkscape:pagecheckerboard="0"
   showgrid="false"
   fit-margin-top="0"
   fit-margin-left="0"
   fit-margin-right="0"
   fit-margin-bottom="0"
   inkscape:zoom="0.20107143"
   inkscape:cx="2330.0178"
   inkscape:cy="-340.67496"
   inkscape:window-width="1296"
   inkscape:window-height="785"
   inkscape:window-x="0"
   inkscape:window-y="25"
   inkscape:window-maximized="0"
   inkscape:current-layer="Layer_1" />
<g
   id="g6108"
   transform="translate(-241.09518,-1680.9)">
		<path
   fill="#ab7c50"
   d="m 697.9,2207.7 c 2.4,-60.1 -9.8,-217.4 -2.4,-286.4 7.3,-69 -4.8,-230.2 -9.8,-231.4 -4.9,-1.3 -47.7,9 -56.3,9 -8.6,0 -14.7,-1.3 -31.8,2.6 -17.1,3.8 -25.7,7.7 -42.8,7.7 0,0 -11,62.7 -19.6,55 -8.6,-7.7 -13.5,-55 -17.1,-56.3 -3.7,-1.3 -25.7,-6.4 -31.8,-5.1 l -29.4,-2.6 c -17.1,0 -69.7,1.3 -75.8,3.8 -6.1,2.6 -12.2,135.5 -12.2,135.5 0,0 -19.6,-130.4 -25.7,-131.7 -6.1,-1.3 -80.7,-6.4 -91.7,-1.3 0,0 4.9,115.1 0,162.4 -4.9,47.3 4.9,148.3 0,185.4 -4.9,37.1 9.8,168.8 3.7,200.8 -6.1,32 -4,314.6 -5.1,329.9 -1.1,15.3 7.5,57.5 7.5,57.5 0,0 78.3,-3.8 108.8,-10.2 0,0 14.7,-3.8 12.2,-58.8 0,0 13.5,-19.2 24.5,58.8 0,0 40.4,-6.4 52.6,-17.9 l 63.6,-10.2 58.7,-3.8 c 0,0 -1.2,-16.6 4.9,-20.5 6.1,-3.8 59.9,-11.5 59.9,-11.5 l 15.9,34.5 h 53.8 c 0,0 -1.2,-159.8 0,-228.9 1.3,-69.1 -17,-106.2 -14.6,-166.3 z"
   id="path6044" />
		<g
   id="g6062">
			<path
   fill="#c1976c"
   d="m 696,2469.9 c 2.6,28.4 8.5,55.7 16.3,82.4 -0.3,-52.9 -0.5,-134.2 0.3,-178.4 0.4,-20.8 -1,-38.7 -3.1,-55.2 -11.9,49.4 -18.2,100 -13.5,151.2 z"
   id="path6046" />
			<path
   fill="#c1976c"
   d="m 646.1,2568 c -9.3,-46.2 -15.8,-94.7 -19.1,-142.2 -3.4,-48.3 -1,-95.5 11.6,-141.6 12,-44 30.8,-85.2 50.3,-124.4 2.8,-5.7 5.7,-11.3 8.5,-16.9 -0.5,-17.9 -1.2,-37.4 -1.9,-57.3 -5.7,10.9 -11.3,21.7 -17,32.6 -20.8,40.5 -41,82.1 -55.2,127.1 -14.4,45.6 -20.6,92.8 -17.6,141.9 3,48.9 11.7,97.7 19.9,145.6 2.1,12.5 4.5,24.8 7.2,37 6,-0.9 10,-1.5 10,-1.5 l 1.2,2.5 c 0.9,-0.1 1.7,-0.3 2.6,-0.4 -0.2,-0.8 -0.4,-1.6 -0.5,-2.4 z"
   id="path6048" />
			<path
   fill="#c1976c"
   d="m 616.7,2233.5 c 14.1,-78.2 31.4,-155.4 52,-231.2 5.1,-19 10.5,-37.8 16,-56.6 3.9,-13.2 8.6,-26.3 12,-39.8 1.1,-18 1.3,-39.6 0.9,-62.2 -3.9,-17.7 -10.3,-35 -15.6,-51.5 -10.4,-31.8 -21.9,-62.9 -34.6,-93.3 0,0 -0.1,0 -0.1,0 -6.9,0 -12.3,-0.9 -23.3,0.9 9.2,21.2 17.8,42.9 25.8,64.8 10.5,28.9 21.1,58.8 28.3,89.4 4.5,18.9 1.4,35.1 -4,53.1 -5.3,17.9 -10.8,35.8 -15.9,53.8 -21,74.1 -39,149.6 -53.8,226.1 -14.6,75.6 -28.9,153.5 -31.5,231.5 -1.3,37.9 0.8,76.1 7.9,113 3,15.5 6.8,30.7 11,45.7 5.6,-1.3 13.1,-2.7 20.6,-4 -9.4,-33.4 -16.9,-67.5 -18.9,-103.6 -4.4,-79.5 9.3,-159.2 23.2,-236.1 z"
   id="path6050" />
			<path
   fill="#c1976c"
   d="m 517.4,2504.7 c -4.9,-38.7 3.1,-77.6 10.5,-114.9 15.7,-79.5 31.5,-159.1 47.4,-238.5 7.9,-39.7 15.9,-79.5 24.2,-119.1 8.4,-39.6 18.2,-79.3 24.1,-119.7 5.7,-38.7 3.4,-75.1 -8.2,-111.7 -10.1,-31.8 -22.7,-62.5 -36.8,-91.8 -1.7,0.1 -3.4,0.1 -5.2,0.1 0,0 -3.2,18.6 -7.5,34.2 3.9,8.1 7.7,16.4 11.3,24.7 13.7,31.4 27.2,66 27.6,102.5 0.5,39.1 -9.7,78.2 -16.7,115.9 -7.4,39.9 -14.8,79.9 -22.5,119.7 -15.3,78.1 -30.6,156.3 -46.1,234.4 -7.4,37.2 -16.1,74.4 -19.8,112.5 -3.4,35.3 0.6,69.7 10.6,102.8 5,16.4 11,32.2 17.4,47.8 l 19.6,-1.3 c 0,-0.1 0,-0.1 -0.1,-0.2 -13.1,-30.8 -25.4,-62.7 -29.8,-97.4 z"
   id="path6052" />
			<path
   fill="#c1976c"
   d="m 444.1,2523.2 c 4.7,-36.2 9.5,-72.5 14.9,-108.6 10.9,-72.4 24.8,-143.6 43.3,-213.6 17.5,-66.3 36.5,-134.2 33.7,-205.1 -4.5,-113.8 -55.2,-209 -111.6,-294.5 -11.6,0.6 -21,1.4 -23.4,2.4 -0.7,0.3 -1.4,2.4 -2.1,5.9 49.1,73 94.3,150.7 109.3,245.9 10.8,68.5 -1.8,135.1 -18.5,200.3 -17.7,69 -34.6,137.4 -46.4,208.6 -6,35.9 -11.1,72.1 -16,108.3 -4.8,35.7 -10.5,71.7 -13.4,107.7 -0.2,2.2 -0.3,4.3 -0.4,6.4 2.9,8.6 5.9,21.6 8.8,41.3 5.1,-1.3 10.6,-2.8 15.8,-4.6 -5.4,-32.9 1.8,-67.9 6,-100.4 z"
   id="path6054" />
			<path
   fill="#c1976c"
   d="m 350.7,2427 c 4.5,-31.2 11.7,-61.7 17.5,-92.5 6.2,-32.8 11.7,-65.9 16.9,-99 10.3,-65.2 21.8,-131.1 27,-197.4 5.1,-65.2 -1.2,-127.7 -21.5,-188.1 -5.9,-17.7 -12.5,-35.1 -19.5,-52.4 -1.4,23.3 -2.2,41.8 -2.2,41.8 0,0 -6.1,-40.4 -12.5,-76.5 -8.4,-19.1 -17.2,-37.9 -26.1,-56.5 -8,-0.6 -18.8,-1.3 -29.9,-1.7 20.2,41.8 38.4,85.7 54.5,129.8 9.8,26.7 17.8,54.3 23.1,83 5.9,31.8 6.9,64.3 5.2,96.8 -3.4,66.5 -15.7,132.6 -25.9,197.9 -5.2,33.1 -10.7,66.1 -16.7,99 -5.9,31.8 -13.2,63.2 -18.5,95.1 -10.8,65.1 -4.8,129.7 4.5,194.5 1.7,12.1 3.7,24.1 5.8,36.1 11.6,-1.2 22.4,-2.6 30.7,-4.1 -0.7,-4.1 -1.3,-8.1 -1.9,-12.2 -9.5,-63 -19.8,-129.6 -10.5,-193.6 z"
   id="path6056" />
			<path
   fill="#c1976c"
   d="m 278.7,2521.7 c 8.5,-106.6 41.1,-207.7 58.6,-312.1 16.8,-100.9 18.2,-205.1 -21.3,-298.2 -11.2,-26.3 -25.2,-51.3 -41.6,-73.7 -0.3,11.9 -0.9,22.6 -1.8,31.1 -0.5,4.4 -0.8,9.4 -1,14.6 4.6,8 9,16.3 13.1,24.9 18.6,38.7 30.8,81.9 35.3,126.8 5.1,50.3 1.4,101.6 -6.1,151.3 -10.7,70.3 -28.3,138.6 -41.9,208 -0.7,86.4 -0.2,181.8 -0.8,190.5 -0.9,13.8 5.9,49.4 7.2,56.3 1.2,-0.1 2.4,-0.2 3.7,-0.2 -5.5,-39.3 -6.6,-78.9 -3.4,-119.3 z"
   id="path6058" />
			<path
   fill="#c1976c"
   d="m 277.6,2217.5 c 3.7,-19.5 6.6,-39.3 7.7,-59.2 1.8,-33 -3.4,-66.1 -13.3,-96.6 -2,33.5 4.5,107.8 5.6,155.8 z"
   id="path6060" />
		</g>
		<g
   id="g6084">
			<g
   id="g6082">
				<path
   fill="#865c3c"
   d="m 668.4,2469.9 c 4.3,46.4 17.4,90.2 33,132.9 h 0.7 c 0,0 -0.2,-23.2 -0.3,-55.7 -7.1,-24.9 -12.5,-50.3 -15.1,-76.7 -5.1,-50.9 0.7,-102 12.4,-151.5 -1.8,-14.3 -4.1,-27.6 -6.2,-40.8 -18.6,62.2 -30.5,126.4 -24.5,191.8 z"
   id="path6064" />
				<path
   fill="#865c3c"
   d="m 595.7,2245.3 c -14.4,45.6 -20.6,92.8 -17.6,141.9 3,48.9 11.7,97.7 19.9,145.6 2.3,13.4 4.8,26.7 7.8,39.8 4.6,-0.8 9.2,-1.5 13.2,-2.2 -0.2,-0.8 -0.4,-1.6 -0.5,-2.4 -9.3,-46.2 -15.8,-94.7 -19.1,-142.2 -3.4,-48.3 -1,-95.5 11.6,-141.6 12,-44 30.8,-85.2 50.3,-124.4 8,-16.2 16.3,-32.1 24.7,-48 -0.6,-18.4 -1.3,-37.7 -1.9,-56.9 -11.2,21 -22.3,42.1 -33.2,63.3 -20.9,40.5 -41,82.2 -55.2,127.1 z"
   id="path6066" />
				<path
   fill="#865c3c"
   d="m 675.4,1689.8 c -0.5,-0.1 -1.4,-0.1 -2.6,-0.1 1.7,3.5 3.4,6.9 5.1,10.4 -0.9,-6.4 -1.8,-10.1 -2.5,-10.3 z"
   id="path6068" />
				<path
   fill="#865c3c"
   d="m 650.4,1853.9 c 4.5,18.9 1.4,35.1 -4,53.1 -5.3,17.9 -10.8,35.8 -15.9,53.8 -21,74.1 -39,149.6 -53.8,226.1 -14.6,75.6 -28.9,153.5 -31.5,231.5 -1.3,37.9 0.8,76.1 7.9,113 4,20.9 9.5,41.2 15.6,61.3 0.4,-4.9 1.5,-10.8 4.8,-12.9 1.5,-1 6.1,-2.2 12.1,-3.5 -9.9,-34.4 -17.7,-69.5 -19.8,-106.9 -4.3,-79.4 9.4,-159 23.2,-236 14.1,-78.2 31.4,-155.4 52,-231.2 5.1,-19 10.5,-37.8 16,-56.6 5.2,-17.8 12,-35.6 15.2,-54.3 5.8,-34.3 -7.8,-68.2 -17.9,-99.3 -10.4,-31.8 -21.9,-62.9 -34.6,-93.3 0,0 -0.1,0 -0.1,0 -6.9,0 -12.3,-0.9 -23.3,0.9 9.2,21.2 17.8,42.9 25.8,64.8 10.5,29.1 21.1,59 28.3,89.5 z"
   id="path6070" />
				<path
   fill="#865c3c"
   d="m 577,1870.4 c 0.5,39.1 -9.7,78.2 -16.7,115.9 -7.4,39.9 -14.8,79.9 -22.5,119.7 -15.3,78.1 -30.6,156.3 -46.1,234.4 -7.4,37.2 -16.1,74.4 -19.8,112.5 -3.4,35.3 0.6,69.7 10.6,102.8 5.2,17.2 11.6,33.7 18.3,49.9 l 9.6,-1.6 9.6,-0.6 c -0.2,-0.4 -0.4,-0.9 -0.6,-1.4 -13,-30.8 -25.3,-62.7 -29.7,-97.4 -4.9,-38.7 3.1,-77.6 10.5,-114.9 15.7,-79.5 31.5,-159.1 47.4,-238.5 7.9,-39.7 15.9,-79.5 24.2,-119.1 8.4,-39.6 18.2,-79.3 24.1,-119.7 5.7,-38.7 3.4,-75.1 -8.2,-111.7 -10.1,-31.8 -22.7,-62.5 -36.8,-91.8 -1.7,0.1 -3.4,0.1 -5.2,0.1 0,0 -3.2,18.6 -7.5,34.2 3.9,8.1 7.7,16.4 11.3,24.7 13.6,31.4 27.1,66 27.5,102.5 z"
   id="path6072" />
				<path
   fill="#865c3c"
   d="m 462.1,2155.9 c -17.7,69 -34.6,137.4 -46.4,208.6 -6,35.9 -11.1,72.1 -16,108.3 -4.8,35.7 -10.5,71.7 -13.4,107.7 -0.2,2.2 -0.3,4.3 -0.4,6.4 3.1,9.2 6.3,23.4 9.4,45.3 0,0 7.1,-1.1 16.2,-3.3 -7.2,-34.4 0.6,-71.5 5,-105.7 4.7,-36.2 9.5,-72.5 14.9,-108.6 10.9,-72.4 24.8,-143.6 43.3,-213.6 17.5,-66.3 36.5,-134.2 33.7,-205.1 -4.5,-113.8 -55.2,-209 -111.6,-294.5 -11.6,0.6 -21,1.4 -23.4,2.4 -0.7,0.3 -1.4,2.4 -2.1,5.9 49.1,73 94.3,150.7 109.3,245.9 10.8,68.5 -1.8,135.2 -18.5,200.3 z"
   id="path6074" />
				<path
   fill="#865c3c"
   d="m 323.1,2427 c 4.5,-31.2 11.7,-61.7 17.5,-92.5 6.2,-32.8 11.7,-65.9 16.9,-99 10.3,-65.2 21.8,-131.1 27,-197.4 5.1,-65.2 -1.2,-127.7 -21.5,-188.1 -16.8,-50 -38.6,-98.2 -61,-144.9 -9.7,-0.5 -20.2,-0.9 -29.5,-0.9 20.3,41.9 38.6,86.1 54.8,130.3 9.8,26.7 17.8,54.3 23.1,83 5.9,31.8 6.9,64.3 5.2,96.8 -3.4,66.5 -15.7,132.6 -25.9,197.9 -5.2,33.1 -10.7,66.1 -16.7,99 -5.9,31.8 -13.2,63.2 -18.5,95.1 -10.8,65.1 -4.8,129.7 4.5,194.5 1.8,12.7 3.9,25.4 6.1,37.9 10.5,-0.9 21.2,-1.9 30.8,-3.1 -0.8,-5 -1.6,-10.1 -2.4,-15.1 -9.4,-62.9 -19.7,-129.5 -10.4,-193.5 z"
   id="path6076" />
				<path
   fill="#865c3c"
   d="m 251.1,2521.7 c 8.5,-106.6 41.1,-207.7 58.6,-312.1 16.8,-100.9 18.2,-205.1 -21.3,-298.2 -11.2,-26.3 -25.2,-51.3 -41.6,-73.7 -0.3,11.9 -0.9,22.6 -1.8,31.1 -0.5,4.4 -0.8,9.4 -1,14.6 4.6,8 9,16.3 13.1,24.9 18.6,38.7 30.8,81.9 35.3,126.8 5.1,50.3 1.4,101.6 -6.1,151.3 -10.7,70.3 -28.3,138.6 -41.9,208 -0.7,86.4 -0.2,181.8 -0.8,190.5 -1,15.3 7.5,57.5 7.5,57.5 0,0 1.3,-0.1 3.6,-0.2 -5.7,-39.7 -6.8,-79.7 -3.6,-120.5 z"
   id="path6078" />
				<path
   fill="#865c3c"
   d="m 244.3,2061.8 c -1.9,33.4 4.6,107.6 5.7,155.7 3.7,-19.5 6.6,-39.3 7.7,-59.2 1.7,-32.9 -3.4,-66 -13.4,-96.5 z"
   id="path6080" />
			</g>
		</g>
		<path
   fill="#361b0b"
   d="m 257.6,2651.3 c -4.2,0 -7.8,-2.9 -8.7,-7.1 -0.9,-4.4 -8.8,-43.8 -7.7,-59.9 0.3,-4.2 0.3,-32.1 0.4,-67.5 0.2,-121.4 0.7,-241.7 4.8,-263.4 3,-15.4 0.6,-58.6 -1.7,-100.3 -2.3,-41.8 -4.5,-81.2 -2,-100 2.3,-17.6 1.2,-50.8 0,-85.9 -1.3,-36.7 -2.6,-74.6 0,-99.2 4.8,-46.1 0,-160 0,-161.1 -0.2,-3.6 1.9,-6.9 5.1,-8.4 3.2,-1.5 9.3,-3.1 29.6,-3.1 24.9,0 62.1,2.5 67.7,3.7 6.8,1.4 8.9,7.2 13.4,27.9 1.8,8.5 4,19.4 6.3,32.6 1,-13.9 2.1,-25.4 3.1,-34.4 2.4,-21.8 4.2,-27.1 9.9,-29.4 9.8,-4.1 78.6,-4.5 79.2,-4.5 0.3,0 0.5,0 0.8,0 l 28.3,2.5 c 0.9,-0.1 1.8,-0.1 2.8,-0.1 9.7,0 28.7,4.6 32.2,5.8 6.2,2.2 7.4,7.6 11.1,25.5 1,5.1 2.9,14.2 4.9,21.6 3.2,-10.2 6.7,-25.5 9,-39 0.7,-4.2 4.4,-7.3 8.7,-7.3 11.4,0 18.5,-1.8 28.3,-4.4 3.7,-0.9 7.8,-2 12.5,-3.1 11.7,-2.6 18.6,-3 23.8,-3 1.9,0 3.6,0.1 5.3,0.1 1.5,0 3,0.1 4.6,0.1 3.1,0 15.8,-2.5 25.1,-4.3 15.4,-3 25.1,-4.8 30,-4.8 1.3,0 2.4,0.1 3.5,0.4 6.5,1.7 7.6,8.2 8.6,14.6 0.8,4.8 1.7,11.6 2.6,20.1 1.8,17.3 3.5,39.9 4.9,63.7 1.6,28.5 4.8,99.6 0.2,142.6 -4.3,40.4 -1.7,112.6 0.5,176.3 1.5,43.6 3,84.8 2,109.5 -1.2,29 2.7,52.6 6.7,77.6 4.2,26 8.6,52.9 8,88.4 -1.2,68.1 0,227.1 0,228.7 0,2.4 -0.9,4.6 -2.6,6.3 -1.7,1.7 -3.9,2.6 -6.3,2.6 h -53.8 c -3.5,0 -6.6,-2 -8,-5.1 l -13.1,-28.5 c -21.1,3.1 -43.8,7.2 -49.5,9.2 -0.9,2.1 -1.5,7.9 -1.2,12.4 0.2,2.4 -0.6,4.7 -2.1,6.5 -1.5,1.8 -3.7,2.9 -6.1,3 l -58.3,3.8 -60.8,9.8 c -15.4,11.7 -50.8,17.6 -55,18.3 -2.3,0.4 -4.7,-0.2 -6.6,-1.6 -1.9,-1.4 -3.2,-3.5 -3.5,-5.9 -2.4,-16.8 -4.8,-28.4 -6.9,-36.4 -2.1,35.1 -13.3,42.4 -18.8,43.8 -0.1,0 -0.3,0.1 -0.4,0.1 -30.9,6.5 -107,10.2 -110.2,10.4 -0.3,-0.2 -0.4,-0.2 -0.6,-0.2 z m 3.1,-937.7 c 1,26.6 3.9,115.2 -0.3,156.1 -2.4,23.4 -1.1,60.7 0.1,96.8 1.2,35.9 2.4,69.8 -0.1,88.8 -2.3,17.1 0,57.6 2.1,96.7 2.5,44.7 4.8,87 1.5,104.6 -4.2,21.9 -4.4,176.9 -4.5,260.1 -0.1,42 -0.1,64.2 -0.4,68.7 -0.6,9.6 3.2,33.4 5.9,47.7 19.9,-1.1 73.5,-4.5 98.2,-9.3 1.7,-2 8.4,-12.3 6.8,-50.1 -0.1,-2 0.5,-3.9 1.6,-5.5 2,-2.8 5.9,-5.9 11.1,-5.9 13.1,0 21.4,17.4 28,59.4 14.5,-3 33,-8.2 39.1,-14 1.3,-1.2 2.9,-2 4.7,-2.3 l 63.6,-10.2 c 0.3,0 0.6,-0.1 0.8,-0.1 l 50.4,-3.3 c 0.5,-7.2 2.6,-15.6 9,-19.7 3.5,-2.2 17.4,-6.2 63.4,-12.8 3.9,-0.6 7.6,1.5 9.3,5.1 l 13.5,29.4 h 39.2 c -0.2,-34.6 -1,-161.2 0.1,-220.2 0.6,-33.9 -3.6,-60 -7.7,-85.3 -4.2,-25.9 -8.2,-50.4 -6.9,-81.2 1,-24.1 -0.5,-64.9 -2,-108.2 -2.3,-64.3 -4.8,-137.2 -0.4,-178.8 6.5,-61 -2.6,-191.8 -7.4,-221.2 -5.8,0.9 -14.5,2.6 -21.4,3.9 -14.7,2.8 -23.9,4.6 -28.4,4.6 -1.8,0 -3.5,-0.1 -5.2,-0.1 -1.5,0 -3.1,-0.1 -4.8,-0.1 -4.2,0 -9.9,0.3 -19.9,2.5 -4.4,1 -8.3,2 -12,2.9 -8.3,2.1 -15.7,4.1 -25.4,4.7 -1.1,5.4 -2.7,13.4 -4.7,21.4 -6.5,25.8 -11.7,34.5 -20.7,34.5 0,0 0,0 0,0 -2.7,0 -5.3,-1 -7.4,-2.9 -6.7,-6 -10.1,-20.6 -14.6,-42.1 -0.9,-4.4 -2.1,-10 -2.9,-13.3 -6,-1.5 -17.5,-3.9 -23,-3.9 -0.6,0 -0.8,0 -0.8,0 -0.8,0.2 -1.6,0.2 -2.5,0.1 l -29,-2.5 c -18.6,0 -56.5,1.2 -69,2.7 -3.2,15.5 -7.4,74.7 -9.8,128.2 -0.2,4.5 -3.8,8.2 -8.4,8.4 -4.6,0.2 -8.5,-3 -9.2,-7.5 -7.8,-52.3 -17.9,-110 -22.6,-124.8 -10.4,-1 -38.2,-2.9 -60.2,-2.9 -8.3,0.4 -13.5,0.6 -16.8,0.9 z"
   id="path6086" />
		<g
   id="g6106">
			<path
   fill="#361b0b"
   d="m 678.6,2469.9 c 4.3,46.4 17.5,90.2 33.3,132.9 h 0.7 c 0,0 -0.2,-23.2 -0.3,-55.7 -7.1,-24.9 -12.6,-50.3 -15.3,-76.7 -5.1,-50.9 0.8,-102 12.5,-151.5 -1.8,-14.3 -4.1,-27.6 -6.2,-40.8 -18.7,62.2 -30.7,126.4 -24.7,191.8 z"
   id="path6088" />
			<path
   fill="#361b0b"
   d="m 605.3,2245.3 c -14.5,45.6 -20.8,92.8 -17.8,141.9 3,48.9 11.8,97.7 20.1,145.6 2.3,13.4 4.9,26.7 7.8,39.8 4.7,-0.8 9.3,-1.5 13.3,-2.2 -0.2,-0.8 -0.4,-1.6 -0.5,-2.4 -9.4,-46.2 -15.9,-94.7 -19.3,-142.2 -3.4,-48.3 -1,-95.5 11.7,-141.6 12.2,-44 31,-85.2 50.7,-124.4 8.1,-16.2 16.5,-32.1 25,-48 -0.6,-18.4 -1.3,-37.7 -1.9,-56.9 -11.3,21 -22.4,42.1 -33.5,63.3 -21,40.5 -41.3,82.2 -55.6,127.1 z"
   id="path6090" />
			<path
   fill="#361b0b"
   d="m 685.7,1689.8 c -0.5,-0.1 -1.4,-0.1 -2.6,-0.1 1.7,3.5 3.4,6.9 5.2,10.4 -1,-6.4 -1.9,-10.1 -2.6,-10.3 z"
   id="path6092" />
			<path
   fill="#361b0b"
   d="m 660.5,1853.9 c 4.5,18.9 1.4,35.1 -4,53.1 -5.4,17.9 -10.9,35.8 -16,53.8 -21.2,74.1 -39.4,149.6 -54.3,226.1 -14.8,75.6 -29.1,153.5 -31.8,231.5 -1.3,37.9 0.8,76.1 7.9,113 4,20.9 9.6,41.2 15.8,61.3 0.4,-4.9 1.5,-10.8 4.8,-12.9 1.5,-1 6.2,-2.2 12.2,-3.5 -9.9,-34.4 -17.9,-69.5 -19.9,-106.9 -4.3,-79.4 9.5,-159 23.4,-236 14.2,-78.2 31.7,-155.4 52.4,-231.2 5.2,-19 10.6,-37.8 16.1,-56.6 5.3,-17.8 12.1,-35.6 15.3,-54.3 5.9,-34.3 -7.8,-68.2 -18.1,-99.3 -10.5,-31.8 -22.1,-62.9 -34.9,-93.3 0,0 -0.1,0 -0.1,0 -7,0 -12.4,-0.9 -23.5,0.9 9.3,21.2 17.9,42.9 26,64.8 10.8,29.1 21.4,59 28.7,89.5 z"
   id="path6094" />
			<path
   fill="#361b0b"
   d="m 586.5,1870.4 c 0.5,39.1 -9.8,78.2 -16.8,115.9 -7.4,39.9 -14.9,79.9 -22.7,119.7 -15.4,78.1 -30.9,156.3 -46.5,234.4 -7.4,37.2 -16.3,74.4 -20,112.5 -3.4,35.3 0.6,69.7 10.7,102.8 5.3,17.2 11.7,33.7 18.4,49.9 l 9.7,-1.6 9.6,-0.6 c -0.2,-0.4 -0.4,-0.9 -0.6,-1.4 -13.1,-30.8 -25.5,-62.7 -30,-97.4 -4.9,-38.7 3.1,-77.6 10.6,-114.9 15.8,-79.5 31.8,-159.1 47.8,-238.5 8,-39.7 16,-79.5 24.4,-119.1 8.4,-39.6 18.4,-79.3 24.3,-119.7 5.7,-38.7 3.4,-75.1 -8.3,-111.7 -10.2,-31.8 -22.9,-62.5 -37.1,-91.8 -1.7,0.1 -3.4,0.1 -5.3,0.1 0,0 -3.3,18.6 -7.6,34.2 3.9,8.1 7.8,16.4 11.4,24.7 13.9,31.4 27.5,66 28,102.5 z"
   id="path6096" />
			<path
   fill="#361b0b"
   d="m 470.5,2155.9 c -17.9,69 -34.9,137.4 -46.8,208.6 -6,35.9 -11.2,72.1 -16.1,108.3 -4.8,35.7 -10.6,71.7 -13.5,107.7 -0.2,2.2 -0.3,4.3 -0.4,6.4 3.1,9.2 6.4,23.4 9.5,45.3 0,0 7.1,-1.1 16.3,-3.3 -7.3,-34.4 0.6,-71.5 5.1,-105.7 4.7,-36.2 9.6,-72.5 15.1,-108.6 11,-72.4 25,-143.6 43.7,-213.6 17.7,-66.3 36.8,-134.2 34,-205.1 -4.5,-113.8 -55.6,-209 -112.6,-294.5 -11.7,0.6 -21.2,1.4 -23.6,2.4 -0.7,0.3 -1.4,2.4 -2.1,5.9 49.6,73 95.1,150.7 110.2,245.9 10.8,68.5 -1.9,135.2 -18.8,200.3 z"
   id="path6098" />
			<path
   fill="#361b0b"
   d="m 330.3,2427 c 4.6,-31.2 11.8,-61.7 17.7,-92.5 6.2,-32.8 11.8,-65.9 17.1,-99 10.4,-65.2 22,-131.1 27.2,-197.4 5.2,-65.2 -1.2,-127.7 -21.7,-188.1 -17,-50 -39,-98.2 -61.5,-144.9 -9.8,-0.5 -20.3,-0.9 -29.8,-0.9 20.5,41.9 38.9,86.1 55.2,130.3 9.9,26.7 18,54.3 23.3,83 5.9,31.8 6.9,64.3 5.2,96.8 -3.5,66.5 -15.8,132.6 -26.1,197.9 -5.2,33.1 -10.7,66.1 -16.9,99 -5.9,31.8 -13.3,63.2 -18.7,95.1 -10.9,65.1 -4.9,129.7 4.6,194.5 1.9,12.7 3.9,25.4 6.2,37.9 10.5,-0.9 21.3,-1.9 31.1,-3.1 -0.8,-5 -1.6,-10.1 -2.4,-15.1 C 331.3,2557.6 321,2491 330.3,2427 Z"
   id="path6100" />
			<path
   fill="#361b0b"
   d="m 257.7,2521.7 c 8.5,-106.6 41.5,-207.7 59.1,-312.1 17,-100.9 18.3,-205.1 -21.5,-298.2 -11.3,-26.3 -25.5,-51.3 -42,-73.7 -0.3,11.9 -0.9,22.6 -1.8,31.1 -0.5,4.4 -0.8,9.4 -1,14.6 4.7,8 9.1,16.3 13.2,24.9 18.7,38.7 31,81.9 35.6,126.8 5.2,50.3 1.4,101.6 -6.2,151.3 -10.8,70.3 -28.6,138.6 -42.3,208 -0.7,86.4 -0.2,181.8 -0.8,190.5 -1,15.3 7.5,57.5 7.5,57.5 0,0 1.3,-0.1 3.6,-0.2 -5.5,-39.7 -6.7,-79.7 -3.4,-120.5 z"
   id="path6102" />
			<path
   fill="#361b0b"
   d="m 250.8,2061.8 c -1.9,33.4 4.6,107.6 5.7,155.7 3.8,-19.5 6.6,-39.3 7.7,-59.2 1.9,-32.9 -3.3,-66 -13.4,-96.5 z"
   id="path6104" />
		</g>
	</g>
</svg>
