<?xml version="1.0" encoding="UTF-8" standalone="no"?>
<!-- Created with Inkscape (http://www.inkscape.org/) -->

<svg
   version="1.1"
   id="svg2"
   xml:space="preserve"
   width="465.17758"
   height="677.4328"
   viewBox="0 0 465.17756 677.4328"
   sodipodi:docname="radeau.svg"
   inkscape:version="1.1.1 (c3084ef, 2021-09-22)"
   xmlns:inkscape="http://www.inkscape.org/namespaces/inkscape"
   xmlns:sodipodi="http://sodipodi.sourceforge.net/DTD/sodipodi-0.dtd"
   xmlns="http://www.w3.org/2000/svg"
   xmlns:svg="http://www.w3.org/2000/svg"><defs
     id="defs6" /><sodipodi:namedview
     id="namedview4"
     pagecolor="#ffffff"
     bordercolor="#666666"
     borderopacity="1.0"
     inkscape:pageshadow="2"
     inkscape:pageopacity="0.0"
     inkscape:pagecheckerboard="0"
     showgrid="false"
     inkscape:zoom="0.70375"
     inkscape:cx="-33.39254"
     inkscape:cy="341.74067"
     inkscape:window-width="1356"
     inkscape:window-height="785"
     inkscape:window-x="0"
     inkscape:window-y="25"
     inkscape:window-maximized="0"
     inkscape:current-layer="g8"
     fit-margin-top="0"
     fit-margin-left="0"
     fit-margin-right="0"
     fit-margin-bottom="0" /><g
     id="g8"
     inkscape:groupmode="layer"
     inkscape:label="ink_ext_XXXXXX"
     transform="matrix(1.3333333,0,0,-1.3333333,-422.06918,742.0698)"><g
       id="g1532"><path
         d="m 415.807,250.097 -0.039,0.01 -0.059,0.023 c -4.498,1.533 -10.616,-4.483 -13.665,-13.436 -3.049,-8.953 -1.875,-17.451 2.623,-18.983 l 0.061,-0.018 0.037,-0.015 245.309,-83.548 11.041,32.42 -245.308,83.547"
         style="fill:#865930;fill-opacity:1;fill-rule:nonzero;stroke:none;stroke-width:0.1"
         id="path26" /><path
         d="m 650.074,134.13 -11.054,3.765 11.054,-3.765 5.52,16.21 v 0 l -5.52,-16.21"
         style="fill:#a5c0ac;fill-opacity:1;fill-rule:nonzero;stroke:none;stroke-width:0.1"
         id="path28" /><path
         d="m 650.074,134.13 -11.054,3.765 2.691,7.901 -50.231,17.107 4.135,7.802 -21.349,6.857 0.22,0.402 81.108,-27.624 -5.52,-16.21 m -228.092,86.501 -21.618,7.362 c 0.097,2.679 0.645,5.664 1.68,8.701 l 27.373,-9.323 -1.137,-1.031 v 0 l -6.298,-5.709"
         style="fill:#774f2c;fill-opacity:1;fill-rule:nonzero;stroke:none;stroke-width:0.1"
         id="path30" /><path
         d="m 647.45,153.114 c -3.049,-8.953 -1.875,-17.452 2.624,-18.984 4.498,-1.531 10.616,4.483 13.665,13.435 3.05,8.954 1.874,17.453 -2.624,18.985 -4.499,1.532 -10.616,-4.484 -13.665,-13.436"
         style="fill:#a17445;fill-opacity:1;fill-rule:nonzero;stroke:none;stroke-width:0.1"
         id="path32" /><path
         d="m 396.403,229.342 -0.04,0.011 -0.058,0.023 c -4.499,1.532 -10.616,-4.484 -13.666,-13.437 -3.048,-8.953 -1.874,-17.451 2.624,-18.983 l 0.061,-0.018 0.037,-0.015 245.308,-83.547 11.042,32.42 -245.308,83.546"
         style="fill:#865930;fill-opacity:1;fill-rule:nonzero;stroke:none;stroke-width:0.1"
         id="path34" /><path
         d="m 630.669,113.376 -10.6,3.61 2.417,7.094 -43.698,14.882 4.568,8.617 52.833,-17.994 -5.52,-16.209 m -185.569,71.118 -64.156,21.85 c 0,0.005 0,0.009 0,0.013 -0.003,2.897 0.546,6.207 1.695,9.582 l 45.741,-15.578 7.31,-6.938 c 0,0 0,0 0,-0.001 l 7.955,-7.548 v 0 l 1.455,-1.38"
         style="fill:#774f2c;fill-opacity:1;fill-rule:nonzero;stroke:none;stroke-width:0.1"
         id="path36" /><path
         d="m 628.046,132.359 c -3.049,-8.953 -1.875,-17.451 2.623,-18.983 4.499,-1.532 10.616,4.483 13.666,13.435 3.049,8.953 1.874,17.452 -2.624,18.985 -4.499,1.532 -10.616,-4.484 -13.665,-13.437"
         style="fill:#a17445;fill-opacity:1;fill-rule:nonzero;stroke:none;stroke-width:0.1"
         id="path38" /><path
         d="m 377.177,207.627 -0.04,0.011 -0.058,0.022 c -4.499,1.532 -10.615,-4.483 -13.665,-13.437 -3.049,-8.953 -1.875,-17.45 2.624,-18.983 l 0.06,-0.017 0.037,-0.016 245.308,-83.5468 11.043,32.4198 -245.309,83.547"
         style="fill:#865930;fill-opacity:1;fill-rule:nonzero;stroke:none;stroke-width:0.1"
         id="path40" /><path
         d="m 611.443,91.6602 -10.688,3.641 2.541,7.4598 -37.016,12.607 4.384,8.27 46.3,-15.769 -5.521,-16.2088 m -182.129,70.3568 -67.593,23.02 c 0.046,2.801 0.596,5.964 1.693,9.186 l 73.488,-25.028 -7.588,-7.178"
         style="fill:#774f2c;fill-opacity:1;fill-rule:nonzero;stroke:none;stroke-width:0.1"
         id="path42" /><path
         d="m 608.82,110.643 c -3.049,-8.953 -1.874,-17.4508 2.623,-18.9828 4.499,-1.5321 10.616,4.4828 13.666,13.4358 3.049,8.953 1.875,17.452 -2.623,18.984 -4.499,1.532 -10.616,-4.483 -13.666,-13.437"
         style="fill:#a17445;fill-opacity:1;fill-rule:nonzero;stroke:none;stroke-width:0.1"
         id="path44" /><path
         d="m 357.987,186.309 -0.039,0.01 -0.058,0.023 c -4.499,1.532 -10.616,-4.484 -13.665,-13.436 -3.049,-8.953 -1.875,-17.452 2.623,-18.984 l 0.06,-0.018 0.038,-0.016 245.308,-83.5458 11.042,32.4188 -245.309,83.548"
         style="fill:#865930;fill-opacity:1;fill-rule:nonzero;stroke:none;stroke-width:0.1"
         id="path46" /><path
         d="m 592.254,70.3422 -10.726,3.6527 10.726,-3.6527 5.521,16.2098 h 10e-4 l -5.522,-16.2098"
         style="fill:#a5c0ac;fill-opacity:1;fill-rule:nonzero;stroke:none;stroke-width:0.1"
         id="path48" /><path
         d="m 592.254,70.3422 -10.726,3.6527 2.432,7.141 -172.555,58.7691 142.359,-48.146 4.393,8.286 39.619,-13.493 -5.522,-16.2098 m -184.868,70.9308 -64.857,22.089 c 0.002,2.888 0.552,6.184 1.696,9.544 l 71.028,-24.19 -7.867,-7.443"
         style="fill:#774f2c;fill-opacity:1;fill-rule:nonzero;stroke:none;stroke-width:0.1"
         id="path50" /><path
         d="m 589.631,89.3262 c -3.049,-8.9543 -1.875,-17.452 2.623,-18.984 4.499,-1.532 10.617,4.4828 13.665,13.4359 3.05,8.9528 1.875,17.4509 -2.623,18.9829 -4.499,1.533 -10.615,-4.4829 -13.665,-13.4348"
         style="fill:#a17445;fill-opacity:1;fill-rule:nonzero;stroke:none;stroke-width:0.1"
         id="path52" /><path
         d="m 338.651,164.683 -0.039,0.011 -0.059,0.023 c -4.498,1.532 -10.615,-4.484 -13.664,-13.436 -3.049,-8.953 -1.876,-17.453 2.623,-18.985 l 0.06,-0.017 0.038,-0.016 245.309,-83.547 11.041,32.4199 -245.309,83.5471"
         style="fill:#865930;fill-opacity:1;fill-rule:nonzero;stroke:none;stroke-width:0.1"
         id="path54" /><path
         d="m 572.919,48.716 -245.309,83.547 -0.038,0.016 -0.06,0.017 c -2.803,0.955 -4.315,4.614 -4.319,9.403 -0.003,2.897 0.546,6.207 1.696,9.582 L 578.44,64.9262 572.919,48.716"
         style="fill:#774f2c;fill-opacity:1;fill-rule:nonzero;stroke:none;stroke-width:0.1"
         id="path56" /><path
         d="m 570.296,67.7 c -3.05,-8.9531 -1.876,-17.452 2.623,-18.984 4.498,-1.532 10.616,4.484 13.664,13.4371 3.05,8.9528 1.876,17.4508 -2.623,18.9828 C 579.461,82.668 573.345,76.6531 570.296,67.7"
         style="fill:#a17445;fill-opacity:1;fill-rule:nonzero;stroke:none;stroke-width:0.1"
         id="path58" /><path
         d="m 377.661,193.758 c -3.157,0 -5.716,2.559 -5.716,5.716 v 327.26 c 0,3.157 2.559,5.717 5.716,5.717 3.157,0 5.717,-2.56 5.717,-5.717 v -327.26 c 0,-3.157 -2.56,-5.716 -5.717,-5.716"
         style="fill:#6f4420;fill-opacity:1;fill-rule:nonzero;stroke:none;stroke-width:0.1"
         id="path60" /><path
         d="m 334.501,236.634 c -2.117,0 -4.238,0.779 -5.896,2.35 -3.438,3.258 -3.584,8.685 -0.327,12.123 l 89.272,94.213 c 3.258,3.437 8.685,3.584 12.122,0.327 3.438,-3.258 3.584,-8.685 0.327,-12.123 l -89.272,-94.213 c -1.686,-1.779 -3.954,-2.677 -6.226,-2.677"
         style="fill:#6f4420;fill-opacity:1;fill-rule:nonzero;stroke:none;stroke-width:0.1"
         id="path62" /><path
         d="m 325.128,442.885 c -2.286,0 -4.566,0.909 -6.254,2.707 -3.241,3.454 -3.068,8.88 0.385,12.121 l 102.856,96.518 c 3.454,3.24 8.88,3.067 12.121,-0.385 3.241,-3.453 3.068,-8.88 -0.385,-12.121 L 330.994,445.207 c -1.654,-1.552 -3.763,-2.322 -5.866,-2.322"
         style="fill:#6f4420;fill-opacity:1;fill-rule:nonzero;stroke:none;stroke-width:0.1"
         id="path64" /><path
         d="M 427.983,547.978 C 393.3,516.228 359.835,483.183 325.126,451.46 c 50.903,-59.814 58.786,-143.224 9.377,-206.251 31.377,29.907 58.271,63.989 89.271,94.213 63.752,58.025 59.778,146.485 4.209,208.556"
         style="fill:#f7f3e0;fill-opacity:1;fill-rule:nonzero;stroke:none;stroke-width:0.1"
         id="path66" /><path
         d="m 404.22,504.341 c 9.073,-10.448 24.51,-7.521 34.107,0.469 0.096,0.079 0.187,0.162 0.282,0.242 11.12,-19.096 18.333,-41.305 19.664,-63.437 -13.044,11.364 -32.094,-2.798 -42.227,-10.616 -15.863,-12.237 -30.489,-32.211 -35.567,-52.738 -4.498,21.41 -11.267,39.928 -21.731,59.082 9.708,8.032 18.402,23.314 10.552,35.451 11.658,10.496 23.268,21.044 34.92,31.547 z m 1.637,-184.164 c -9.737,-10.359 -19.433,-20.756 -29.275,-31.017 7.057,9.173 2.274,8.386 -8.33,-1.348 8.969,20.718 13.254,39.759 14.473,62.214 11.067,-10.999 27.811,5.237 35.459,11.648 15.778,13.227 30.655,31.975 39.353,51.428 -3.829,-21.8 -10.321,-39.766 -21.667,-58.866 l -0.229,-0.215 C 424.782,343.68 415.528,331.632 405.857,320.177 Z m -56.703,111.67 c 27.172,-48.712 32.879,-101.142 10.355,-152.833 -5.02,-9.984 -8.085,-14.815 -15.466,-23.893 8.697,8.174 16.939,16.784 25.19,25.401 10.895,11.651 21.671,23.408 32.465,35.152 7.263,7.939 14.65,15.825 22.281,23.413 7.872,7.19 11.393,11.21 17.53,19.821 31.377,49.486 31.488,103.355 4.313,154.761 -6.102,10.21 -9.728,15.162 -18.204,24.487 -9.232,-8.217 -18.309,-16.604 -27.393,-24.984 -12.828,-11.91 -25.636,-23.844 -38.47,-35.749 -9.153,-8.432 -18.301,-16.869 -27.606,-25.135 6.568,-7.498 9.598,-11.639 15.005,-20.441"
         style="fill:#4a7952;fill-opacity:1;fill-rule:nonzero;stroke:none;stroke-width:0.1"
         id="path68" /><path
         d="m 591.48,162.903 -21.275,7.246 3.571,6.517 v 0.003 l 0.49,0.893 21.349,-6.857 -4.135,-7.802"
         style="fill:#704b2a;fill-opacity:1;fill-rule:nonzero;stroke:none;stroke-width:0.1"
         id="path70" /><path
         d="m 583.356,147.579 -21.506,7.324 7.377,13.463 v -0.001 l 0.978,1.784 21.275,-7.246 -8.124,-15.324"
         style="fill:#7d542e;fill-opacity:1;fill-rule:nonzero;stroke:none;stroke-width:0.1"
         id="path72" /><path
         d="m 578.788,138.962 -21.635,7.369 4.697,8.572 21.506,-7.324 -4.568,-8.617"
         style="fill:#704b2a;fill-opacity:1;fill-rule:nonzero;stroke:none;stroke-width:0.1"
         id="path74" /><path
         d="m 570.664,123.638 -21.865,7.447 0.577,1.051 v -0.001 l 4.882,8.91 v 0.002 l 2.895,5.284 21.635,-7.369 -8.124,-15.324 m -95.829,32.638 -37.933,12.919 12.179,11.521 3.578,-3.396 h -10e-4 l 9.624,-9.134 c 0.001,0 0.001,0 0.002,0.001 l 12.551,-11.911"
         style="fill:#7d542e;fill-opacity:1;fill-rule:nonzero;stroke:none;stroke-width:0.1"
         id="path76" /><path
         d="m 566.28,115.368 -21.989,7.489 4.508,8.228 21.865,-7.447 -4.384,-8.27 m -66.196,22.545 -70.77,24.104 7.588,7.178 37.933,-12.919 15.488,-14.699 9.761,-3.664"
         style="fill:#704b2a;fill-opacity:1;fill-rule:nonzero;stroke:none;stroke-width:0.1"
         id="path78" /><path
         d="m 558.157,100.045 -142.904,48.671 14.061,13.301 70.77,-24.104 43.509,-16.331 0.698,1.275 21.989,-7.489 -8.123,-15.323"
         style="fill:#7d542e;fill-opacity:1;fill-rule:nonzero;stroke:none;stroke-width:0.1"
         id="path80" /><path
         d="m 553.764,91.759 -142.359,48.146 -4.019,1.368 7.867,7.443 142.904,-48.671 -4.393,-8.286"
         style="fill:#704b2a;fill-opacity:1;fill-rule:nonzero;stroke:none;stroke-width:0.1"
         id="path82" /><path
         d="m 411.405,139.905 -4.027,1.361 0.008,0.007 4.019,-1.368"
         style="fill:#7d542e;fill-opacity:1;fill-rule:nonzero;stroke:none;stroke-width:0.1"
         id="path84" /><path
         d="m 418.005,217.026 -2.235,-4.699 74.553,-70.75 53.27,-19.995 36.615,66.826 0.309,5.363 -37.519,-68.073 -51.134,19.278 -73.859,72.05"
         style="fill:#d3d4d3;fill-opacity:1;fill-rule:nonzero;stroke:none;stroke-width:0.1"
         id="path86" /><path
         d="m 491.065,283.256 -73.06,-66.23 73.859,-72.05 49.01,61.561 -49.809,76.719"
         style="fill:#f4f5f5;fill-opacity:1;fill-rule:nonzero;stroke:none;stroke-width:0.1"
         id="path88" /><path
         d="m 540.874,206.537 -49.01,-61.561 51.134,-19.278 37.519,68.073 -39.643,12.766"
         style="fill:#e9eae9;fill-opacity:1;fill-rule:nonzero;stroke:none;stroke-width:0.1"
         id="path90" /><path
         d="m 545.688,125.404 -2.022,-24.27 -1.099,-1.4531 -2.676,0.6881 -0.805,19.546 -45.546,16.591 -12.057,-13.317 -2.01,-2.042 -2.408,1.246 13.258,19.184 53.27,-19.995 2.095,3.822"
         style="fill:#d3d4d3;fill-opacity:1;fill-rule:nonzero;stroke:none;stroke-width:0.1"
         id="path92" /><path
         d="m 580.208,188.407 -1.136,-17.516 -0.636,-1.465 -1.536,0.295 -0.76,11.264 4.068,7.422"
         style="fill:#d3d4d3;fill-opacity:1;fill-rule:nonzero;stroke:none;stroke-width:0.1"
         id="path94" /><path
         d="m 549.376,132.135 v 0.001 l 4.882,8.911 v -0.002 l -4.882,-8.91"
         style="fill:#764f2c;fill-opacity:1;fill-rule:nonzero;stroke:none;stroke-width:0.1"
         id="path96" /><path
         d="m 549.376,132.136 -0.429,4.355 3.779,6.857 1.622,-0.58 -0.09,-1.721 -4.882,-8.911"
         style="fill:#c6c7c6;fill-opacity:1;fill-rule:nonzero;stroke:none;stroke-width:0.1"
         id="path98" /><path
         d="m 462.282,168.186 -9.624,9.134 h 10e-4 l 9.625,-9.133 c -10e-4,-0.001 -10e-4,-0.001 -0.002,-0.001"
         style="fill:#764f2c;fill-opacity:1;fill-rule:nonzero;stroke:none;stroke-width:0.1"
         id="path100" /><path
         d="m 462.284,168.187 -9.625,9.133 c 1.575,0.036 3.39,0.214 5.476,0.559 l 8.941,-8.722 c -1.497,-0.338 -3.11,-0.671 -4.792,-0.97"
         style="fill:#c6c7c6;fill-opacity:1;fill-rule:nonzero;stroke:none;stroke-width:0.1"
         id="path102" /><path
         d="m 570.205,170.149 h -0.001 l 3.572,6.52 v -0.003 l -3.571,-6.517"
         style="fill:#694728;fill-opacity:1;fill-rule:nonzero;stroke:none;stroke-width:0.1"
         id="path104" /><path
         d="m 569.227,168.365 v 0.001 l 0.977,1.783 h 0.001 l -0.978,-1.784"
         style="fill:#764f2c;fill-opacity:1;fill-rule:nonzero;stroke:none;stroke-width:0.1"
         id="path106" /><path
         d="m 569.227,168.366 -0.408,4.18 3.256,5.907 1.719,-0.906 -0.018,-0.878 -3.572,-6.52 -0.977,-1.783"
         style="fill:#c6c7c6;fill-opacity:1;fill-rule:nonzero;stroke:none;stroke-width:0.1"
         id="path108" /><path
         d="m 443.645,185.874 -7.955,7.548 c 0,0.001 0,0.001 0,0.001 l 7.955,-7.549 v 0"
         style="fill:#704b2a;fill-opacity:1;fill-rule:nonzero;stroke:none;stroke-width:0.1"
         id="path110" /><path
         d="m 443.645,185.874 -7.955,7.549 c 0.609,1.372 1.301,2.811 2.082,4.32 l 7.56,-7.375 c -0.691,-1.402 -1.324,-2.959 -1.687,-4.494"
         style="fill:#c6c7c6;fill-opacity:1;fill-rule:nonzero;stroke:none;stroke-width:0.1"
         id="path112" /><path
         d="m 429.417,227.371 v 0 l 11.547,10.467 -11.547,-10.467"
         style="fill:#7d542e;fill-opacity:1;fill-rule:nonzero;stroke:none;stroke-width:0.1"
         id="path114" /><path
         d="m 428.28,226.34 v 0 l 1.137,1.031 v 0 l -1.137,-1.031"
         style="fill:#704b2a;fill-opacity:1;fill-rule:nonzero;stroke:none;stroke-width:0.1"
         id="path116" /><path
         d="m 515.206,246.072 -2.083,3.209 2.084,-3.209 c -10e-4,0 -10e-4,0 -10e-4,0"
         style="fill:#88b498;fill-opacity:1;fill-rule:nonzero;stroke:none;stroke-width:0.1"
         id="path118" /><path
         d="m 498.134,152.853 c -9.279,5.937 -17.195,13.049 -22.686,18.522 -1.559,-0.481 -4.597,-1.367 -8.372,-2.218 l -8.941,8.722 c 2.627,0.435 5.683,1.136 9.234,2.154 l -0.038,0.04 1.268,1.026 c -0.477,0.524 -1.157,1.29 -1.987,2.265 -0.037,-0.33 -0.078,-0.654 -0.128,-0.968 -10e-4,-0.003 -0.003,-0.005 -0.007,-0.005 -0.283,0 -8.745,6.506 -17.643,15.062 -0.234,-0.247 -0.447,-0.453 -0.618,-0.611 l 0.285,-0.128 -0.614,-0.933 0.575,-0.234 c 0,0 -1.689,-2.255 -3.13,-5.179 l -7.56,7.375 c 0.299,0.577 0.612,1.165 0.937,1.763 l 0.928,-0.376 0.429,1.371 0.373,-0.169 c 0.199,0.572 0.834,2.234 1.944,3.657 -7.088,7.612 -13.206,15.875 -14.103,22.351 l 1.137,1.031 11.547,10.467 46.882,42.499 c 3.191,-5.854 5.454,-14.445 0.75,-24.612 3.816,-1.601 7.451,-3.854 10.836,-6.449 l -0.259,0.548 c 3.791,2.344 7.16,4.082 10.156,5.299 l 3.794,-5.842 2.083,-3.209 c -2.865,-0.349 -5.988,-1.992 -8.265,-3.436 6.65,-6.654 11.714,-13.797 14.363,-17.839 0.798,3.917 1.213,7.164 1.323,9.845 l 7.697,-11.856 c -1.049,-5.904 -2.27,-10.18 -2.272,-10.19 1.755,-3.876 3.926,-7.758 8.116,-11.969 l -38.034,-47.774"
         style="fill:#e6e9e7;fill-opacity:1;fill-rule:nonzero;stroke:none;stroke-width:0.1"
         id="path120" /><path
         d="m 548.947,136.491 -0.186,1.888 -25.042,3.675 c -9.07,1.67 -17.806,5.822 -25.585,10.799 l 38.034,47.774 c 3.807,-3.826 9.281,-7.925 17.626,-12.541 l 18.281,-9.633 -3.256,-5.907 -0.162,1.655 -14.413,3.268 c 0,0 -3.296,-8.969 -18.069,-28.203 l 16.551,-5.918 -3.779,-6.857"
         style="fill:#dbdddc;fill-opacity:1;fill-rule:nonzero;stroke:none;stroke-width:0.1"
         id="path122" /><path
         d="m 467.313,180.058 c -0.032,0.048 -0.044,0.07 -0.04,0.07 0.005,0 0.025,-0.019 0.058,-0.055 l -0.018,-0.015"
         style="fill:#e6e9e7;fill-opacity:1;fill-rule:nonzero;stroke:none;stroke-width:0.1"
         id="path124" /><path
         d="m 500.615,249.979 c 0,0 -8.532,-3.13 -4.953,-8.864 3.576,-5.735 9.002,1.634 9.002,1.634 l -4.049,7.23"
         style="fill:#fad5af;fill-opacity:1;fill-rule:nonzero;stroke:none;stroke-width:0.1"
         id="path126" /><path
         d="m 506.206,243.332 -1.738,-1.284 -4.242,8.216 2.028,0.758 3.952,-7.69"
         style="fill:#f8f8f8;fill-opacity:1;fill-rule:nonzero;stroke:none;stroke-width:0.1"
         id="path128" /><path
         d="m 529.923,213.53 c 0,0 19.206,67.793 -28.779,38.142 l 4.486,-9.521 c 0,0 26.919,21.31 17.309,-19.391 l 6.984,-9.23"
         style="fill:#373737;fill-opacity:1;fill-rule:nonzero;stroke:none;stroke-width:0.1"
         id="path130" /><path
         d="m 506.446,252.885 c -0.436,-0.306 -0.541,-0.908 -0.238,-1.343 0.308,-0.435 0.907,-0.541 1.343,-0.235 0.435,0.303 0.541,0.906 0.238,1.342 -0.306,0.434 -0.908,0.54 -1.343,0.236"
         style="fill:#7a7b7c;fill-opacity:1;fill-rule:nonzero;stroke:none;stroke-width:0.1"
         id="path132" /><path
         d="m 503.472,251.506 c -0.437,-0.306 -0.542,-0.906 -0.238,-1.342 0.306,-0.436 0.907,-0.542 1.342,-0.236 0.435,0.306 0.542,0.906 0.236,1.343 -0.304,0.434 -0.905,0.542 -1.34,0.235"
         style="fill:#7a7b7c;fill-opacity:1;fill-rule:nonzero;stroke:none;stroke-width:0.1"
         id="path134" /><path
         d="m 442.342,201.973 c 0,0 2.66,8.69 8.581,5.432 5.92,-3.259 -1.14,-9.077 -1.14,-9.077 l -7.441,3.645"
         style="fill:#fad5af;fill-opacity:1;fill-rule:nonzero;stroke:none;stroke-width:0.1"
         id="path136" /><path
         d="m 449.285,196.755 1.188,1.807 -8.435,3.785 -0.647,-2.066 7.894,-3.526"
         style="fill:#f8f8f8;fill-opacity:1;fill-rule:nonzero;stroke:none;stroke-width:0.1"
         id="path138" /><path
         d="m 478.564,173.584 c 0,0 -64.865,-21.766 -37.884,27.768 l 9.753,-3.957 c 0,0 -20.309,-27.08 19.804,-15.257 l 8.327,-8.554"
         style="fill:#373737;fill-opacity:1;fill-rule:nonzero;stroke:none;stroke-width:0.1"
         id="path140" /><path
         d="m 439.76,195.993 c 0.283,0.453 0.876,0.59 1.328,0.312 0.451,-0.285 0.59,-0.877 0.309,-1.329 -0.279,-0.451 -0.875,-0.589 -1.327,-0.311 -0.452,0.282 -0.59,0.876 -0.31,1.328"
         style="fill:#7a7b7c;fill-opacity:1;fill-rule:nonzero;stroke:none;stroke-width:0.1"
         id="path142" /><path
         d="m 440.974,199.04 c 0.282,0.451 0.875,0.588 1.328,0.308 0.45,-0.28 0.589,-0.874 0.308,-1.326 -0.281,-0.451 -0.876,-0.59 -1.327,-0.31 -0.452,0.282 -0.591,0.875 -0.309,1.328"
         style="fill:#7a7b7c;fill-opacity:1;fill-rule:nonzero;stroke:none;stroke-width:0.1"
         id="path144" /><path
         d="m 471.339,182.12 c 0,0 -40.585,42.174 -14.187,68.062 33.651,33 67.216,-27.184 67.216,-27.184 L 471.339,182.12"
         style="fill:#fad5af;fill-opacity:1;fill-rule:nonzero;stroke:none;stroke-width:0.1"
         id="path146" /><path
         d="m 477.775,217.804 c -0.219,0 -0.44,0.011 -0.663,0.036 -3.42,0.372 -6.339,3.522 -7.163,4.491 -0.129,0.151 -0.101,0.376 0.056,0.498 l 0.631,0.493 c 0.147,0.115 0.357,0.097 0.479,-0.044 0.743,-0.862 3.34,-3.642 6.163,-3.947 1.221,-0.134 2.319,0.215 3.343,1.061 1.021,0.843 1.56,1.844 1.65,3.059 0.206,2.804 -2.083,5.838 -2.804,6.718 -0.118,0.144 -0.099,0.355 0.039,0.479 l 0.594,0.537 c 0.148,0.133 0.373,0.122 0.5,-0.031 0.813,-0.979 3.414,-4.398 3.167,-7.808 -0.119,-1.623 -0.855,-3.006 -2.191,-4.111 -1.15,-0.952 -2.427,-1.431 -3.801,-1.431"
         style="fill:#373737;fill-opacity:1;fill-rule:nonzero;stroke:none;stroke-width:0.1"
         id="path148" /><path
         d="m 496.249,233.078 c -0.219,0 -0.439,0.013 -0.663,0.037 -3.42,0.373 -6.34,3.523 -7.163,4.491 -0.129,0.152 -0.101,0.376 0.056,0.498 l 0.631,0.494 c 0.146,0.114 0.357,0.096 0.479,-0.045 0.743,-0.862 3.34,-3.642 6.163,-3.948 1.225,-0.128 2.319,0.215 3.343,1.061 1.021,0.845 1.56,1.847 1.649,3.063 0.205,2.812 -2.082,5.836 -2.803,6.714 -0.118,0.144 -0.1,0.355 0.039,0.48 l 0.594,0.537 c 0.147,0.133 0.373,0.122 0.5,-0.031 0.813,-0.979 3.414,-4.399 3.166,-7.809 -0.118,-1.623 -0.854,-3.006 -2.19,-4.11 -1.151,-0.951 -2.427,-1.432 -3.801,-1.432"
         style="fill:#373737;fill-opacity:1;fill-rule:nonzero;stroke:none;stroke-width:0.1"
         id="path150" /><path
         d="m 555.764,189.932 20.002,-10.537 -0.421,-18.904 c 0,0 6.72,5.493 9.17,-0.674 3.453,-8.687 -12.157,-1.491 -12.157,-1.491 l -1.729,17.722 -14.413,3.269 c 0,0 -3.297,-8.968 -18.069,-28.205 l 18.172,-6.497 -1.002,-19.229 c 0,0 6.488,6.123 10.239,-0.929 3.47,-6.528 -12.959,-3.165 -12.959,-3.165 l -1.864,18.934 -25.043,3.675 c 0,0 4.507,17.882 30.074,46.031"
         style="fill:#373737;fill-opacity:1;fill-rule:nonzero;stroke:none;stroke-width:0.1"
         id="path152" /><path
         d="m 486.835,196.102 33.907,-8.619 -0.808,34.568 4.829,3.709 c 6.915,-11.893 4.74,-21.301 31.001,-35.828 L 525.69,143.901 c -30.739,5.661 -57.659,39.831 -56.405,38.007 l 17.55,14.194"
         style="fill:#373737;fill-opacity:1;fill-rule:nonzero;stroke:none;stroke-width:0.1"
         id="path154" /><path
         d="m 519.934,222.051 0.808,-34.568 -33.907,8.619 z"
         style="fill:#f8f8f8;fill-opacity:1;fill-rule:nonzero;stroke:none;stroke-width:0.1"
         id="path156" /><path
         d="m 519.934,222.051 7.52,-9.2 -4.451,-5.2 6.298,-6.556 -8.559,-13.612 -0.808,34.568"
         style="fill:#7a7b7c;fill-opacity:1;fill-rule:nonzero;stroke:none;stroke-width:0.1"
         id="path158" /><path
         d="m 520.742,187.483 -15.916,-3.38 -3.631,5.506 -7.14,-2.32 -7.22,8.813 33.907,-8.619"
         style="fill:#7a7b7c;fill-opacity:1;fill-rule:nonzero;stroke:none;stroke-width:0.1"
         id="path160" /><path
         d="m 511.985,208.467 -3.782,1.251 -4.63,-3.351 0.795,-4.438 3.467,-0.713 5.262,-11.807 7.645,-1.926 -0.211,9.183 -8.623,7.563 0.077,4.238"
         style="fill:#b24929;fill-opacity:1;fill-rule:nonzero;stroke:none;stroke-width:0.1"
         id="path162" /><path
         d="m 522.313,182.051 c 0.812,-0.684 2.028,-0.578 2.712,0.235 0.686,0.815 0.58,2.029 -0.235,2.713 -0.814,0.685 -2.028,0.579 -2.711,-0.233 -0.686,-0.816 -0.581,-2.03 0.234,-2.715"
         style="fill:#7a7b7c;fill-opacity:1;fill-rule:nonzero;stroke:none;stroke-width:0.1"
         id="path164" /><path
         d="m 529.323,176.784 c 0.815,-0.685 2.029,-0.578 2.713,0.234 0.684,0.814 0.579,2.03 -0.234,2.713 -0.814,0.686 -2.029,0.579 -2.714,-0.234 -0.685,-0.813 -0.579,-2.027 0.235,-2.713"
         style="fill:#7a7b7c;fill-opacity:1;fill-rule:nonzero;stroke:none;stroke-width:0.1"
         id="path166" /><path
         d="m 483.343,290.48 c 0,0 35.03,-29.548 -26.607,-63.218 l 6.968,-11.463 c 0,0 -8.769,1.83 -5.942,-4.432 3.254,-7.212 7.863,-0.97 7.863,-0.97 0,0 4.317,-16.683 2.831,-26.154 -0.083,-0.528 -58.367,45.031 -31.021,54.052 0,0 -7.465,11.868 6.651,25.717 19.723,19.349 37.211,0.44 39.257,26.468"
         style="fill:#373737;fill-opacity:1;fill-rule:nonzero;stroke:none;stroke-width:0.1"
         id="path168" /><path
         d="m 503.294,228.28 c 0.528,0.321 1.217,0.139 1.543,-0.387 2.905,-4.687 1.849,-10.905 -2.612,-14.347 -4.459,-3.441 -10.74,-2.885 -14.537,1.111 -0.428,0.45 -0.423,1.168 0.025,1.597 4.889,4.686 10.086,8.689 15.581,12.026"
         style="fill:#ec6987;fill-opacity:1;fill-rule:nonzero;stroke:none;stroke-width:0.1"
         id="path170" /></g></g></svg>
