<?xml version="1.0" encoding="UTF-8" standalone="no"?>
<!-- Created with Inkscape (http://www.inkscape.org/) -->

<svg
   version="1.1"
   id="svg2"
   xml:space="preserve"
   width="454.95999"
   height="466.66666"
   viewBox="0 0 454.95999 466.66666"
   sodipodi:docname="sun_037.eps"
   xmlns:inkscape="http://www.inkscape.org/namespaces/inkscape"
   xmlns:sodipodi="http://sodipodi.sourceforge.net/DTD/sodipodi-0.dtd"
   xmlns="http://www.w3.org/2000/svg"
   xmlns:svg="http://www.w3.org/2000/svg"><defs
     id="defs6" /><sodipodi:namedview
     id="namedview4"
     pagecolor="#ffffff"
     bordercolor="#666666"
     borderopacity="1.0"
     inkscape:pageshadow="2"
     inkscape:pageopacity="0.0"
     inkscape:pagecheckerboard="0" /><g
     id="g8"
     inkscape:groupmode="layer"
     inkscape:label="ink_ext_XXXXXX"
     transform="matrix(1.3333333,0,0,-1.3333333,0,466.66667)"><g
       id="g10"
       transform="scale(0.1)"><path
         d="m 1706.11,3500 270.39,-565.41 488.91,392.1 -1.71,-626.72 610.6,141.14 -273.46,-563.92 611.39,-137.78 L 2921.17,1750 3412.23,1360.59 2800.84,1222.8 3074.3,658.887 2463.7,800.02 2465.41,173.301 1976.5,565.402 1706.11,0 1435.73,565.402 946.824,173.301 948.547,800.02 337.922,658.887 611.387,1222.8 0,1360.59 491.059,1750 0,2139.41 l 611.387,137.78 -273.465,563.92 610.625,-141.14 -1.723,626.72 488.906,-392.1 270.38,565.41"
         style="fill:#fad506;fill-opacity:1;fill-rule:nonzero;stroke:none"
         id="path12" /><path
         d="m 617.336,1750 c 0,-601.32 487.464,-1088.789 1088.774,-1088.789 601.32,0 1088.77,487.469 1088.77,1088.789 0,601.3 -487.45,1088.77 -1088.77,1088.77 C 1104.8,2838.76 617.336,2351.3 617.336,1750"
         style="fill:#f5f013;fill-opacity:1;fill-rule:nonzero;stroke:none"
         id="path14" /></g></g></svg>
